{"glyphs":{"0":{"ha":903,"x_min":0,"x_max":0,"o":"m 253 542 b 451 157 253 282 315 157 b 650 542 588 157 650 282 b 451 926 650 801 588 926 b 253 542 315 926 253 801 m 842 542 b 451 -19 842 190 718 -19 b 61 542 185 -19 61 190 b 451 1103 61 893 185 1103 b 842 542 718 1103 842 893 "},"1":{"ha":903,"x_min":0,"x_max":0,"o":"m 815 0 l 81 0 l 81 175 l 360 175 l 360 825 b 67 678 360 825 243 714 l 67 854 b 411 1103 268 907 411 1103 l 551 1103 l 551 175 l 815 175 "},"2":{"ha":903,"x_min":0,"x_max":0,"o":"m 51 131 b 489 439 128 171 347 293 b 638 744 585 536 638 636 b 450 926 638 860 564 926 b 257 744 342 926 264 871 l 69 744 b 450 1103 81 961 201 1103 b 829 753 674 1103 829 972 b 635 371 829 600 754 486 b 347 171 528 267 390 189 l 850 175 l 850 0 l 51 0 "},"3":{"ha":903,"x_min":0,"x_max":0,"o":"m 456 -19 b 63 339 203 -19 76 121 l 251 339 b 456 157 258 214 335 157 b 644 318 572 157 644 221 b 457 476 644 422 575 476 l 299 476 l 299 640 l 457 640 b 617 786 560 640 617 700 b 451 926 617 868 553 926 b 271 744 346 926 276 878 l 83 744 b 451 1103 94 963 215 1103 b 808 803 665 1103 808 979 b 631 564 808 686 743 592 b 836 294 769 528 836 433 b 456 -19 836 119 700 -19 "},"4":{"ha":903,"x_min":0,"x_max":0,"o":"m 743 736 l 743 392 l 858 392 l 858 217 l 743 217 l 743 0 l 551 0 l 551 217 l 42 217 l 42 340 b 396 1083 269 561 368 833 l 579 1083 b 268 386 558 843 460 547 l 551 392 l 551 681 "},"5":{"ha":903,"x_min":0,"x_max":0,"o":"m 450 -19 b 53 339 193 -19 68 128 l 242 339 b 450 157 250 207 338 157 b 657 357 579 157 657 240 b 454 563 657 475 579 563 b 250 454 351 563 288 517 l 82 515 l 115 1083 l 794 1083 l 806 908 l 292 908 l 275 635 b 501 729 324 692 400 729 b 849 356 711 729 849 560 b 450 -19 849 150 707 -19 "},"6":{"ha":903,"x_min":0,"x_max":0,"o":"m 656 340 b 464 524 656 450 583 524 b 271 340 343 524 271 450 b 464 157 271 231 343 157 b 656 340 583 157 656 231 m 481 1103 b 839 744 722 1103 839 946 l 650 744 b 476 926 650 875 583 926 b 251 546 339 926 256 832 b 506 700 293 642 388 700 b 849 340 706 700 849 556 b 467 -19 849 136 706 -19 b 61 542 183 -19 61 201 b 481 1103 61 914 219 1103 "},"7":{"ha":903,"x_min":0,"x_max":0,"o":"m 282 0 b 608 908 282 354 454 761 l 224 908 l 224 744 l 44 744 l 44 1083 l 865 1083 l 865 960 b 474 0 600 715 474 325 "},"8":{"ha":903,"x_min":0,"x_max":0,"o":"m 451 640 b 613 785 554 640 613 699 b 451 926 613 867 553 926 b 290 785 350 926 290 867 b 451 640 290 699 349 640 m 451 157 b 640 315 565 157 640 221 b 451 475 640 413 568 475 b 263 315 335 475 263 413 b 451 157 263 221 338 157 m 451 -19 b 71 301 203 -19 71 113 b 257 564 71 438 147 535 b 99 800 165 592 99 678 b 451 1103 99 976 238 1103 b 804 800 665 1103 804 976 b 646 564 804 678 738 592 b 832 301 756 535 832 438 b 451 -19 832 113 700 -19 "},"9":{"ha":903,"x_min":0,"x_max":0,"o":"m 258 743 b 450 560 258 633 331 560 b 643 743 571 560 643 633 b 450 926 643 853 571 926 b 258 743 331 926 258 853 m 426 -19 b 60 339 185 -19 60 131 l 249 339 b 431 157 249 206 324 157 b 663 538 569 157 658 251 b 408 383 621 442 526 383 b 65 743 208 383 65 528 b 447 1103 65 947 208 1103 b 853 542 731 1103 853 882 b 426 -19 853 169 688 -19 "},"A":{"ha":1056,"x_min":0,"x_max":0,"o":"m 725 238 l 324 238 l 239 0 l 26 0 l 432 1083 l 624 1083 l 1029 0 l 811 0 m 525 818 l 439 558 l 389 418 l 661 418 l 611 558 "},"B":{"ha":1003,"x_min":0,"x_max":0,"o":"m 111 0 l 111 1083 l 576 1083 b 911 781 771 1083 911 975 b 792 568 911 678 854 610 b 947 324 874 529 947 457 b 592 0 947 121 818 0 m 603 181 b 750 328 682 181 750 228 b 603 465 750 426 665 465 l 306 465 l 306 181 m 306 903 l 306 646 l 585 646 b 714 772 656 646 714 693 b 590 903 714 851 661 903 "},"C":{"ha":1217,"x_min":0,"x_max":0,"o":"m 267 542 b 633 161 267 304 421 161 b 953 413 839 161 929 288 l 1151 413 b 619 -19 1126 194 963 -19 b 69 542 308 -19 69 203 b 619 1103 69 881 308 1103 b 1151 671 963 1103 1126 889 l 953 671 b 633 922 929 796 839 922 b 267 542 421 922 267 779 "},"D":{"ha":1153,"x_min":0,"x_max":0,"o":"m 1083 542 b 529 0 1083 211 874 0 l 111 0 l 111 1083 l 529 1083 b 1083 542 874 1083 1083 872 m 514 181 b 886 542 750 181 886 317 b 514 903 886 767 750 903 l 306 903 l 306 181 "},"E":{"ha":986,"x_min":0,"x_max":0,"o":"m 889 1083 l 889 903 l 306 903 l 306 646 l 833 646 l 833 465 l 306 465 l 306 181 l 917 181 l 917 0 l 111 0 l 111 1083 "},"€":{"ha":903,"x_min":0,"x_max":0,"o":"m 139 507 l 139 576 l 42 576 l 42 715 l 150 715 b 529 1103 186 960 307 1103 b 860 783 751 1103 856 975 l 664 783 b 528 928 660 868 618 928 b 342 715 426 928 365 861 l 742 715 l 697 576 l 331 576 l 331 507 l 675 507 l 631 368 l 342 368 b 528 156 365 221 426 156 b 664 300 618 156 660 215 l 860 300 b 529 -19 856 108 751 -19 b 150 368 307 -19 186 122 l 42 368 l 42 507 "},"F":{"ha":910,"x_min":0,"x_max":0,"o":"m 306 0 l 111 0 l 111 1083 l 861 1083 l 861 903 l 306 903 l 306 646 l 806 646 l 806 465 l 306 465 "},"G":{"ha":1228,"x_min":0,"x_max":0,"o":"m 1126 0 l 951 0 l 951 169 b 583 -19 882 67 764 -19 b 69 542 321 -19 69 200 b 621 1103 69 883 306 1103 b 1125 711 938 1103 1099 906 l 917 711 b 629 922 893 829 803 922 b 267 542 415 922 267 774 b 608 161 267 310 425 161 b 903 375 790 161 882 261 l 635 375 l 635 550 l 1126 550 "},"H":{"ha":1111,"x_min":0,"x_max":0,"o":"m 1000 1083 l 1000 0 l 806 0 l 806 465 l 306 465 l 306 0 l 111 0 l 111 1083 l 306 1083 l 306 646 l 806 646 l 806 1083 "},"I":{"ha":444,"x_min":0,"x_max":0,"o":"m 319 0 l 125 0 l 125 1083 l 319 1083 "},"J":{"ha":736,"x_min":0,"x_max":0,"o":"m 632 1083 l 632 289 b 324 -19 632 108 504 -19 b 31 272 142 -19 35 89 l 211 272 b 324 160 213 204 253 160 b 438 281 404 160 438 208 l 438 1083 "},"K":{"ha":1036,"x_min":0,"x_max":0,"o":"m 306 615 l 736 1083 l 997 1083 l 531 590 l 1018 0 l 764 0 l 400 451 l 306 353 l 306 0 l 111 0 l 111 1083 l 306 1083 "},"L":{"ha":861,"x_min":0,"x_max":0,"o":"m 306 181 l 833 181 l 833 0 l 111 0 l 111 1083 l 306 1083 "},"M":{"ha":1306,"x_min":0,"x_max":0,"o":"m 360 544 l 296 726 l 301 465 l 301 0 l 111 0 l 111 1083 l 358 1083 l 568 539 l 656 289 l 743 539 l 953 1083 l 1194 1083 l 1194 0 l 1007 0 l 1007 465 l 1013 726 l 949 544 l 739 0 l 569 0 "},"N":{"ha":1125,"x_min":0,"x_max":0,"o":"m 831 344 l 825 618 l 825 1083 l 1014 1083 l 1014 0 l 842 0 l 294 739 l 300 465 l 300 0 l 111 0 l 111 1083 l 283 1083 "},"O":{"ha":1269,"x_min":0,"x_max":0,"o":"m 635 161 b 1003 542 849 161 1003 301 b 635 922 1003 782 849 922 b 267 542 421 922 267 782 b 635 161 267 301 421 161 m 635 -19 b 69 542 311 -19 69 196 b 635 1103 69 888 311 1103 b 1200 542 958 1103 1200 888 b 635 -19 1200 196 958 -19 "},"P":{"ha":929,"x_min":0,"x_max":0,"o":"m 533 581 b 694 742 628 581 694 642 b 533 903 694 842 628 903 l 306 903 l 306 581 m 306 0 l 111 0 l 111 1083 l 556 1083 b 892 742 756 1083 892 939 b 556 400 892 544 756 400 l 306 400 "},"Q":{"ha":1269,"x_min":0,"x_max":0,"o":"m 897 -139 l 790 -1 b 635 -19 740 -12 689 -19 b 69 542 311 -19 69 196 b 635 1103 69 888 311 1103 b 1200 542 958 1103 1200 888 b 954 65 1200 325 1104 158 l 1114 -139 m 664 161 l 510 361 l 724 361 l 838 214 b 1003 542 939 275 1003 388 b 635 922 1003 782 849 922 b 267 542 421 922 267 782 b 635 161 267 301 421 161 "},"R":{"ha":992,"x_min":0,"x_max":0,"o":"m 306 0 l 111 0 l 111 1083 l 586 1083 b 914 750 781 1083 914 943 b 688 431 914 592 825 469 l 949 0 l 719 0 l 469 417 l 306 417 m 564 597 b 717 750 653 597 717 656 b 564 903 717 844 653 903 l 306 903 l 306 597 "},"S":{"ha":944,"x_min":0,"x_max":0,"o":"m 464 931 b 289 789 346 931 289 861 b 501 656 289 708 338 668 b 890 326 772 636 890 528 b 481 -19 890 118 725 -19 b 56 406 210 -19 38 126 l 243 406 b 481 153 233 256 308 153 b 689 313 615 153 689 225 b 453 469 689 410 628 457 b 88 774 226 486 88 575 b 463 1103 88 961 244 1103 b 853 722 717 1103 867 958 l 665 722 b 464 931 672 854 604 931 "},"T":{"ha":917,"x_min":0,"x_max":0,"o":"m 556 0 l 361 0 l 361 903 l 28 903 l 28 1083 l 889 1083 l 889 903 l 556 903 "},"U":{"ha":1089,"x_min":0,"x_max":0,"o":"m 544 -19 b 97 428 276 -19 97 160 l 97 1083 l 292 1083 l 292 414 b 544 161 292 264 394 161 b 797 414 694 161 797 264 l 797 1083 l 992 1083 l 992 428 b 544 -19 992 160 813 -19 "},"V":{"ha":1056,"x_min":0,"x_max":0,"o":"m 531 265 l 617 525 l 817 1083 l 1029 1083 l 624 0 l 432 0 l 26 1083 l 244 1083 l 444 525 "},"W":{"ha":1597,"x_min":0,"x_max":0,"o":"m 1061 0 l 867 585 l 799 800 l 731 585 l 536 0 l 340 0 l 39 1083 l 238 1083 l 393 518 l 446 315 l 513 526 l 694 1083 l 906 1083 l 1088 526 l 1154 315 l 1207 518 l 1363 1083 l 1558 1083 l 1257 0 "},"X":{"ha":1056,"x_min":0,"x_max":0,"o":"m 415 556 l 54 1083 l 285 1083 l 438 851 l 528 713 l 618 851 l 771 1083 l 1001 1083 l 640 556 l 1022 0 l 789 0 l 624 250 l 528 396 l 432 250 l 267 0 l 33 0 "},"Y":{"ha":1014,"x_min":0,"x_max":0,"o":"m 231 1083 l 424 764 l 510 617 l 596 764 l 789 1083 l 1010 1083 l 604 435 l 604 0 l 410 0 l 410 435 l 4 1083 "},"Z":{"ha":986,"x_min":0,"x_max":0,"o":"m 408 276 l 331 179 l 544 181 l 921 181 l 921 0 l 65 0 l 65 139 l 576 807 l 654 904 l 440 903 l 92 903 l 92 1083 l 919 1083 l 919 944 "},"æ":{"ha":1310,"x_min":0,"x_max":0,"o":"m 81 490 b 399 756 90 621 183 756 b 650 636 522 756 604 711 b 903 756 707 713 793 756 b 1261 368 1099 756 1261 614 b 1254 304 1261 342 1257 314 l 722 304 b 908 133 732 197 799 133 b 1079 233 1019 133 1063 183 l 1256 233 b 910 -19 1235 107 1136 -19 b 601 128 778 -19 668 35 b 326 -19 544 25 442 -19 b 57 208 143 -19 57 88 b 333 442 57 350 154 443 l 531 443 l 531 492 b 394 603 531 554 483 603 b 247 490 306 603 253 558 m 1067 443 b 897 603 1058 547 994 603 b 725 443 800 603 733 544 m 250 219 b 350 133 250 167 293 133 b 529 304 461 133 518 225 l 358 304 b 250 219 288 304 250 274 "},"&":{"ha":1018,"x_min":0,"x_max":0,"o":"m 415 1103 b 717 826 613 1103 717 981 b 504 543 717 700 629 604 l 710 315 b 774 569 753 389 774 479 l 965 569 b 839 172 965 435 926 286 l 996 0 l 776 0 l 718 63 b 417 -19 639 11 540 -19 b 50 306 192 -19 50 104 b 225 590 50 426 92 514 b 114 826 158 664 114 725 b 415 1103 114 981 218 1103 m 417 156 b 592 199 486 156 543 171 l 340 467 b 242 306 268 424 242 376 b 417 156 242 208 319 156 m 306 825 b 390 668 306 778 336 732 b 525 826 499 724 525 776 b 415 928 525 883 485 928 b 306 825 346 928 306 883 "},"*":{"ha":656,"x_min":0,"x_max":0,"o":"m 415 1083 l 396 900 l 565 975 l 619 808 l 438 769 l 563 632 l 421 529 l 328 689 l 235 529 l 93 632 l 217 769 l 36 808 l 90 975 l 260 899 l 240 1083 "},":":{"ha":389,"x_min":0,"x_max":0,"o":"m 76 104 b 194 222 76 169 129 222 b 313 104 260 222 313 169 b 194 -14 313 39 260 -14 b 76 104 129 -14 76 39 m 76 565 b 194 683 76 631 129 683 b 313 565 260 683 313 631 b 194 447 313 500 260 447 b 76 565 129 447 76 500 "},",":{"ha":389,"x_min":0,"x_max":0,"o":"m 49 -93 b 185 -14 118 -82 161 -58 b 76 104 124 -10 76 42 b 194 222 76 169 129 222 b 322 65 260 222 322 175 b 49 -192 322 -61 233 -171 "},"$":{"ha":903,"x_min":0,"x_max":0,"o":"m 522 -194 l 383 -194 l 383 -15 b 56 333 174 6 63 126 l 244 333 b 383 164 246 250 296 186 l 383 488 b 93 789 215 526 93 599 b 383 1099 93 971 208 1078 l 383 1278 l 522 1278 l 522 1099 b 817 778 743 1074 810 931 l 629 778 b 522 919 626 844 600 899 l 522 638 b 847 315 751 589 847 503 b 522 -15 847 118 707 6 m 656 311 b 522 457 656 379 624 425 l 522 163 b 656 311 604 183 656 242 m 285 797 b 383 672 285 742 308 701 l 383 919 b 285 797 325 903 285 860 "},"=":{"ha":903,"x_min":0,"x_max":0,"o":"m 69 281 l 69 456 l 833 456 l 833 281 m 69 628 l 69 803 l 833 803 l 833 628 "},"!":{"ha":389,"x_min":0,"x_max":0,"o":"m 76 1083 l 313 1083 l 265 324 l 124 324 m 76 104 b 194 222 76 169 129 222 b 313 104 260 222 313 169 b 194 -14 313 39 260 -14 b 76 104 129 -14 76 39 "},"-":{"ha":500,"x_min":0,"x_max":0,"o":"m 63 378 l 63 556 l 438 556 l 438 378 "},"(":{"ha":500,"x_min":0,"x_max":0,"o":"m 253 472 b 479 -146 253 78 429 -107 l 357 -268 b 57 472 294 -224 57 -14 b 357 1213 57 958 294 1168 l 479 1090 b 253 472 429 1051 253 867 "},")":{"ha":500,"x_min":0,"x_max":0,"o":"m 247 472 b 21 1090 247 867 71 1051 l 143 1213 b 443 472 206 1168 443 958 b 143 -268 443 -14 206 -224 l 21 -146 b 247 472 71 -107 247 78 "},".":{"ha":389,"x_min":0,"x_max":0,"o":"m 76 104 b 194 222 76 169 129 222 b 313 104 260 222 313 169 b 194 -14 313 39 260 -14 b 76 104 129 -14 76 39 "},"+":{"ha":903,"x_min":0,"x_max":0,"o":"m 364 454 l 69 454 l 69 629 l 364 629 l 364 924 l 539 924 l 539 629 l 833 629 l 833 454 l 539 454 l 539 160 l 364 160 "},"?":{"ha":814,"x_min":0,"x_max":0,"o":"m 285 104 b 403 222 285 169 338 222 b 521 104 468 222 521 169 b 403 -14 521 39 468 -14 b 285 104 338 -14 285 39 m 736 779 b 389 301 736 521 560 376 l 338 464 b 544 776 442 524 544 614 b 403 928 544 886 469 928 b 257 756 336 928 263 892 l 64 756 b 403 1103 69 988 206 1103 b 736 779 600 1103 736 981 "},"\"":{"ha":611,"x_min":0,"x_max":0,"o":"m 278 1083 l 244 736 l 56 736 l 89 1083 m 556 1083 l 522 736 l 333 736 l 367 1083 "},"'":{"ha":333,"x_min":0,"x_max":0,"o":"m 278 1083 l 244 736 l 56 736 l 89 1083 "},";":{"ha":389,"x_min":0,"x_max":0,"o":"m 76 565 b 194 683 76 631 129 683 b 313 565 260 683 313 631 b 194 447 313 500 260 447 b 76 565 129 447 76 500 m 49 -93 b 185 -14 118 -82 161 -58 b 76 104 124 -10 76 42 b 194 222 76 169 129 222 b 322 65 260 222 322 175 b 49 -192 322 -61 233 -171 "}," ":{"ha":319,"x_min":0,"x_max":0,"o":""},"£":{"ha":903,"x_min":0,"x_max":0,"o":"m 147 629 b 125 790 135 676 125 726 b 472 1103 125 982 258 1103 b 822 756 686 1103 824 985 l 629 756 b 472 928 628 863 578 928 b 317 772 367 928 317 857 b 338 629 317 725 325 678 l 658 629 l 658 454 l 379 454 b 386 379 383 429 386 404 b 297 175 386 299 353 215 l 847 175 l 847 0 l 56 0 l 56 124 b 200 374 163 199 200 251 b 193 454 200 403 197 429 l 42 454 l 42 629 "},"Æ":{"ha":1576,"x_min":0,"x_max":0,"o":"m 763 238 l 360 238 l 229 0 l 11 0 l 622 1083 l 1479 1083 l 1479 903 l 851 903 l 897 646 l 1424 646 l 1424 465 l 929 465 l 981 181 l 1507 181 l 1507 0 l 801 0 m 674 818 l 538 561 l 458 418 l 733 418 l 710 561 "},"#":{"ha":903,"x_min":0,"x_max":0,"o":"m 861 632 l 719 632 l 683 451 l 792 451 l 792 276 l 647 276 l 590 0 l 399 0 l 456 276 l 339 276 l 282 0 l 90 0 l 147 276 l 42 276 l 42 451 l 183 451 l 219 632 l 111 632 l 111 807 l 256 807 l 313 1083 l 504 1083 l 447 807 l 564 807 l 621 1083 l 813 1083 l 756 807 l 861 807 m 375 451 l 492 451 l 528 632 l 411 632 "},"/":{"ha":500,"x_min":0,"x_max":0,"o":"m -3 -222 l 282 1167 l 474 1167 l 189 -222 "},"%":{"ha":1319,"x_min":0,"x_max":0,"o":"m 244 0 l 883 1083 l 1075 1083 l 436 0 m 42 832 b 313 1103 42 982 163 1103 b 583 832 463 1103 583 982 b 313 561 583 682 463 561 b 42 832 163 561 42 682 m 194 832 b 313 714 194 767 247 714 b 431 832 378 714 431 767 b 313 950 431 897 378 950 b 194 832 247 950 194 897 m 1278 251 b 1007 -19 1278 101 1157 -19 b 736 251 857 -19 736 101 b 1007 522 736 401 857 522 b 1278 251 1157 522 1278 401 m 1125 251 b 1007 369 1125 317 1072 369 b 889 251 942 369 889 317 b 1007 133 889 186 942 133 b 1125 251 1072 133 1125 186 "},"\\":{"ha":500,"x_min":0,"x_max":0,"o":"m 311 -222 l 26 1167 l 218 1167 l 503 -222 "},"[":{"ha":556,"x_min":0,"x_max":0,"o":"m 514 1167 l 514 989 l 292 989 l 292 -44 l 514 -44 l 514 -222 l 111 -222 l 111 1167 "},"]":{"ha":556,"x_min":0,"x_max":0,"o":"m 444 1167 l 444 -222 l 42 -222 l 42 -44 l 264 -44 l 264 989 l 42 989 l 42 1167 "},"|":{"ha":472,"x_min":0,"x_max":0,"o":"m 326 1167 l 326 -222 l 146 -222 l 146 1167 "},"−":{"ha":903,"x_min":0,"x_max":0,"o":"m 69 454 l 69 629 l 833 629 l 833 454 "},"±":{"ha":903,"x_min":0,"x_max":0,"o":"m 364 592 l 69 592 l 69 767 l 364 767 l 364 974 l 539 974 l 539 767 l 833 767 l 833 592 l 539 592 l 539 385 l 364 385 m 69 111 l 69 286 l 833 286 l 833 111 "},"×":{"ha":903,"x_min":0,"x_max":0,"o":"m 451 418 l 193 160 l 69 283 l 328 542 l 69 800 l 193 924 l 451 665 l 710 924 l 833 800 l 575 542 l 833 283 l 710 160 "},"÷":{"ha":903,"x_min":0,"x_max":0,"o":"m 69 454 l 69 629 l 833 629 l 833 454 m 333 264 b 451 382 333 329 386 382 b 569 264 517 382 569 329 b 451 146 569 199 517 146 b 333 264 386 146 333 199 m 333 819 b 451 938 333 885 386 938 b 569 819 517 938 569 885 b 451 701 569 754 517 701 b 333 819 386 701 333 754 "},"¢":{"ha":903,"x_min":0,"x_max":0,"o":"m 529 963 b 847 647 731 942 838 815 l 656 647 b 529 783 649 717 603 767 l 529 299 b 656 436 603 315 649 365 l 847 436 b 529 121 838 267 731 140 l 529 0 l 390 0 l 390 124 b 53 542 186 156 53 310 b 390 958 53 774 186 926 l 390 1083 l 529 1083 m 244 542 b 390 306 244 422 300 336 l 390 778 b 244 542 300 747 244 661 "},"†":{"ha":656,"x_min":0,"x_max":0,"o":"m 263 740 l 50 718 l 50 893 l 263 871 l 240 1083 l 415 1083 l 393 871 l 606 893 l 606 718 l 393 740 l 415 528 l 386 250 l 269 250 l 240 528 "},"‡":{"ha":656,"x_min":0,"x_max":0,"o":"m 415 1083 l 393 871 l 606 893 l 606 718 l 393 740 l 401 681 l 393 621 l 606 643 l 606 468 l 393 490 l 415 278 l 386 0 l 269 0 l 240 278 l 263 490 l 50 468 l 50 643 l 261 621 l 254 681 l 261 740 l 50 718 l 50 893 l 263 871 l 240 1083 "},"‴":{"ha":889,"x_min":0,"x_max":0,"o":"m 278 1083 l 244 736 l 56 736 l 89 1083 m 556 1083 l 522 736 l 333 736 l 367 1083 m 833 1083 l 800 736 l 611 736 l 644 1083 "},"{":{"ha":556,"x_min":0,"x_max":0,"o":"m 106 565 b 207 668 161 565 207 601 b 167 938 207 746 167 840 b 439 1167 167 1081 278 1167 l 514 1167 l 514 989 l 457 989 b 347 886 397 989 347 956 b 388 617 347 789 388 713 b 297 472 388 535 350 489 b 388 328 350 456 388 410 b 347 58 388 232 347 156 b 457 -44 347 -11 397 -44 l 514 -44 l 514 -222 l 439 -222 b 167 7 278 -222 167 -136 b 207 276 167 104 207 199 b 106 379 207 343 161 379 l 60 379 l 60 565 "},"}":{"ha":556,"x_min":0,"x_max":0,"o":"m 450 379 b 349 276 394 379 349 343 b 389 7 349 199 389 104 b 117 -222 389 -136 278 -222 l 42 -222 l 42 -44 l 99 -44 b 208 58 158 -44 208 -11 b 168 328 208 156 168 232 b 258 472 168 410 206 456 b 168 617 206 489 168 535 b 208 886 168 713 208 789 b 99 989 208 956 158 989 l 42 989 l 42 1167 l 117 1167 b 389 938 278 1167 389 1081 b 349 668 389 840 349 746 b 450 565 349 601 394 565 l 496 565 l 496 379 "},"¦":{"ha":472,"x_min":0,"x_max":0,"o":"m 326 403 l 326 -222 l 146 -222 l 146 403 m 326 1167 l 326 542 l 146 542 l 146 1167 "},"‖":{"ha":750,"x_min":0,"x_max":0,"o":"m 326 1167 l 326 -222 l 146 -222 l 146 1167 m 604 1167 l 604 -222 l 424 -222 l 424 1167 "},"­":{"ha":500,"x_min":0,"x_max":0,"o":"m 63 378 l 63 556 l 438 556 l 438 378 "},"·":{"ha":389,"x_min":0,"x_max":0,"o":"m 76 467 b 194 585 76 532 129 585 b 313 467 260 585 313 532 b 194 349 313 401 260 349 b 76 467 129 349 76 401 "},"—":{"ha":1306,"x_min":0,"x_max":0,"o":"m 63 378 l 63 556 l 1243 556 l 1243 378 "},"–":{"ha":653,"x_min":0,"x_max":0,"o":"m 63 378 l 63 556 l 590 556 l 590 378 "},"‒":{"ha":903,"x_min":0,"x_max":0,"o":"m 63 378 l 63 556 l 840 556 l 840 378 "},"―":{"ha":1806,"x_min":0,"x_max":0,"o":"m 63 378 l 63 556 l 1743 556 l 1743 378 "},"¥":{"ha":903,"x_min":0,"x_max":0,"o":"m 254 1083 l 454 621 l 654 1083 l 875 1083 l 651 611 l 833 611 l 833 472 l 586 472 l 554 403 l 833 403 l 833 264 l 549 264 l 549 0 l 354 0 l 354 264 l 69 264 l 69 403 l 349 403 l 315 472 l 69 472 l 69 611 l 250 611 l 28 1083 "},"〈":{"ha":500,"x_min":0,"x_max":0,"o":"m 499 -222 l 303 -222 l 21 472 l 303 1167 l 499 1167 l 217 472 "},"〉":{"ha":500,"x_min":0,"x_max":0,"o":"m 1 1167 l 197 1167 l 479 472 l 197 -222 l 1 -222 l 283 472 "},"§":{"ha":854,"x_min":0,"x_max":0,"o":"m 429 -125 b 564 -18 507 -125 564 -87 b 393 103 564 49 526 81 b 63 396 165 139 63 217 b 186 615 63 506 110 574 b 96 819 129 658 96 722 b 425 1104 96 1013 244 1104 b 765 810 664 1104 757 974 l 571 810 b 425 932 565 876 538 932 b 290 825 347 932 290 894 b 461 704 290 758 328 726 b 792 411 689 668 792 590 b 668 192 792 300 744 233 b 758 -12 725 149 758 85 b 429 -297 758 -206 610 -297 b 89 -3 190 -297 97 -167 l 283 -3 b 429 -125 289 -69 317 -125 m 431 279 b 596 404 535 279 596 335 l 596 411 b 424 528 592 508 522 528 b 258 403 319 528 258 472 b 431 279 258 300 329 279 "},"¶":{"ha":874,"x_min":0,"x_max":0,"o":"m 568 400 l 374 400 b 38 742 174 400 38 544 b 374 1083 38 939 174 1083 l 763 1083 l 763 0 l 568 0 "},"<":{"ha":903,"x_min":0,"x_max":0,"o":"m 276 556 l 833 358 l 833 183 l 69 468 l 69 643 l 833 928 l 833 753 "},">":{"ha":903,"x_min":0,"x_max":0,"o":"m 625 556 l 69 753 l 69 928 l 833 643 l 833 468 l 69 183 l 69 358 "},"^":{"ha":903,"x_min":0,"x_max":0,"o":"m 451 875 l 254 319 l 79 319 l 364 1083 l 539 1083 l 824 319 l 649 319 "},"_":{"ha":500,"x_min":0,"x_max":0,"o":"m 63 -278 l 63 -100 l 438 -100 l 438 -278 "},"°":{"ha":625,"x_min":0,"x_max":0,"o":"m 42 832 b 313 1103 42 982 163 1103 b 583 832 463 1103 583 982 b 313 561 583 682 463 561 b 42 832 163 561 42 682 m 194 832 b 313 714 194 767 247 714 b 431 832 378 714 431 767 b 313 950 431 897 378 950 b 194 832 247 950 194 897 "},"‘":{"ha":347,"x_min":0,"x_max":0,"o":"m 299 1032 b 163 953 229 1021 186 997 b 271 835 224 949 271 897 b 153 717 271 769 218 717 b 25 874 88 717 25 764 b 299 1131 25 1000 114 1110 "},"’":{"ha":347,"x_min":0,"x_max":0,"o":"m 49 815 b 185 894 118 826 161 850 b 76 1013 124 899 76 950 b 194 1131 76 1078 129 1131 b 322 974 260 1131 322 1083 b 49 717 322 847 233 738 "},"“":{"ha":639,"x_min":0,"x_max":0,"o":"m 299 1032 b 163 953 229 1021 186 997 b 271 835 224 949 271 897 b 153 717 271 769 218 717 b 25 874 88 717 25 764 b 299 1131 25 1000 114 1110 m 590 1032 b 454 953 521 1021 478 997 b 563 835 515 949 563 897 b 444 717 563 769 510 717 b 317 874 379 717 317 764 b 590 1131 317 1000 406 1110 "},"”":{"ha":639,"x_min":0,"x_max":0,"o":"m 340 815 b 476 894 410 826 453 850 b 368 1013 415 899 368 950 b 486 1131 368 1078 421 1131 b 614 974 551 1131 614 1083 b 340 717 614 847 525 738 m 49 815 b 185 894 118 826 161 850 b 76 1013 124 899 76 950 b 194 1131 76 1078 129 1131 b 322 974 260 1131 322 1083 b 49 717 322 847 233 738 "},"‛":{"ha":347,"x_min":0,"x_max":0,"o":"m 299 717 b 25 974 114 738 25 847 b 153 1131 25 1083 88 1131 b 271 1013 218 1131 271 1078 b 163 894 271 950 224 899 b 299 815 186 850 229 826 "},"‟":{"ha":639,"x_min":0,"x_max":0,"o":"m 299 717 b 25 974 114 738 25 847 b 153 1131 25 1083 88 1131 b 271 1013 218 1131 271 1078 b 163 894 271 950 224 899 b 299 815 186 850 229 826 m 590 717 b 317 974 406 738 317 847 b 444 1131 317 1083 379 1131 b 563 1013 510 1131 563 1078 b 454 894 563 950 515 899 b 590 815 478 850 521 826 "},"‚":{"ha":347,"x_min":0,"x_max":0,"o":"m 49 -93 b 185 -14 118 -82 161 -58 b 76 104 124 -10 76 42 b 194 222 76 169 129 222 b 322 65 260 222 322 175 b 49 -192 322 -61 233 -171 "},"„":{"ha":639,"x_min":0,"x_max":0,"o":"m 340 -93 b 476 -14 410 -82 453 -58 b 368 104 415 -10 368 42 b 486 222 368 169 421 222 b 614 65 551 222 614 175 b 340 -192 614 -61 525 -171 m 49 -93 b 185 -14 118 -82 161 -58 b 76 104 124 -10 76 42 b 194 222 76 169 129 222 b 322 65 260 222 322 175 b 49 -192 322 -61 233 -171 "},"@":{"ha":1444,"x_min":0,"x_max":0,"o":"m 743 -218 b 43 442 333 -218 43 75 b 739 1101 43 807 346 1101 b 1400 528 1135 1101 1400 893 b 1094 132 1400 244 1238 132 b 904 242 1007 132 935 169 b 675 131 842 160 765 131 b 386 442 518 131 386 254 b 675 753 386 631 517 753 b 872 653 774 753 846 710 l 872 736 l 1017 736 l 1017 375 b 1097 289 1017 317 1053 289 b 1233 525 1157 289 1233 331 b 739 950 1233 806 1039 950 b 213 442 444 950 213 721 b 743 -67 213 161 431 -67 b 1103 58 965 -67 1065 17 l 1310 58 b 743 -218 1242 -67 1079 -218 m 867 442 b 711 603 867 538 804 603 b 556 442 633 603 556 549 b 711 281 556 335 633 281 b 867 442 804 281 867 346 "},"Ø":{"ha":1269,"x_min":0,"x_max":0,"o":"m 635 -19 b 333 56 522 -19 419 7 l 288 0 l 93 0 l 214 147 b 69 542 124 244 69 378 b 635 1103 69 888 311 1103 b 936 1028 747 1103 850 1076 l 982 1083 l 1176 1083 l 1054 935 b 1200 542 1146 839 1200 704 b 635 -19 1200 196 958 -19 m 267 542 b 338 299 267 443 292 361 l 815 881 b 635 922 763 907 701 922 b 267 542 421 922 267 782 m 635 161 b 1003 542 849 161 1003 301 b 931 783 1003 640 976 722 l 453 201 b 635 161 506 175 567 161 "},"ø":{"ha":883,"x_min":0,"x_max":0,"o":"m 442 -19 b 239 28 365 -19 297 -3 l 217 0 l 50 0 l 139 107 b 49 368 82 172 49 261 b 442 756 49 603 211 756 b 643 708 517 756 586 739 l 667 736 l 833 736 l 743 629 b 835 368 801 563 835 474 b 442 -19 835 133 672 -19 m 442 158 b 642 368 561 158 642 240 b 617 478 642 410 632 447 l 361 172 b 442 158 385 163 413 158 m 242 368 b 267 258 242 326 250 289 l 522 564 b 442 578 497 572 471 578 b 242 368 322 578 242 496 "},"ƒ":{"ha":903,"x_min":0,"x_max":0,"o":"m 667 786 b 542 925 667 872 626 925 b 417 800 457 925 417 868 b 458 629 417 747 433 689 l 728 629 l 728 454 l 546 454 b 699 14 619 313 699 160 b 378 -297 699 -161 572 -297 b 58 19 182 -297 57 -189 l 253 19 b 378 -119 253 -67 293 -119 b 503 6 463 -119 503 -62 b 321 454 503 133 403 289 l 111 454 l 111 629 l 249 629 b 221 792 231 683 221 738 b 542 1103 221 967 347 1103 b 861 786 738 1103 863 994 "},"´":{"ha":678,"x_min":0,"x_max":0,"o":"m 549 1083 l 435 839 l 243 839 l 354 1083 "},"˘":{"ha":678,"x_min":0,"x_max":0,"o":"m 339 819 b 75 1083 172 819 75 910 l 221 1083 b 339 961 221 1003 267 961 b 457 1083 411 961 457 1003 l 603 1083 b 339 819 603 910 506 819 "},"ˇ":{"ha":678,"x_min":0,"x_max":0,"o":"m 250 1083 l 339 983 l 428 1083 l 622 1083 l 419 839 l 258 839 l 56 1083 "},"¸":{"ha":676,"x_min":0,"x_max":0,"o":"m 240 -151 b 318 -175 256 -162 289 -175 b 381 -147 360 -175 381 -165 b 276 -100 381 -115 324 -106 l 289 0 l 403 0 l 397 -44 b 519 -175 471 -62 519 -103 b 340 -297 519 -235 464 -297 b 189 -253 254 -297 213 -269 "},"ˆ":{"ha":678,"x_min":0,"x_max":0,"o":"m 56 839 l 258 1083 l 419 1083 l 622 839 l 428 839 l 339 939 l 250 839 "},"¨":{"ha":678,"x_min":0,"x_max":0,"o":"m 82 961 b 200 1079 82 1026 135 1079 b 318 961 265 1079 318 1026 b 200 843 318 896 265 843 b 82 961 135 843 82 896 m 360 961 b 478 1079 360 1026 413 1079 b 596 961 543 1079 596 1026 b 478 843 596 896 543 843 b 360 961 413 843 360 896 "},"˙":{"ha":678,"x_min":0,"x_max":0,"o":"m 221 961 b 339 1079 221 1026 274 1079 b 457 961 404 1079 457 1026 b 339 843 457 896 404 843 b 221 961 274 843 221 896 "},"`":{"ha":678,"x_min":0,"x_max":0,"o":"m 324 1083 l 435 839 l 243 839 l 129 1083 "},"˝":{"ha":678,"x_min":0,"x_max":0,"o":"m 310 839 l 118 839 l 229 1083 l 424 1083 m 674 1083 l 560 839 l 368 839 l 479 1083 "},"¯":{"ha":678,"x_min":0,"x_max":0,"o":"m 553 1046 l 553 876 l 125 876 l 125 1046 "},"˛":{"ha":678,"x_min":0,"x_max":0,"o":"m 433 -253 b 265 -297 410 -269 351 -297 b 78 -140 133 -297 78 -217 b 274 78 78 -19 196 50 l 339 0 b 225 -111 269 -18 225 -57 b 299 -172 225 -153 260 -172 b 381 -149 336 -172 365 -160 "},"˚":{"ha":678,"x_min":0,"x_max":0,"o":"m 197 961 b 339 1103 197 1039 261 1103 b 481 961 417 1103 481 1039 b 339 819 481 883 417 819 b 197 961 261 819 197 883 m 281 961 b 339 903 281 929 307 903 b 397 961 371 903 397 929 b 339 1019 397 993 371 1019 b 281 961 307 1019 281 993 "},"˜":{"ha":678,"x_min":0,"x_max":0,"o":"m 228 1083 b 436 1006 339 1083 369 1006 b 493 1063 471 1006 493 1029 l 639 1063 b 450 839 639 922 576 839 b 242 917 339 839 308 917 b 185 860 207 917 185 893 l 39 860 b 228 1083 39 1000 101 1083 "},"≠":{"ha":903,"x_min":0,"x_max":0,"o":"m 597 628 l 496 456 l 833 456 l 833 281 l 393 281 l 293 111 l 101 111 l 201 281 l 69 281 l 69 456 l 304 456 l 406 628 l 69 628 l 69 803 l 510 803 l 610 972 l 801 972 l 701 803 l 833 803 l 833 628 "},"≈":{"ha":903,"x_min":0,"x_max":0,"o":"m 833 817 b 611 571 833 668 739 571 b 306 667 467 571 372 667 b 258 614 278 667 258 646 l 69 614 b 292 860 69 763 164 860 b 597 764 436 860 531 764 b 644 817 625 764 644 785 m 833 469 b 611 224 833 321 739 224 b 306 319 467 224 372 319 b 258 267 278 319 258 299 l 69 267 b 292 513 69 415 164 513 b 597 417 436 513 531 417 b 644 469 625 417 644 438 "},"~":{"ha":903,"x_min":0,"x_max":0,"o":"m 833 643 b 611 397 833 494 739 397 b 306 493 467 397 372 493 b 258 440 278 493 258 472 l 69 440 b 292 686 69 589 164 686 b 597 590 436 686 531 590 b 644 643 625 590 644 611 "},"…":{"ha":1306,"x_min":0,"x_max":0,"o":"m 118 104 b 236 222 118 169 171 222 b 354 104 301 222 354 169 b 236 -14 354 39 301 -14 b 118 104 171 -14 118 39 m 535 104 b 653 222 535 169 588 222 b 771 104 718 222 771 169 b 653 -14 771 39 718 -14 b 535 104 588 -14 535 39 m 951 104 b 1069 222 951 169 1004 222 b 1188 104 1135 222 1188 169 b 1069 -14 1188 39 1135 -14 b 951 104 1004 -14 951 39 "},"¡":{"ha":389,"x_min":0,"x_max":0,"o":"m 269 418 l 313 -278 l 76 -278 l 119 418 m 313 638 b 194 519 313 572 260 519 b 76 638 129 519 76 572 b 194 756 76 703 129 756 b 313 638 260 756 313 703 "},"¿":{"ha":814,"x_min":0,"x_max":0,"o":"m 529 638 b 411 519 529 572 476 519 b 293 638 346 519 293 572 b 411 756 293 703 346 756 b 529 638 476 756 529 703 m 78 26 b 425 440 78 264 254 390 l 476 278 b 269 29 372 238 269 172 b 411 -122 269 -81 344 -122 b 557 50 478 -122 551 -86 l 750 50 b 411 -297 744 -182 608 -297 b 78 26 214 -297 78 -175 "},"≤":{"ha":903,"x_min":0,"x_max":0,"o":"m 324 681 l 833 525 l 833 350 l 69 593 l 69 768 l 833 1011 l 833 836 m 833 100 l 69 343 l 69 518 l 833 275 "},"≥":{"ha":903,"x_min":0,"x_max":0,"o":"m 69 350 l 69 525 l 578 681 l 69 836 l 69 1011 l 833 768 l 833 593 m 69 275 l 833 518 l 833 343 l 69 100 "},"¬":{"ha":903,"x_min":0,"x_max":0,"o":"m 658 628 l 69 628 l 69 803 l 833 803 l 833 281 l 658 281 "},"‰":{"ha":1944,"x_min":0,"x_max":0,"o":"m 244 0 l 883 1083 l 1075 1083 l 436 0 m 42 832 b 313 1103 42 982 163 1103 b 583 832 463 1103 583 982 b 313 561 583 682 463 561 b 42 832 163 561 42 682 m 194 832 b 313 714 194 767 247 714 b 431 832 378 714 431 767 b 313 950 431 897 378 950 b 194 832 247 950 194 897 m 1278 251 b 1007 -19 1278 101 1157 -19 b 736 251 857 -19 736 101 b 1007 522 736 401 857 522 b 1278 251 1157 522 1278 401 m 1125 251 b 1007 369 1125 317 1072 369 b 889 251 942 369 889 317 b 1007 133 889 186 942 133 b 1125 251 1072 133 1125 186 m 1903 251 b 1632 -19 1903 101 1782 -19 b 1361 251 1482 -19 1361 101 b 1632 522 1361 401 1482 522 b 1903 251 1782 522 1903 401 m 1750 251 b 1632 369 1750 317 1697 369 b 1514 251 1567 369 1514 317 b 1632 133 1514 186 1567 133 b 1750 251 1697 133 1750 186 "},"‹":{"ha":417,"x_min":0,"x_max":0,"o":"m 389 197 l 193 197 l 21 467 l 193 736 l 389 736 l 217 467 "},"›":{"ha":417,"x_min":0,"x_max":0,"o":"m 28 736 l 224 736 l 396 467 l 224 197 l 28 197 l 200 467 "},"«":{"ha":694,"x_min":0,"x_max":0,"o":"m 389 197 l 193 197 l 21 467 l 193 736 l 389 736 l 217 467 m 667 197 l 471 197 l 299 467 l 471 736 l 667 736 l 494 467 "},"»":{"ha":694,"x_min":0,"x_max":0,"o":"m 478 467 l 306 736 l 501 736 l 674 467 l 501 197 l 306 197 m 200 467 l 28 736 l 224 736 l 396 467 l 224 197 l 28 197 "},"•":{"ha":653,"x_min":0,"x_max":0,"o":"m 76 467 b 326 717 76 604 189 717 b 576 467 464 717 576 604 b 326 217 576 329 464 217 b 76 467 189 217 76 329 "},"©":{"ha":1222,"x_min":0,"x_max":0,"o":"m 146 542 b 611 76 146 267 361 76 b 1076 542 861 76 1076 267 b 611 1007 1076 817 861 1007 b 146 542 361 1007 146 817 m 1167 542 b 611 -14 1167 217 917 -14 b 56 542 306 -14 56 217 b 611 1097 56 867 306 1097 b 1167 542 917 1097 1167 867 m 265 542 b 611 888 265 747 410 888 b 940 618 833 888 931 749 l 733 618 b 611 710 728 667 689 710 b 458 542 524 710 458 640 b 611 374 458 443 524 374 b 733 465 689 374 728 417 l 940 465 b 611 196 931 335 833 196 b 265 542 410 196 265 336 "},"₤":{"ha":903,"x_min":0,"x_max":0,"o":"m 129 715 b 125 790 126 738 125 763 b 472 1103 125 982 258 1103 b 822 756 686 1103 824 985 l 629 756 b 472 928 628 863 578 928 b 317 772 367 928 317 857 b 321 715 317 753 318 735 l 658 715 l 658 576 l 353 576 l 369 507 l 658 507 l 658 368 l 386 368 b 297 175 383 290 350 213 l 847 175 l 847 0 l 56 0 l 56 124 b 200 368 161 197 199 250 l 42 368 l 42 507 l 182 507 b 163 576 176 531 169 553 l 42 576 l 42 715 "},"₣":{"ha":903,"x_min":0,"x_max":0,"o":"m 153 715 l 153 1083 l 847 1083 l 847 908 l 344 908 l 344 715 l 742 715 l 742 576 l 344 576 l 344 507 l 742 507 l 742 368 l 344 368 l 344 0 l 153 0 l 153 368 l 42 368 l 42 507 l 153 507 l 153 576 l 42 576 l 42 715 "},"å":{"ha":800,"x_min":0,"x_max":0,"o":"m 256 961 b 397 1103 256 1039 319 1103 b 539 961 475 1103 539 1039 b 397 819 539 883 475 819 b 256 961 319 819 256 883 m 339 961 b 397 903 339 929 365 903 b 456 961 429 903 456 929 b 397 1019 456 993 429 1019 b 339 961 365 1019 339 993 m 81 490 b 399 756 90 621 183 756 b 719 464 599 756 719 640 l 719 0 l 564 0 l 564 161 b 297 -19 525 44 429 -19 b 57 206 146 -19 57 85 b 315 444 57 347 139 415 l 531 481 l 531 492 b 394 603 531 554 483 603 b 247 490 306 603 253 558 m 250 219 b 350 133 250 167 293 133 b 531 329 474 133 531 246 l 531 350 l 351 321 b 250 219 282 308 250 274 "},"ß":{"ha":901,"x_min":0,"x_max":0,"o":"m 779 857 b 656 651 779 749 718 689 b 563 556 594 615 563 594 b 646 479 563 515 600 494 b 872 215 779 435 872 372 b 603 -19 872 96 768 -19 b 343 238 429 -19 328 74 l 510 238 b 603 131 507 167 540 131 b 688 211 657 131 688 164 b 569 317 688 264 644 290 b 372 532 432 365 372 414 b 499 729 372 635 428 688 b 593 842 550 760 593 796 b 440 972 593 906 557 972 b 282 814 324 972 282 896 l 282 0 l 93 0 l 93 814 b 440 1131 93 989 225 1131 b 779 857 656 1131 779 1025 "},"ĳ":{"ha":658,"x_min":0,"x_max":0,"o":"m 72 961 b 190 1079 72 1026 125 1079 b 308 961 256 1079 308 1026 b 190 843 308 896 256 843 b 72 961 125 843 72 896 m 96 736 l 285 736 l 285 0 l 96 0 m 563 -82 b 325 -297 563 -208 472 -297 b 111 -90 178 -297 115 -200 l 282 -90 b 328 -136 282 -117 299 -136 b 374 -90 357 -136 374 -117 l 374 736 l 563 736 m 350 961 b 468 1079 350 1026 403 1079 b 586 961 533 1079 586 1026 b 468 843 586 896 533 843 b 350 961 403 843 350 896 "},"ð":{"ha":883,"x_min":0,"x_max":0,"o":"m 835 390 b 442 -19 835 128 672 -19 b 49 368 211 -19 49 133 b 417 756 49 603 219 756 b 533 736 458 756 497 749 b 392 851 493 782 446 821 l 161 721 l 85 849 l 217 924 b 61 954 165 938 113 947 l 108 1131 b 421 1039 207 1119 317 1090 l 582 1131 l 658 1003 l 565 950 b 835 390 719 832 835 650 m 442 158 b 642 368 561 158 642 240 b 442 578 642 496 561 578 b 242 368 322 578 242 496 b 442 158 242 240 322 158 "},"Đ":{"ha":1278,"x_min":0,"x_max":0,"o":"m 1208 542 b 654 0 1208 211 999 0 l 236 0 l 236 468 l 42 468 l 42 643 l 236 643 l 236 1083 l 654 1083 b 1208 542 999 1083 1208 872 m 639 181 b 1011 542 875 181 1011 317 b 639 903 1011 767 875 903 l 431 903 l 431 643 l 764 643 l 764 468 l 431 468 l 431 181 "},"Ð":{"ha":1278,"x_min":0,"x_max":0,"o":"m 1208 542 b 654 0 1208 211 999 0 l 236 0 l 236 468 l 42 468 l 42 643 l 236 643 l 236 1083 l 654 1083 b 1208 542 999 1083 1208 872 m 639 181 b 1011 542 875 181 1011 317 b 639 903 1011 767 875 903 l 431 903 l 431 643 l 764 643 l 764 468 l 431 468 l 431 181 "},"Ŀ":{"ha":861,"x_min":0,"x_max":0,"o":"m 306 181 l 833 181 l 833 0 l 111 0 l 111 1083 l 306 1083 m 757 556 b 639 438 757 490 704 438 b 521 556 574 438 521 490 b 639 674 521 621 574 674 b 757 556 704 674 757 621 "},"Ł":{"ha":986,"x_min":0,"x_max":0,"o":"m 431 404 l 431 181 l 958 181 l 958 0 l 236 0 l 236 307 l 42 210 l 42 393 l 236 490 l 236 1083 l 431 1083 l 431 588 l 764 756 l 764 572 "},"ẞ":{"ha":1165,"x_min":0,"x_max":0,"o":"m 758 153 b 933 286 872 153 933 218 b 719 431 933 369 886 418 l 506 450 l 506 589 l 744 904 b 614 922 706 915 661 922 b 292 669 408 922 292 819 l 292 0 l 97 0 l 97 656 b 614 1103 97 924 290 1103 b 954 1011 757 1103 876 1064 l 954 872 l 754 611 l 782 608 b 1135 306 972 589 1135 532 b 760 -19 1135 118 974 -19 b 369 361 506 -19 356 125 l 557 361 b 758 153 550 229 618 153 "},"Ŧ":{"ha":917,"x_min":0,"x_max":0,"o":"m 556 468 l 556 0 l 361 0 l 361 468 l 167 468 l 167 643 l 361 643 l 361 903 l 28 903 l 28 1083 l 889 1083 l 889 903 l 556 903 l 556 643 l 750 643 l 750 468 "},"Þ":{"ha":944,"x_min":0,"x_max":0,"o":"m 306 883 l 556 883 b 892 542 756 883 892 739 b 556 200 892 344 756 200 l 306 200 l 306 0 l 111 0 l 111 1083 l 306 1083 m 533 381 b 694 542 628 381 694 442 b 533 703 694 642 628 703 l 306 703 l 306 381 "},"Ə":{"ha":1250,"x_min":0,"x_max":0,"o":"m 625 -19 b 69 542 318 -19 69 189 l 69 622 l 976 622 b 607 922 944 818 797 922 b 296 756 411 922 321 832 l 85 756 b 607 1103 118 943 292 1103 b 1181 542 939 1103 1181 888 b 625 -19 1181 196 932 -19 m 278 442 b 625 161 315 269 442 161 b 972 442 808 161 935 269 "},"Ħ":{"ha":1111,"x_min":0,"x_max":0,"o":"m 1000 1083 l 1000 0 l 806 0 l 806 465 l 306 465 l 306 0 l 111 0 l 111 1083 l 306 1083 l 306 956 l 806 956 l 806 1083 m 806 646 l 806 781 l 306 781 l 306 646 "},"Ŋ":{"ha":1125,"x_min":0,"x_max":0,"o":"m 831 344 l 825 618 l 825 1083 l 1014 1083 l 1014 -82 b 776 -297 1014 -208 924 -297 b 563 -90 629 -297 567 -200 l 733 -90 b 779 -136 733 -117 750 -136 b 825 -90 808 -136 825 -117 l 825 22 l 294 739 l 300 465 l 300 0 l 111 0 l 111 1083 l 283 1083 "},"Œ":{"ha":1667,"x_min":0,"x_max":0,"o":"m 69 542 b 624 1083 69 872 279 1083 l 1569 1083 l 1569 903 l 986 903 l 986 646 l 1514 646 l 1514 465 l 986 465 l 986 181 l 1597 181 l 1597 0 l 624 0 b 69 542 279 0 69 211 m 639 903 b 267 542 403 903 267 767 b 639 181 267 317 403 181 l 792 181 l 792 903 "},"Ĳ":{"ha":833,"x_min":0,"x_max":0,"o":"m 319 0 l 125 0 l 125 1083 l 319 1083 m 729 221 b 485 0 729 92 636 0 l 417 0 l 417 181 l 488 181 b 535 228 518 181 535 200 l 535 1083 l 729 1083 "},"ı":{"ha":381,"x_min":0,"x_max":0,"o":"m 96 736 l 285 736 l 285 0 l 96 0 "},"ȷ":{"ha":381,"x_min":0,"x_max":0,"o":"m 285 -83 b 51 -297 285 -207 197 -297 b -167 -92 -97 -297 -162 -200 l 0 -92 b 47 -139 1 -119 18 -139 b 96 -90 78 -139 96 -118 l 96 736 l 285 736 "},"‽":{"ha":889,"x_min":0,"x_max":0,"o":"m 360 104 b 478 222 360 169 413 222 b 596 104 543 222 596 169 b 478 -14 596 39 543 -14 b 360 104 413 -14 360 39 m 40 988 l 263 1067 l 471 335 l 338 288 m 811 779 b 526 332 811 553 675 414 l 478 506 b 619 776 556 565 619 649 b 478 928 619 886 544 928 b 367 893 435 928 394 911 l 318 1065 b 478 1103 360 1089 418 1103 b 811 779 675 1103 811 981 "},"þ":{"ha":932,"x_min":0,"x_max":0,"o":"m 279 1111 l 279 617 b 532 756 318 703 415 756 b 883 368 715 756 883 604 b 532 -19 883 132 715 -19 b 279 119 415 -19 318 33 l 279 -278 l 90 -278 l 90 1111 m 279 368 b 490 153 279 242 363 153 b 693 368 586 153 693 211 b 490 583 693 525 586 583 b 279 368 363 583 279 494 "},"ə":{"ha":828,"x_min":0,"x_max":0,"o":"m 400 756 b 779 368 621 756 779 604 b 407 -19 779 132 611 -19 b 49 368 211 -19 49 122 b 56 432 49 394 53 422 l 588 432 b 401 603 578 539 511 603 b 231 503 290 603 247 553 l 54 503 b 400 756 75 629 174 756 m 243 293 b 413 133 251 189 315 133 b 585 293 510 133 576 192 "},"À":{"ha":1056,"x_min":0,"x_max":0,"o":"m 725 238 l 324 238 l 239 0 l 26 0 l 432 1083 l 624 1083 l 1029 0 l 811 0 m 525 818 l 439 558 l 389 418 l 661 418 l 611 558 m 513 1389 l 624 1144 l 432 1144 l 318 1389 "},"Á":{"ha":1056,"x_min":0,"x_max":0,"o":"m 725 238 l 324 238 l 239 0 l 26 0 l 432 1083 l 624 1083 l 1029 0 l 811 0 m 525 818 l 439 558 l 389 418 l 661 418 l 611 558 m 738 1389 l 624 1144 l 432 1144 l 543 1389 "},"Â":{"ha":1056,"x_min":0,"x_max":0,"o":"m 725 238 l 324 238 l 239 0 l 26 0 l 432 1083 l 624 1083 l 1029 0 l 811 0 m 244 1144 l 447 1389 l 608 1389 l 811 1144 l 617 1144 l 528 1244 l 439 1144 m 525 818 l 439 558 l 389 418 l 661 418 l 611 558 "},"Ã":{"ha":1056,"x_min":0,"x_max":0,"o":"m 725 238 l 324 238 l 239 0 l 26 0 l 432 1083 l 624 1083 l 1029 0 l 811 0 m 417 1389 b 625 1311 528 1389 558 1311 b 682 1368 660 1311 682 1335 l 828 1368 b 639 1144 828 1228 765 1144 b 431 1222 528 1144 497 1222 b 374 1165 396 1222 374 1199 l 228 1165 b 417 1389 228 1306 290 1389 m 525 818 l 439 558 l 389 418 l 661 418 l 611 558 "},"Ā":{"ha":1056,"x_min":0,"x_max":0,"o":"m 725 238 l 324 238 l 239 0 l 26 0 l 432 1083 l 624 1083 l 1029 0 l 811 0 m 742 1351 l 742 1182 l 314 1182 l 314 1351 m 525 818 l 439 558 l 389 418 l 661 418 l 611 558 "},"Ă":{"ha":1056,"x_min":0,"x_max":0,"o":"m 725 238 l 324 238 l 239 0 l 26 0 l 432 1083 l 624 1083 l 1029 0 l 811 0 m 528 1125 b 264 1389 361 1125 264 1215 l 410 1389 b 528 1267 410 1308 456 1267 b 646 1389 600 1267 646 1308 l 792 1389 b 528 1125 792 1215 694 1125 m 525 818 l 439 558 l 389 418 l 661 418 l 611 558 "},"Ä":{"ha":1056,"x_min":0,"x_max":0,"o":"m 725 238 l 324 238 l 239 0 l 26 0 l 432 1083 l 624 1083 l 1029 0 l 811 0 m 525 818 l 439 558 l 389 418 l 661 418 l 611 558 m 271 1267 b 389 1385 271 1332 324 1385 b 507 1267 454 1385 507 1332 b 389 1149 507 1201 454 1149 b 271 1267 324 1149 271 1201 m 549 1267 b 667 1385 549 1332 601 1385 b 785 1267 732 1385 785 1332 b 667 1149 785 1201 732 1149 b 549 1267 601 1149 549 1201 "},"Å":{"ha":1056,"x_min":0,"x_max":0,"o":"m 725 238 l 324 238 l 239 0 l 26 0 l 432 1083 l 624 1083 l 1029 0 l 811 0 m 386 1267 b 528 1408 386 1344 450 1408 b 669 1267 606 1408 669 1344 b 528 1125 669 1189 606 1125 b 386 1267 450 1125 386 1189 m 525 818 l 439 558 l 389 418 l 661 418 l 611 558 m 469 1267 b 528 1208 469 1235 496 1208 b 586 1267 560 1208 586 1235 b 528 1325 586 1299 560 1325 b 469 1267 496 1325 469 1299 "},"Ć":{"ha":1217,"x_min":0,"x_max":0,"o":"m 835 1389 l 721 1144 l 529 1144 l 640 1389 m 267 542 b 633 161 267 304 421 161 b 953 413 839 161 929 288 l 1151 413 b 619 -19 1126 194 963 -19 b 69 542 308 -19 69 203 b 619 1103 69 881 308 1103 b 1151 671 963 1103 1126 889 l 953 671 b 633 922 929 796 839 922 b 267 542 421 922 267 779 "},"Ĉ":{"ha":1217,"x_min":0,"x_max":0,"o":"m 342 1144 l 544 1389 l 706 1389 l 908 1144 l 714 1144 l 625 1244 l 536 1144 m 267 542 b 633 161 267 304 421 161 b 953 413 839 161 929 288 l 1151 413 b 619 -19 1126 194 963 -19 b 69 542 308 -19 69 203 b 619 1103 69 881 308 1103 b 1151 671 963 1103 1126 889 l 953 671 b 633 922 929 796 839 922 b 267 542 421 922 267 779 "},"Č":{"ha":1217,"x_min":0,"x_max":0,"o":"m 536 1389 l 625 1289 l 714 1389 l 908 1389 l 706 1144 l 544 1144 l 342 1389 m 267 542 b 633 161 267 304 421 161 b 953 413 839 161 929 288 l 1151 413 b 619 -19 1126 194 963 -19 b 69 542 308 -19 69 203 b 619 1103 69 881 308 1103 b 1151 671 963 1103 1126 889 l 953 671 b 633 922 929 796 839 922 b 267 542 421 922 267 779 "},"Ċ":{"ha":1217,"x_min":0,"x_max":0,"o":"m 507 1267 b 625 1385 507 1332 560 1385 b 743 1267 690 1385 743 1332 b 625 1149 743 1201 690 1149 b 507 1267 560 1149 507 1201 m 267 542 b 633 161 267 304 421 161 b 953 413 839 161 929 288 l 1151 413 b 619 -19 1126 194 963 -19 b 69 542 308 -19 69 203 b 619 1103 69 881 308 1103 b 1151 671 963 1103 1126 889 l 953 671 b 633 922 929 796 839 922 b 267 542 421 922 267 779 "},"Ç":{"ha":1217,"x_min":0,"x_max":0,"o":"m 267 542 b 633 161 267 304 421 161 b 953 413 839 161 929 288 l 1151 413 b 619 -19 1126 194 963 -19 b 69 542 308 -19 69 203 b 619 1103 69 881 308 1103 b 1151 671 963 1103 1126 889 l 953 671 b 633 922 929 796 839 922 b 267 542 421 922 267 779 "},"Ď":{"ha":1153,"x_min":0,"x_max":0,"o":"m 1083 542 b 529 0 1083 211 874 0 l 111 0 l 111 1083 l 529 1083 b 1083 542 874 1083 1083 872 m 514 181 b 886 542 750 181 886 317 b 514 903 886 767 750 903 l 306 903 l 306 181 m 439 1389 l 528 1289 l 617 1389 l 811 1389 l 608 1144 l 447 1144 l 244 1389 "},"È":{"ha":986,"x_min":0,"x_max":0,"o":"m 889 1083 l 889 903 l 306 903 l 306 646 l 833 646 l 833 465 l 306 465 l 306 181 l 917 181 l 917 0 l 111 0 l 111 1083 m 513 1389 l 624 1144 l 432 1144 l 318 1389 "},"É":{"ha":986,"x_min":0,"x_max":0,"o":"m 889 1083 l 889 903 l 306 903 l 306 646 l 833 646 l 833 465 l 306 465 l 306 181 l 917 181 l 917 0 l 111 0 l 111 1083 m 738 1389 l 624 1144 l 432 1144 l 543 1389 "},"Ê":{"ha":986,"x_min":0,"x_max":0,"o":"m 889 1083 l 889 903 l 306 903 l 306 646 l 833 646 l 833 465 l 306 465 l 306 181 l 917 181 l 917 0 l 111 0 l 111 1083 m 244 1144 l 447 1389 l 608 1389 l 811 1144 l 617 1144 l 528 1244 l 439 1144 "},"Ē":{"ha":986,"x_min":0,"x_max":0,"o":"m 889 1083 l 889 903 l 306 903 l 306 646 l 833 646 l 833 465 l 306 465 l 306 181 l 917 181 l 917 0 l 111 0 l 111 1083 m 742 1351 l 742 1182 l 314 1182 l 314 1351 "},"Ĕ":{"ha":986,"x_min":0,"x_max":0,"o":"m 889 1083 l 889 903 l 306 903 l 306 646 l 833 646 l 833 465 l 306 465 l 306 181 l 917 181 l 917 0 l 111 0 l 111 1083 m 528 1125 b 264 1389 361 1125 264 1215 l 410 1389 b 528 1267 410 1308 456 1267 b 646 1389 600 1267 646 1308 l 792 1389 b 528 1125 792 1215 694 1125 "},"Ė":{"ha":986,"x_min":0,"x_max":0,"o":"m 889 1083 l 889 903 l 306 903 l 306 646 l 833 646 l 833 465 l 306 465 l 306 181 l 917 181 l 917 0 l 111 0 l 111 1083 m 410 1267 b 528 1385 410 1332 463 1385 b 646 1267 593 1385 646 1332 b 528 1149 646 1201 593 1149 b 410 1267 463 1149 410 1201 "},"Ë":{"ha":986,"x_min":0,"x_max":0,"o":"m 889 1083 l 889 903 l 306 903 l 306 646 l 833 646 l 833 465 l 306 465 l 306 181 l 917 181 l 917 0 l 111 0 l 111 1083 m 271 1267 b 389 1385 271 1332 324 1385 b 507 1267 454 1385 507 1332 b 389 1149 507 1201 454 1149 b 271 1267 324 1149 271 1201 m 549 1267 b 667 1385 549 1332 601 1385 b 785 1267 732 1385 785 1332 b 667 1149 785 1201 732 1149 b 549 1267 601 1149 549 1201 "},"Ě":{"ha":986,"x_min":0,"x_max":0,"o":"m 889 1083 l 889 903 l 306 903 l 306 646 l 833 646 l 833 465 l 306 465 l 306 181 l 917 181 l 917 0 l 111 0 l 111 1083 m 439 1389 l 528 1289 l 617 1389 l 811 1389 l 608 1144 l 447 1144 l 244 1389 "},"Ĝ":{"ha":1228,"x_min":0,"x_max":0,"o":"m 1126 0 l 951 0 l 951 169 b 583 -19 882 67 764 -19 b 69 542 321 -19 69 200 b 621 1103 69 883 306 1103 b 1125 711 938 1103 1099 906 l 917 711 b 629 922 893 829 803 922 b 267 542 415 922 267 774 b 608 161 267 310 425 161 b 903 375 790 161 882 261 l 635 375 l 635 550 l 1126 550 m 342 1144 l 544 1389 l 706 1389 l 908 1144 l 714 1144 l 625 1244 l 536 1144 "},"Ğ":{"ha":1228,"x_min":0,"x_max":0,"o":"m 1126 0 l 951 0 l 951 169 b 583 -19 882 67 764 -19 b 69 542 321 -19 69 200 b 621 1103 69 883 306 1103 b 1125 711 938 1103 1099 906 l 917 711 b 629 922 893 829 803 922 b 267 542 415 922 267 774 b 608 161 267 310 425 161 b 903 375 790 161 882 261 l 635 375 l 635 550 l 1126 550 m 625 1125 b 361 1389 458 1125 361 1215 l 507 1389 b 625 1267 507 1308 553 1267 b 743 1389 697 1267 743 1308 l 889 1389 b 625 1125 889 1215 792 1125 "},"Ġ":{"ha":1228,"x_min":0,"x_max":0,"o":"m 1126 0 l 951 0 l 951 169 b 583 -19 882 67 764 -19 b 69 542 321 -19 69 200 b 621 1103 69 883 306 1103 b 1125 711 938 1103 1099 906 l 917 711 b 629 922 893 829 803 922 b 267 542 415 922 267 774 b 608 161 267 310 425 161 b 903 375 790 161 882 261 l 635 375 l 635 550 l 1126 550 m 507 1267 b 625 1385 507 1332 560 1385 b 743 1267 690 1385 743 1332 b 625 1149 743 1201 690 1149 b 507 1267 560 1149 507 1201 "},"Ģ":{"ha":1228,"x_min":0,"x_max":0,"o":"m 1126 0 l 951 0 l 951 169 b 583 -19 882 67 764 -19 b 69 542 321 -19 69 200 b 621 1103 69 883 306 1103 b 1125 711 938 1103 1099 906 l 917 711 b 629 922 893 829 803 922 b 267 542 415 922 267 774 b 608 161 267 310 425 161 b 903 375 790 161 882 261 l 635 375 l 635 550 l 1126 550 m 529 -233 b 610 -206 563 -232 601 -218 b 540 -126 569 -199 540 -167 b 625 -42 540 -79 578 -42 b 714 -149 672 -42 714 -81 b 529 -297 714 -214 668 -292 "},"Ĥ":{"ha":1111,"x_min":0,"x_max":0,"o":"m 1000 1083 l 1000 0 l 806 0 l 806 465 l 306 465 l 306 0 l 111 0 l 111 1083 l 306 1083 l 306 646 l 806 646 l 806 1083 m 272 1144 l 475 1389 l 636 1389 l 839 1144 l 644 1144 l 556 1244 l 467 1144 "},"Ì":{"ha":444,"x_min":0,"x_max":0,"o":"m 319 0 l 125 0 l 125 1083 l 319 1083 m 207 1389 l 318 1144 l 126 1144 l 13 1389 "},"Í":{"ha":444,"x_min":0,"x_max":0,"o":"m 319 0 l 125 0 l 125 1083 l 319 1083 m 432 1389 l 318 1144 l 126 1144 l 238 1389 "},"Î":{"ha":444,"x_min":0,"x_max":0,"o":"m 319 0 l 125 0 l 125 1083 l 319 1083 m -61 1144 l 142 1389 l 303 1389 l 506 1144 l 311 1144 l 222 1244 l 133 1144 "},"Ï":{"ha":444,"x_min":0,"x_max":0,"o":"m 319 0 l 125 0 l 125 1083 l 319 1083 m -35 1267 b 83 1385 -35 1332 18 1385 b 201 1267 149 1385 201 1332 b 83 1149 201 1201 149 1149 b -35 1267 18 1149 -35 1201 m 243 1267 b 361 1385 243 1332 296 1385 b 479 1267 426 1385 479 1332 b 361 1149 479 1201 426 1149 b 243 1267 296 1149 243 1201 "},"Ĩ":{"ha":444,"x_min":0,"x_max":0,"o":"m 319 0 l 125 0 l 125 1083 l 319 1083 m 111 1389 b 319 1311 222 1389 253 1311 b 376 1368 354 1311 376 1335 l 522 1368 b 333 1144 522 1228 460 1144 b 125 1222 222 1144 192 1222 b 68 1165 90 1222 68 1199 l -78 1165 b 111 1389 -78 1306 -15 1389 "},"Ī":{"ha":444,"x_min":0,"x_max":0,"o":"m 319 0 l 125 0 l 125 1083 l 319 1083 m 436 1351 l 436 1182 l 8 1182 l 8 1351 "},"Ĭ":{"ha":444,"x_min":0,"x_max":0,"o":"m 319 0 l 125 0 l 125 1083 l 319 1083 m 222 1125 b -42 1389 56 1125 -42 1215 l 104 1389 b 222 1267 104 1308 150 1267 b 340 1389 294 1267 340 1308 l 486 1389 b 222 1125 486 1215 389 1125 "},"İ":{"ha":444,"x_min":0,"x_max":0,"o":"m 319 0 l 125 0 l 125 1083 l 319 1083 m 104 1267 b 222 1385 104 1332 157 1385 b 340 1267 288 1385 340 1332 b 222 1149 340 1201 288 1149 b 104 1267 157 1149 104 1201 "},"Ĵ":{"ha":736,"x_min":0,"x_max":0,"o":"m 632 1083 l 632 289 b 324 -19 632 108 504 -19 b 31 272 142 -19 35 89 l 211 272 b 324 160 213 204 253 160 b 438 281 404 160 438 208 l 438 1083 m 251 1144 l 454 1389 l 615 1389 l 818 1144 l 624 1144 l 535 1244 l 446 1144 "},"Ķ":{"ha":1036,"x_min":0,"x_max":0,"o":"m 306 615 l 736 1083 l 997 1083 l 531 590 l 1018 0 l 764 0 l 400 451 l 306 353 l 306 0 l 111 0 l 111 1083 l 306 1083 m 424 -233 b 504 -206 457 -232 496 -218 b 435 -126 464 -199 435 -167 b 519 -42 435 -79 472 -42 b 608 -149 567 -42 608 -81 b 424 -297 608 -214 563 -292 "},"Ĺ":{"ha":861,"x_min":0,"x_max":0,"o":"m 306 181 l 833 181 l 833 0 l 111 0 l 111 1083 l 306 1083 m 418 1389 l 304 1144 l 113 1144 l 224 1389 "},"Ļ":{"ha":861,"x_min":0,"x_max":0,"o":"m 306 181 l 833 181 l 833 0 l 111 0 l 111 1083 l 306 1083 m 376 -233 b 457 -206 410 -232 449 -218 b 388 -126 417 -199 388 -167 b 472 -42 388 -79 425 -42 b 561 -149 519 -42 561 -81 b 376 -297 561 -214 515 -292 "},"Ń":{"ha":1125,"x_min":0,"x_max":0,"o":"m 831 344 l 825 618 l 825 1083 l 1014 1083 l 1014 0 l 842 0 l 294 739 l 300 465 l 300 0 l 111 0 l 111 1083 l 283 1083 m 772 1389 l 658 1144 l 467 1144 l 578 1389 "},"Ñ":{"ha":1125,"x_min":0,"x_max":0,"o":"m 831 344 l 825 618 l 825 1083 l 1014 1083 l 1014 0 l 842 0 l 294 739 l 300 465 l 300 0 l 111 0 l 111 1083 l 283 1083 m 451 1389 b 660 1311 563 1389 593 1311 b 717 1368 694 1311 717 1335 l 863 1368 b 674 1144 863 1228 800 1144 b 465 1222 563 1144 532 1222 b 408 1165 431 1222 408 1199 l 263 1165 b 451 1389 263 1306 325 1389 "},"Ň":{"ha":1125,"x_min":0,"x_max":0,"o":"m 831 344 l 825 618 l 825 1083 l 1014 1083 l 1014 0 l 842 0 l 294 739 l 300 465 l 300 0 l 111 0 l 111 1083 l 283 1083 m 474 1389 l 563 1289 l 651 1389 l 846 1389 l 643 1144 l 482 1144 l 279 1389 "},"Ņ":{"ha":1125,"x_min":0,"x_max":0,"o":"m 831 344 l 825 618 l 825 1083 l 1014 1083 l 1014 0 l 842 0 l 294 739 l 300 465 l 300 0 l 111 0 l 111 1083 l 283 1083 m 467 -233 b 547 -206 500 -232 539 -218 b 478 -126 507 -199 478 -167 b 563 -42 478 -79 515 -42 b 651 -149 610 -42 651 -81 b 467 -297 651 -214 606 -292 "},"Ò":{"ha":1269,"x_min":0,"x_max":0,"o":"m 619 1389 l 731 1144 l 539 1144 l 425 1389 m 635 161 b 1003 542 849 161 1003 301 b 635 922 1003 782 849 922 b 267 542 421 922 267 782 b 635 161 267 301 421 161 m 635 -19 b 69 542 311 -19 69 196 b 635 1103 69 888 311 1103 b 1200 542 958 1103 1200 888 b 635 -19 1200 196 958 -19 "},"Ó":{"ha":1269,"x_min":0,"x_max":0,"o":"m 844 1389 l 731 1144 l 539 1144 l 650 1389 m 635 161 b 1003 542 849 161 1003 301 b 635 922 1003 782 849 922 b 267 542 421 922 267 782 b 635 161 267 301 421 161 m 635 -19 b 69 542 311 -19 69 196 b 635 1103 69 888 311 1103 b 1200 542 958 1103 1200 888 b 635 -19 1200 196 958 -19 "},"Ô":{"ha":1269,"x_min":0,"x_max":0,"o":"m 351 1144 l 554 1389 l 715 1389 l 918 1144 l 724 1144 l 635 1244 l 546 1144 m 635 161 b 1003 542 849 161 1003 301 b 635 922 1003 782 849 922 b 267 542 421 922 267 782 b 635 161 267 301 421 161 m 635 -19 b 69 542 311 -19 69 196 b 635 1103 69 888 311 1103 b 1200 542 958 1103 1200 888 b 635 -19 1200 196 958 -19 "},"Ö":{"ha":1269,"x_min":0,"x_max":0,"o":"m 378 1267 b 496 1385 378 1332 431 1385 b 614 1267 561 1385 614 1332 b 496 1149 614 1201 561 1149 b 378 1267 431 1149 378 1201 m 656 1267 b 774 1385 656 1332 708 1385 b 892 1267 839 1385 892 1332 b 774 1149 892 1201 839 1149 b 656 1267 708 1149 656 1201 m 635 161 b 1003 542 849 161 1003 301 b 635 922 1003 782 849 922 b 267 542 421 922 267 782 b 635 161 267 301 421 161 m 635 -19 b 69 542 311 -19 69 196 b 635 1103 69 888 311 1103 b 1200 542 958 1103 1200 888 b 635 -19 1200 196 958 -19 "},"Õ":{"ha":1269,"x_min":0,"x_max":0,"o":"m 524 1389 b 732 1311 635 1389 665 1311 b 789 1368 767 1311 789 1335 l 935 1368 b 746 1144 935 1228 872 1144 b 538 1222 635 1144 604 1222 b 481 1165 503 1222 481 1199 l 335 1165 b 524 1389 335 1306 397 1389 m 635 161 b 1003 542 849 161 1003 301 b 635 922 1003 782 849 922 b 267 542 421 922 267 782 b 635 161 267 301 421 161 m 635 -19 b 69 542 311 -19 69 196 b 635 1103 69 888 311 1103 b 1200 542 958 1103 1200 888 b 635 -19 1200 196 958 -19 "},"Ō":{"ha":1269,"x_min":0,"x_max":0,"o":"m 849 1351 l 849 1182 l 421 1182 l 421 1351 m 635 161 b 1003 542 849 161 1003 301 b 635 922 1003 782 849 922 b 267 542 421 922 267 782 b 635 161 267 301 421 161 m 635 -19 b 69 542 311 -19 69 196 b 635 1103 69 888 311 1103 b 1200 542 958 1103 1200 888 b 635 -19 1200 196 958 -19 "},"Ŏ":{"ha":1269,"x_min":0,"x_max":0,"o":"m 635 1125 b 371 1389 468 1125 371 1215 l 517 1389 b 635 1267 517 1308 563 1267 b 753 1389 707 1267 753 1308 l 899 1389 b 635 1125 899 1215 801 1125 m 635 161 b 1003 542 849 161 1003 301 b 635 922 1003 782 849 922 b 267 542 421 922 267 782 b 635 161 267 301 421 161 m 635 -19 b 69 542 311 -19 69 196 b 635 1103 69 888 311 1103 b 1200 542 958 1103 1200 888 b 635 -19 1200 196 958 -19 "},"Ő":{"ha":1269,"x_min":0,"x_max":0,"o":"m 606 1144 l 414 1144 l 525 1389 l 719 1389 m 969 1389 l 856 1144 l 664 1144 l 775 1389 m 635 161 b 1003 542 849 161 1003 301 b 635 922 1003 782 849 922 b 267 542 421 922 267 782 b 635 161 267 301 421 161 m 635 -19 b 69 542 311 -19 69 196 b 635 1103 69 888 311 1103 b 1200 542 958 1103 1200 888 b 635 -19 1200 196 958 -19 "},"Ŕ":{"ha":992,"x_min":0,"x_max":0,"o":"m 306 0 l 111 0 l 111 1083 l 586 1083 b 914 750 781 1083 914 943 b 688 431 914 592 825 469 l 949 0 l 719 0 l 469 417 l 306 417 m 564 597 b 717 750 653 597 717 656 b 564 903 717 844 653 903 l 306 903 l 306 597 m 703 1389 l 589 1144 l 397 1144 l 508 1389 "},"Ř":{"ha":992,"x_min":0,"x_max":0,"o":"m 306 0 l 111 0 l 111 1083 l 586 1083 b 914 750 781 1083 914 943 b 688 431 914 592 825 469 l 949 0 l 719 0 l 469 417 l 306 417 m 564 597 b 717 750 653 597 717 656 b 564 903 717 844 653 903 l 306 903 l 306 597 m 404 1389 l 493 1289 l 582 1389 l 776 1389 l 574 1144 l 413 1144 l 210 1389 "},"Ŗ":{"ha":992,"x_min":0,"x_max":0,"o":"m 306 0 l 111 0 l 111 1083 l 586 1083 b 914 750 781 1083 914 943 b 688 431 914 592 825 469 l 949 0 l 719 0 l 469 417 l 306 417 m 564 597 b 717 750 653 597 717 656 b 564 903 717 844 653 903 l 306 903 l 306 597 m 411 -233 b 492 -206 444 -232 483 -218 b 422 -126 451 -199 422 -167 b 507 -42 422 -79 460 -42 b 596 -149 554 -42 596 -81 b 411 -297 596 -214 550 -292 "},"Ś":{"ha":944,"x_min":0,"x_max":0,"o":"m 679 1389 l 565 1144 l 374 1144 l 485 1389 m 464 931 b 289 789 346 931 289 861 b 501 656 289 708 338 668 b 890 326 772 636 890 528 b 481 -19 890 118 725 -19 b 56 406 210 -19 38 126 l 243 406 b 481 153 233 256 308 153 b 689 313 615 153 689 225 b 453 469 689 410 628 457 b 88 774 226 486 88 575 b 463 1103 88 961 244 1103 b 853 722 717 1103 867 958 l 665 722 b 464 931 672 854 604 931 "},"Ŝ":{"ha":944,"x_min":0,"x_max":0,"o":"m 186 1144 l 389 1389 l 550 1389 l 753 1144 l 558 1144 l 469 1244 l 381 1144 m 464 931 b 289 789 346 931 289 861 b 501 656 289 708 338 668 b 890 326 772 636 890 528 b 481 -19 890 118 725 -19 b 56 406 210 -19 38 126 l 243 406 b 481 153 233 256 308 153 b 689 313 615 153 689 225 b 453 469 689 410 628 457 b 88 774 226 486 88 575 b 463 1103 88 961 244 1103 b 853 722 717 1103 867 958 l 665 722 b 464 931 672 854 604 931 "},"Š":{"ha":944,"x_min":0,"x_max":0,"o":"m 381 1389 l 469 1289 l 558 1389 l 753 1389 l 550 1144 l 389 1144 l 186 1389 m 464 931 b 289 789 346 931 289 861 b 501 656 289 708 338 668 b 890 326 772 636 890 528 b 481 -19 890 118 725 -19 b 56 406 210 -19 38 126 l 243 406 b 481 153 233 256 308 153 b 689 313 615 153 689 225 b 453 469 689 410 628 457 b 88 774 226 486 88 575 b 463 1103 88 961 244 1103 b 853 722 717 1103 867 958 l 665 722 b 464 931 672 854 604 931 "},"Ș":{"ha":944,"x_min":0,"x_max":0,"o":"m 385 -233 b 465 -206 418 -232 457 -218 b 396 -126 425 -199 396 -167 b 481 -42 396 -79 433 -42 b 569 -149 528 -42 569 -81 b 385 -297 569 -214 524 -292 m 464 931 b 289 789 346 931 289 861 b 501 656 289 708 338 668 b 890 326 772 636 890 528 b 481 -19 890 118 725 -19 b 56 406 210 -19 38 126 l 243 406 b 481 153 233 256 308 153 b 689 313 615 153 689 225 b 453 469 689 410 628 457 b 88 774 226 486 88 575 b 463 1103 88 961 244 1103 b 853 722 717 1103 867 958 l 665 722 b 464 931 672 854 604 931 "},"Ş":{"ha":944,"x_min":0,"x_max":0,"o":"m 464 931 b 289 789 346 931 289 861 b 501 656 289 708 338 668 b 890 326 772 636 890 528 b 533 -17 890 133 749 1 l 531 -44 b 653 -175 604 -62 653 -103 b 474 -297 653 -235 597 -297 b 322 -253 388 -297 346 -269 l 374 -151 b 451 -175 389 -162 422 -175 b 514 -147 493 -175 514 -165 b 410 -100 514 -115 457 -106 l 419 -17 b 56 406 185 4 39 147 l 243 406 b 481 153 233 256 308 153 b 689 313 615 153 689 225 b 453 469 689 410 628 457 b 88 774 226 486 88 575 b 463 1103 88 961 244 1103 b 853 722 717 1103 867 958 l 665 722 b 464 931 672 854 604 931 "},"Ť":{"ha":917,"x_min":0,"x_max":0,"o":"m 556 0 l 361 0 l 361 903 l 28 903 l 28 1083 l 889 1083 l 889 903 l 556 903 m 369 1389 l 458 1289 l 547 1389 l 742 1389 l 539 1144 l 378 1144 l 175 1389 "},"Ț":{"ha":917,"x_min":0,"x_max":0,"o":"m 556 0 l 361 0 l 361 903 l 28 903 l 28 1083 l 889 1083 l 889 903 l 556 903 m 363 -233 b 443 -206 396 -232 435 -218 b 374 -126 403 -199 374 -167 b 458 -42 374 -79 411 -42 b 547 -149 506 -42 547 -81 b 363 -297 547 -214 501 -292 "},"Ù":{"ha":1089,"x_min":0,"x_max":0,"o":"m 544 -19 b 97 428 276 -19 97 160 l 97 1083 l 292 1083 l 292 414 b 544 161 292 264 394 161 b 797 414 694 161 797 264 l 797 1083 l 992 1083 l 992 428 b 544 -19 992 160 813 -19 m 529 1389 l 640 1144 l 449 1144 l 335 1389 "},"Ú":{"ha":1089,"x_min":0,"x_max":0,"o":"m 544 -19 b 97 428 276 -19 97 160 l 97 1083 l 292 1083 l 292 414 b 544 161 292 264 394 161 b 797 414 694 161 797 264 l 797 1083 l 992 1083 l 992 428 b 544 -19 992 160 813 -19 m 754 1389 l 640 1144 l 449 1144 l 560 1389 "},"Û":{"ha":1089,"x_min":0,"x_max":0,"o":"m 544 -19 b 97 428 276 -19 97 160 l 97 1083 l 292 1083 l 292 414 b 544 161 292 264 394 161 b 797 414 694 161 797 264 l 797 1083 l 992 1083 l 992 428 b 544 -19 992 160 813 -19 m 261 1144 l 464 1389 l 625 1389 l 828 1144 l 633 1144 l 544 1244 l 456 1144 "},"Ü":{"ha":1089,"x_min":0,"x_max":0,"o":"m 544 -19 b 97 428 276 -19 97 160 l 97 1083 l 292 1083 l 292 414 b 544 161 292 264 394 161 b 797 414 694 161 797 264 l 797 1083 l 992 1083 l 992 428 b 544 -19 992 160 813 -19 m 288 1267 b 406 1385 288 1332 340 1385 b 524 1267 471 1385 524 1332 b 406 1149 524 1201 471 1149 b 288 1267 340 1149 288 1201 m 565 1267 b 683 1385 565 1332 618 1385 b 801 1267 749 1385 801 1332 b 683 1149 801 1201 749 1149 b 565 1267 618 1149 565 1201 "},"Ũ":{"ha":1089,"x_min":0,"x_max":0,"o":"m 544 -19 b 97 428 276 -19 97 160 l 97 1083 l 292 1083 l 292 414 b 544 161 292 264 394 161 b 797 414 694 161 797 264 l 797 1083 l 992 1083 l 992 428 b 544 -19 992 160 813 -19 m 433 1389 b 642 1311 544 1389 575 1311 b 699 1368 676 1311 699 1335 l 844 1368 b 656 1144 844 1228 782 1144 b 447 1222 544 1144 514 1222 b 390 1165 413 1222 390 1199 l 244 1165 b 433 1389 244 1306 307 1389 "},"Ů":{"ha":1089,"x_min":0,"x_max":0,"o":"m 544 -19 b 97 428 276 -19 97 160 l 97 1083 l 292 1083 l 292 414 b 544 161 292 264 394 161 b 797 414 694 161 797 264 l 797 1083 l 992 1083 l 992 428 b 544 -19 992 160 813 -19 m 403 1267 b 544 1408 403 1344 467 1408 b 686 1267 622 1408 686 1344 b 544 1125 686 1189 622 1125 b 403 1267 467 1125 403 1189 m 486 1267 b 544 1208 486 1235 513 1208 b 603 1267 576 1208 603 1235 b 544 1325 603 1299 576 1325 b 486 1267 513 1325 486 1299 "},"Ū":{"ha":1089,"x_min":0,"x_max":0,"o":"m 544 -19 b 97 428 276 -19 97 160 l 97 1083 l 292 1083 l 292 414 b 544 161 292 264 394 161 b 797 414 694 161 797 264 l 797 1083 l 992 1083 l 992 428 b 544 -19 992 160 813 -19 m 758 1351 l 758 1182 l 331 1182 l 331 1351 "},"Ŭ":{"ha":1089,"x_min":0,"x_max":0,"o":"m 544 -19 b 97 428 276 -19 97 160 l 97 1083 l 292 1083 l 292 414 b 544 161 292 264 394 161 b 797 414 694 161 797 264 l 797 1083 l 992 1083 l 992 428 b 544 -19 992 160 813 -19 m 544 1125 b 281 1389 378 1125 281 1215 l 426 1389 b 544 1267 426 1308 472 1267 b 663 1389 617 1267 663 1308 l 808 1389 b 544 1125 808 1215 711 1125 "},"Ű":{"ha":1089,"x_min":0,"x_max":0,"o":"m 544 -19 b 97 428 276 -19 97 160 l 97 1083 l 292 1083 l 292 414 b 544 161 292 264 394 161 b 797 414 694 161 797 264 l 797 1083 l 992 1083 l 992 428 b 544 -19 992 160 813 -19 m 879 1389 l 765 1144 l 574 1144 l 685 1389 m 515 1144 l 324 1144 l 435 1389 l 629 1389 "},"Ẁ":{"ha":1597,"x_min":0,"x_max":0,"o":"m 1061 0 l 867 585 l 799 800 l 731 585 l 536 0 l 340 0 l 39 1083 l 238 1083 l 393 518 l 446 315 l 513 526 l 694 1083 l 906 1083 l 1088 526 l 1154 315 l 1207 518 l 1363 1083 l 1558 1083 l 1257 0 m 783 1389 l 894 1144 l 703 1144 l 589 1389 "},"Ẃ":{"ha":1597,"x_min":0,"x_max":0,"o":"m 1061 0 l 867 585 l 799 800 l 731 585 l 536 0 l 340 0 l 39 1083 l 238 1083 l 393 518 l 446 315 l 513 526 l 694 1083 l 906 1083 l 1088 526 l 1154 315 l 1207 518 l 1363 1083 l 1558 1083 l 1257 0 m 1008 1389 l 894 1144 l 703 1144 l 814 1389 "},"Ŵ":{"ha":1597,"x_min":0,"x_max":0,"o":"m 1061 0 l 867 585 l 799 800 l 731 585 l 536 0 l 340 0 l 39 1083 l 238 1083 l 393 518 l 446 315 l 513 526 l 694 1083 l 906 1083 l 1088 526 l 1154 315 l 1207 518 l 1363 1083 l 1558 1083 l 1257 0 m 515 1144 l 718 1389 l 879 1389 l 1082 1144 l 888 1144 l 799 1244 l 710 1144 "},"Ẅ":{"ha":1597,"x_min":0,"x_max":0,"o":"m 1061 0 l 867 585 l 799 800 l 731 585 l 536 0 l 340 0 l 39 1083 l 238 1083 l 393 518 l 446 315 l 513 526 l 694 1083 l 906 1083 l 1088 526 l 1154 315 l 1207 518 l 1363 1083 l 1558 1083 l 1257 0 m 542 1267 b 660 1385 542 1332 594 1385 b 778 1267 725 1385 778 1332 b 660 1149 778 1201 725 1149 b 542 1267 594 1149 542 1201 m 819 1267 b 938 1385 819 1332 872 1385 b 1056 1267 1003 1385 1056 1332 b 938 1149 1056 1201 1003 1149 b 819 1267 872 1149 819 1201 "},"Ý":{"ha":1014,"x_min":0,"x_max":0,"o":"m 231 1083 l 424 764 l 510 617 l 596 764 l 789 1083 l 1010 1083 l 604 435 l 604 0 l 410 0 l 410 435 l 4 1083 m 717 1389 l 603 1144 l 411 1144 l 522 1389 "},"Ŷ":{"ha":1014,"x_min":0,"x_max":0,"o":"m 231 1083 l 424 764 l 510 617 l 596 764 l 789 1083 l 1010 1083 l 604 435 l 604 0 l 410 0 l 410 435 l 4 1083 m 224 1144 l 426 1389 l 588 1389 l 790 1144 l 596 1144 l 507 1244 l 418 1144 "},"Ÿ":{"ha":1014,"x_min":0,"x_max":0,"o":"m 231 1083 l 424 764 l 510 617 l 596 764 l 789 1083 l 1010 1083 l 604 435 l 604 0 l 410 0 l 410 435 l 4 1083 m 250 1267 b 368 1385 250 1332 303 1385 b 486 1267 433 1385 486 1332 b 368 1149 486 1201 433 1149 b 250 1267 303 1149 250 1201 m 528 1267 b 646 1385 528 1332 581 1385 b 764 1267 711 1385 764 1332 b 646 1149 764 1201 711 1149 b 528 1267 581 1149 528 1201 "},"Ź":{"ha":986,"x_min":0,"x_max":0,"o":"m 408 276 l 331 179 l 544 181 l 921 181 l 921 0 l 65 0 l 65 139 l 576 807 l 654 904 l 440 903 l 92 903 l 92 1083 l 919 1083 l 919 944 m 715 1389 l 601 1144 l 410 1144 l 521 1389 "},"Ž":{"ha":986,"x_min":0,"x_max":0,"o":"m 408 276 l 331 179 l 544 181 l 921 181 l 921 0 l 65 0 l 65 139 l 576 807 l 654 904 l 440 903 l 92 903 l 92 1083 l 919 1083 l 919 944 m 417 1389 l 506 1289 l 594 1389 l 789 1389 l 586 1144 l 425 1144 l 222 1389 "},"Ż":{"ha":986,"x_min":0,"x_max":0,"o":"m 408 276 l 331 179 l 544 181 l 921 181 l 921 0 l 65 0 l 65 139 l 576 807 l 654 904 l 440 903 l 92 903 l 92 1083 l 919 1083 l 919 944 m 388 1267 b 506 1385 388 1332 440 1385 b 624 1267 571 1385 624 1332 b 506 1149 624 1201 571 1149 b 388 1267 440 1149 388 1201 "},"Ḃ":{"ha":1003,"x_min":0,"x_max":0,"o":"m 111 0 l 111 1083 l 576 1083 b 911 781 771 1083 911 975 b 792 568 911 678 854 610 b 947 324 874 529 947 457 b 592 0 947 121 818 0 m 603 181 b 750 328 682 181 750 228 b 603 465 750 426 665 465 l 306 465 l 306 181 m 306 903 l 306 646 l 585 646 b 714 772 656 646 714 693 b 590 903 714 851 661 903 m 375 1267 b 493 1385 375 1332 428 1385 b 611 1267 558 1385 611 1332 b 493 1149 611 1201 558 1149 b 375 1267 428 1149 375 1201 "},"Ḋ":{"ha":1153,"x_min":0,"x_max":0,"o":"m 1083 542 b 529 0 1083 211 874 0 l 111 0 l 111 1083 l 529 1083 b 1083 542 874 1083 1083 872 m 514 181 b 886 542 750 181 886 317 b 514 903 886 767 750 903 l 306 903 l 306 181 m 410 1267 b 528 1385 410 1332 463 1385 b 646 1267 593 1385 646 1332 b 528 1149 646 1201 593 1149 b 410 1267 463 1149 410 1201 "},"Ḟ":{"ha":910,"x_min":0,"x_max":0,"o":"m 306 0 l 111 0 l 111 1083 l 861 1083 l 861 903 l 306 903 l 306 646 l 806 646 l 806 465 l 306 465 m 382 1267 b 500 1385 382 1332 435 1385 b 618 1267 565 1385 618 1332 b 500 1149 618 1201 565 1149 b 382 1267 435 1149 382 1201 "},"Ṁ":{"ha":1306,"x_min":0,"x_max":0,"o":"m 360 544 l 296 726 l 301 465 l 301 0 l 111 0 l 111 1083 l 358 1083 l 568 539 l 656 289 l 743 539 l 953 1083 l 1194 1083 l 1194 0 l 1007 0 l 1007 465 l 1013 726 l 949 544 l 739 0 l 569 0 m 535 1267 b 653 1385 535 1332 588 1385 b 771 1267 718 1385 771 1332 b 653 1149 771 1201 718 1149 b 535 1267 588 1149 535 1201 "},"Ṗ":{"ha":929,"x_min":0,"x_max":0,"o":"m 533 581 b 694 742 628 581 694 642 b 533 903 694 842 628 903 l 306 903 l 306 581 m 306 0 l 111 0 l 111 1083 l 556 1083 b 892 742 756 1083 892 939 b 556 400 892 544 756 400 l 306 400 m 375 1267 b 493 1385 375 1332 428 1385 b 611 1267 558 1385 611 1332 b 493 1149 611 1201 558 1149 b 375 1267 428 1149 375 1201 "},"Ṫ":{"ha":917,"x_min":0,"x_max":0,"o":"m 556 0 l 361 0 l 361 903 l 28 903 l 28 1083 l 889 1083 l 889 903 l 556 903 m 340 1267 b 458 1385 340 1332 393 1385 b 576 1267 524 1385 576 1332 b 458 1149 576 1201 524 1149 b 340 1267 393 1149 340 1201 "},"Ỳ":{"ha":1014,"x_min":0,"x_max":0,"o":"m 231 1083 l 424 764 l 510 617 l 596 764 l 789 1083 l 1010 1083 l 604 435 l 604 0 l 410 0 l 410 435 l 4 1083 m 492 1389 l 603 1144 l 411 1144 l 297 1389 "},"Ȳ":{"ha":1014,"x_min":0,"x_max":0,"o":"m 231 1083 l 424 764 l 510 617 l 596 764 l 789 1083 l 1010 1083 l 604 435 l 604 0 l 410 0 l 410 435 l 4 1083 m 721 1351 l 721 1182 l 293 1182 l 293 1351 "},"à":{"ha":800,"x_min":0,"x_max":0,"o":"m 381 1083 l 492 839 l 300 839 l 186 1083 m 81 490 b 399 756 90 621 183 756 b 719 464 599 756 719 640 l 719 0 l 564 0 l 564 161 b 297 -19 525 44 429 -19 b 57 206 146 -19 57 85 b 315 444 57 347 139 415 l 531 481 l 531 492 b 394 603 531 554 483 603 b 247 490 306 603 253 558 m 250 219 b 350 133 250 167 293 133 b 531 329 474 133 531 246 l 531 350 l 351 321 b 250 219 282 308 250 274 "},"á":{"ha":800,"x_min":0,"x_max":0,"o":"m 606 1083 l 492 839 l 300 839 l 411 1083 m 81 490 b 399 756 90 621 183 756 b 719 464 599 756 719 640 l 719 0 l 564 0 l 564 161 b 297 -19 525 44 429 -19 b 57 206 146 -19 57 85 b 315 444 57 347 139 415 l 531 481 l 531 492 b 394 603 531 554 483 603 b 247 490 306 603 253 558 m 250 219 b 350 133 250 167 293 133 b 531 329 474 133 531 246 l 531 350 l 351 321 b 250 219 282 308 250 274 "},"â":{"ha":800,"x_min":0,"x_max":0,"o":"m 113 839 l 315 1083 l 476 1083 l 679 839 l 485 839 l 396 939 l 307 839 m 81 490 b 399 756 90 621 183 756 b 719 464 599 756 719 640 l 719 0 l 564 0 l 564 161 b 297 -19 525 44 429 -19 b 57 206 146 -19 57 85 b 315 444 57 347 139 415 l 531 481 l 531 492 b 394 603 531 554 483 603 b 247 490 306 603 253 558 m 250 219 b 350 133 250 167 293 133 b 531 329 474 133 531 246 l 531 350 l 351 321 b 250 219 282 308 250 274 "},"ä":{"ha":800,"x_min":0,"x_max":0,"o":"m 139 961 b 257 1079 139 1026 192 1079 b 375 961 322 1079 375 1026 b 257 843 375 896 322 843 b 139 961 192 843 139 896 m 417 961 b 535 1079 417 1026 469 1079 b 653 961 600 1079 653 1026 b 535 843 653 896 600 843 b 417 961 469 843 417 896 m 81 490 b 399 756 90 621 183 756 b 719 464 599 756 719 640 l 719 0 l 564 0 l 564 161 b 297 -19 525 44 429 -19 b 57 206 146 -19 57 85 b 315 444 57 347 139 415 l 531 481 l 531 492 b 394 603 531 554 483 603 b 247 490 306 603 253 558 m 250 219 b 350 133 250 167 293 133 b 531 329 474 133 531 246 l 531 350 l 351 321 b 250 219 282 308 250 274 "},"ã":{"ha":800,"x_min":0,"x_max":0,"o":"m 285 1083 b 493 1006 396 1083 426 1006 b 550 1063 528 1006 550 1029 l 696 1063 b 507 839 696 922 633 839 b 299 917 396 839 365 917 b 242 860 264 917 242 893 l 96 860 b 285 1083 96 1000 158 1083 m 81 490 b 399 756 90 621 183 756 b 719 464 599 756 719 640 l 719 0 l 564 0 l 564 161 b 297 -19 525 44 429 -19 b 57 206 146 -19 57 85 b 315 444 57 347 139 415 l 531 481 l 531 492 b 394 603 531 554 483 603 b 247 490 306 603 253 558 m 250 219 b 350 133 250 167 293 133 b 531 329 474 133 531 246 l 531 350 l 351 321 b 250 219 282 308 250 274 "},"ā":{"ha":800,"x_min":0,"x_max":0,"o":"m 610 1046 l 610 876 l 182 876 l 182 1046 m 81 490 b 399 756 90 621 183 756 b 719 464 599 756 719 640 l 719 0 l 564 0 l 564 161 b 297 -19 525 44 429 -19 b 57 206 146 -19 57 85 b 315 444 57 347 139 415 l 531 481 l 531 492 b 394 603 531 554 483 603 b 247 490 306 603 253 558 m 250 219 b 350 133 250 167 293 133 b 531 329 474 133 531 246 l 531 350 l 351 321 b 250 219 282 308 250 274 "},"ă":{"ha":800,"x_min":0,"x_max":0,"o":"m 396 819 b 132 1083 229 819 132 910 l 278 1083 b 396 961 278 1003 324 961 b 514 1083 468 961 514 1003 l 660 1083 b 396 819 660 910 563 819 m 81 490 b 399 756 90 621 183 756 b 719 464 599 756 719 640 l 719 0 l 564 0 l 564 161 b 297 -19 525 44 429 -19 b 57 206 146 -19 57 85 b 315 444 57 347 139 415 l 531 481 l 531 492 b 394 603 531 554 483 603 b 247 490 306 603 253 558 m 250 219 b 350 133 250 167 293 133 b 531 329 474 133 531 246 l 531 350 l 351 321 b 250 219 282 308 250 274 "},"ć":{"ha":872,"x_min":0,"x_max":0,"o":"m 651 1083 l 538 839 l 346 839 l 457 1083 m 239 368 b 449 153 239 238 326 153 b 632 292 560 153 619 215 l 826 292 b 447 -19 807 129 690 -19 b 49 368 222 -19 49 133 b 447 756 49 603 222 756 b 826 444 690 756 807 607 l 632 444 b 449 583 619 521 560 583 b 239 368 326 583 239 499 "},"ĉ":{"ha":872,"x_min":0,"x_max":0,"o":"m 158 839 l 361 1083 l 522 1083 l 725 839 l 531 839 l 442 939 l 353 839 m 239 368 b 449 153 239 238 326 153 b 632 292 560 153 619 215 l 826 292 b 447 -19 807 129 690 -19 b 49 368 222 -19 49 133 b 447 756 49 603 222 756 b 826 444 690 756 807 607 l 632 444 b 449 583 619 521 560 583 b 239 368 326 583 239 499 "},"č":{"ha":872,"x_min":0,"x_max":0,"o":"m 353 1083 l 442 983 l 531 1083 l 725 1083 l 522 839 l 361 839 l 158 1083 m 239 368 b 449 153 239 238 326 153 b 632 292 560 153 619 215 l 826 292 b 447 -19 807 129 690 -19 b 49 368 222 -19 49 133 b 447 756 49 603 222 756 b 826 444 690 756 807 607 l 632 444 b 449 583 619 521 560 583 b 239 368 326 583 239 499 "},"ċ":{"ha":872,"x_min":0,"x_max":0,"o":"m 324 961 b 442 1079 324 1026 376 1079 b 560 961 507 1079 560 1026 b 442 843 560 896 507 843 b 324 961 376 843 324 896 m 239 368 b 449 153 239 238 326 153 b 632 292 560 153 619 215 l 826 292 b 447 -19 807 129 690 -19 b 49 368 222 -19 49 133 b 447 756 49 603 222 756 b 826 444 690 756 807 607 l 632 444 b 449 583 619 521 560 583 b 239 368 326 583 239 499 "},"ç":{"ha":872,"x_min":0,"x_max":0,"o":"m 336 -151 b 414 -175 351 -162 385 -175 b 476 -147 456 -175 476 -165 b 372 -100 476 -115 419 -106 l 382 -15 b 49 368 189 11 49 156 b 447 756 49 603 222 756 b 826 444 690 756 807 607 l 632 444 b 449 583 619 521 560 583 b 239 368 326 583 239 499 b 449 153 239 238 326 153 b 632 292 560 153 619 215 l 826 292 b 496 -17 808 140 706 1 l 493 -44 b 615 -175 567 -62 615 -103 b 436 -297 615 -235 560 -297 b 285 -253 350 -297 308 -269 "},"đ":{"ha":932,"x_min":0,"x_max":0,"o":"m 49 368 b 400 756 49 604 217 756 b 653 617 517 756 614 703 l 653 838 l 460 838 l 460 1007 l 653 1007 l 653 1111 l 842 1111 l 842 1007 l 960 1007 l 960 838 l 842 838 l 842 0 l 686 0 l 686 165 b 400 -19 647 42 518 -19 b 49 368 217 -19 49 132 m 653 368 b 442 583 653 494 569 583 b 239 368 346 583 239 525 b 442 153 239 211 346 153 b 653 368 569 153 653 242 "},"è":{"ha":828,"x_min":0,"x_max":0,"o":"m 400 1083 l 511 839 l 319 839 l 206 1083 m 428 -19 b 49 368 207 -19 49 132 b 421 756 49 604 217 756 b 779 368 617 756 779 614 b 772 304 779 342 775 314 l 240 304 b 426 133 250 197 317 133 b 597 233 538 133 581 183 l 774 233 b 428 -19 753 107 654 -19 m 585 443 b 415 603 576 547 513 603 b 243 443 318 603 251 544 "},"é":{"ha":828,"x_min":0,"x_max":0,"o":"m 625 1083 l 511 839 l 319 839 l 431 1083 m 428 -19 b 49 368 207 -19 49 132 b 421 756 49 604 217 756 b 779 368 617 756 779 614 b 772 304 779 342 775 314 l 240 304 b 426 133 250 197 317 133 b 597 233 538 133 581 183 l 774 233 b 428 -19 753 107 654 -19 m 585 443 b 415 603 576 547 513 603 b 243 443 318 603 251 544 "},"ê":{"ha":828,"x_min":0,"x_max":0,"o":"m 132 839 l 335 1083 l 496 1083 l 699 839 l 504 839 l 415 939 l 326 839 m 428 -19 b 49 368 207 -19 49 132 b 421 756 49 604 217 756 b 779 368 617 756 779 614 b 772 304 779 342 775 314 l 240 304 b 426 133 250 197 317 133 b 597 233 538 133 581 183 l 774 233 b 428 -19 753 107 654 -19 m 585 443 b 415 603 576 547 513 603 b 243 443 318 603 251 544 "},"ë":{"ha":828,"x_min":0,"x_max":0,"o":"m 158 961 b 276 1079 158 1026 211 1079 b 394 961 342 1079 394 1026 b 276 843 394 896 342 843 b 158 961 211 843 158 896 m 436 961 b 554 1079 436 1026 489 1079 b 672 961 619 1079 672 1026 b 554 843 672 896 619 843 b 436 961 489 843 436 896 m 428 -19 b 49 368 207 -19 49 132 b 421 756 49 604 217 756 b 779 368 617 756 779 614 b 772 304 779 342 775 314 l 240 304 b 426 133 250 197 317 133 b 597 233 538 133 581 183 l 774 233 b 428 -19 753 107 654 -19 m 585 443 b 415 603 576 547 513 603 b 243 443 318 603 251 544 "},"ě":{"ha":828,"x_min":0,"x_max":0,"o":"m 326 1083 l 415 983 l 504 1083 l 699 1083 l 496 839 l 335 839 l 132 1083 m 428 -19 b 49 368 207 -19 49 132 b 421 756 49 604 217 756 b 779 368 617 756 779 614 b 772 304 779 342 775 314 l 240 304 b 426 133 250 197 317 133 b 597 233 538 133 581 183 l 774 233 b 428 -19 753 107 654 -19 m 585 443 b 415 603 576 547 513 603 b 243 443 318 603 251 544 "},"ē":{"ha":828,"x_min":0,"x_max":0,"o":"m 629 1046 l 629 876 l 201 876 l 201 1046 m 428 -19 b 49 368 207 -19 49 132 b 421 756 49 604 217 756 b 779 368 617 756 779 614 b 772 304 779 342 775 314 l 240 304 b 426 133 250 197 317 133 b 597 233 538 133 581 183 l 774 233 b 428 -19 753 107 654 -19 m 585 443 b 415 603 576 547 513 603 b 243 443 318 603 251 544 "},"ĕ":{"ha":828,"x_min":0,"x_max":0,"o":"m 415 819 b 151 1083 249 819 151 910 l 297 1083 b 415 961 297 1003 343 961 b 533 1083 488 961 533 1003 l 679 1083 b 415 819 679 910 582 819 m 428 -19 b 49 368 207 -19 49 132 b 421 756 49 604 217 756 b 779 368 617 756 779 614 b 772 304 779 342 775 314 l 240 304 b 426 133 250 197 317 133 b 597 233 538 133 581 183 l 774 233 b 428 -19 753 107 654 -19 m 585 443 b 415 603 576 547 513 603 b 243 443 318 603 251 544 "},"ė":{"ha":828,"x_min":0,"x_max":0,"o":"m 297 961 b 415 1079 297 1026 350 1079 b 533 961 481 1079 533 1026 b 415 843 533 896 481 843 b 297 961 350 843 297 896 m 428 -19 b 49 368 207 -19 49 132 b 421 756 49 604 217 756 b 779 368 617 756 779 614 b 772 304 779 342 775 314 l 240 304 b 426 133 250 197 317 133 b 597 233 538 133 581 183 l 774 233 b 428 -19 753 107 654 -19 m 585 443 b 415 603 576 547 513 603 b 243 443 318 603 251 544 "},"ĝ":{"ha":908,"x_min":0,"x_max":0,"o":"m 151 839 l 354 1083 l 515 1083 l 718 839 l 524 839 l 435 939 l 346 839 m 636 385 b 435 585 636 504 563 585 b 239 385 340 585 239 521 b 435 186 239 250 340 186 b 636 385 563 186 636 267 m 636 125 b 400 14 593 61 511 14 b 50 385 215 14 50 164 b 400 756 50 606 215 756 b 667 599 533 756 621 689 l 667 736 l 822 736 l 822 24 b 440 -297 822 -171 665 -297 b 67 -22 213 -297 81 -176 l 250 -22 b 440 -144 263 -81 311 -144 b 636 7 571 -144 636 -74 "},"ğ":{"ha":908,"x_min":0,"x_max":0,"o":"m 435 819 b 171 1083 268 819 171 910 l 317 1083 b 435 961 317 1003 363 961 b 553 1083 507 961 553 1003 l 699 1083 b 435 819 699 910 601 819 m 636 385 b 435 585 636 504 563 585 b 239 385 340 585 239 521 b 435 186 239 250 340 186 b 636 385 563 186 636 267 m 636 125 b 400 14 593 61 511 14 b 50 385 215 14 50 164 b 400 756 50 606 215 756 b 667 599 533 756 621 689 l 667 736 l 822 736 l 822 24 b 440 -297 822 -171 665 -297 b 67 -22 213 -297 81 -176 l 250 -22 b 440 -144 263 -81 311 -144 b 636 7 571 -144 636 -74 "},"ġ":{"ha":908,"x_min":0,"x_max":0,"o":"m 317 961 b 435 1079 317 1026 369 1079 b 553 961 500 1079 553 1026 b 435 843 553 896 500 843 b 317 961 369 843 317 896 m 636 385 b 435 585 636 504 563 585 b 239 385 340 585 239 521 b 435 186 239 250 340 186 b 636 385 563 186 636 267 m 636 125 b 400 14 593 61 511 14 b 50 385 215 14 50 164 b 400 756 50 606 215 756 b 667 599 533 756 621 689 l 667 736 l 822 736 l 822 24 b 440 -297 822 -171 665 -297 b 67 -22 213 -297 81 -176 l 250 -22 b 440 -144 263 -81 311 -144 b 636 7 571 -144 636 -74 "},"ĥ":{"ha":867,"x_min":0,"x_max":0,"o":"m 88 1111 l 276 1111 l 276 629 b 510 756 324 717 404 756 b 792 492 693 756 792 628 l 792 0 l 603 0 l 603 431 b 451 578 603 524 547 578 b 276 411 349 578 276 513 l 276 0 l 88 0 m -101 1144 l 101 1389 l 263 1389 l 465 1144 l 271 1144 l 182 1244 l 93 1144 "},"ħ":{"ha":867,"x_min":0,"x_max":0,"o":"m 88 838 l -31 838 l -31 1007 l 88 1007 l 88 1111 l 276 1111 l 276 1007 l 469 1007 l 469 838 l 276 838 l 276 629 b 510 756 324 717 404 756 b 792 492 693 756 792 628 l 792 0 l 603 0 l 603 431 b 451 578 603 524 547 578 b 276 411 349 578 276 513 l 276 0 l 88 0 "},"í":{"ha":381,"x_min":0,"x_max":0,"o":"m 96 736 l 285 736 l 285 0 l 96 0 m 400 1083 l 286 839 l 94 839 l 206 1083 "},"ì":{"ha":381,"x_min":0,"x_max":0,"o":"m 96 736 l 285 736 l 285 0 l 96 0 m 175 1083 l 286 839 l 94 839 l -19 1083 "},"î":{"ha":381,"x_min":0,"x_max":0,"o":"m 96 736 l 285 736 l 285 0 l 96 0 m -93 839 l 110 1083 l 271 1083 l 474 839 l 279 839 l 190 939 l 101 839 "},"ï":{"ha":381,"x_min":0,"x_max":0,"o":"m 96 736 l 285 736 l 285 0 l 96 0 m -67 961 b 51 1079 -67 1026 -14 1079 b 169 961 117 1079 169 1026 b 51 843 169 896 117 843 b -67 961 -14 843 -67 896 m 211 961 b 329 1079 211 1026 264 1079 b 447 961 394 1079 447 1026 b 329 843 447 896 394 843 b 211 961 264 843 211 896 "},"ĩ":{"ha":381,"x_min":0,"x_max":0,"o":"m 96 736 l 285 736 l 285 0 l 96 0 m 79 1083 b 288 1006 190 1083 221 1006 b 344 1063 322 1006 344 1029 l 490 1063 b 301 839 490 922 428 839 b 93 917 190 839 160 917 b 36 860 58 917 36 893 l -110 860 b 79 1083 -110 1000 -47 1083 "},"ī":{"ha":381,"x_min":0,"x_max":0,"o":"m 96 736 l 285 736 l 285 0 l 96 0 m 404 1046 l 404 876 l -24 876 l -24 1046 "},"ĭ":{"ha":381,"x_min":0,"x_max":0,"o":"m 96 736 l 285 736 l 285 0 l 96 0 m 190 819 b -74 1083 24 819 -74 910 l 72 1083 b 190 961 72 1003 118 961 b 308 1083 263 961 308 1003 l 454 1083 b 190 819 454 910 357 819 "},"ĵ":{"ha":381,"x_min":0,"x_max":0,"o":"m -93 839 l 110 1083 l 271 1083 l 474 839 l 279 839 l 190 939 l 101 839 m 285 -83 b 51 -297 285 -207 197 -297 b -167 -92 -97 -297 -162 -200 l 0 -92 b 47 -139 1 -119 18 -139 b 96 -90 78 -139 96 -118 l 96 736 l 285 736 "},"ķ":{"ha":832,"x_min":0,"x_max":0,"o":"m 310 -233 b 390 -206 343 -232 382 -218 b 321 -126 350 -199 321 -167 b 406 -42 321 -79 358 -42 b 494 -149 453 -42 494 -81 b 310 -297 494 -214 449 -292 m 88 0 l 88 1111 l 276 1111 l 276 463 l 535 736 l 800 736 l 478 426 l 836 0 l 589 0 l 351 306 l 276 233 l 276 0 "},"ĸ":{"ha":832,"x_min":0,"x_max":0,"o":"m 88 0 l 88 736 l 276 736 l 276 463 l 535 736 l 800 736 l 478 426 l 836 0 l 589 0 l 351 306 l 276 233 l 276 0 "},"ĺ":{"ha":381,"x_min":0,"x_max":0,"o":"m 96 1111 l 285 1111 l 285 0 l 96 0 m 400 1389 l 286 1144 l 94 1144 l 206 1389 "},"ļ":{"ha":381,"x_min":0,"x_max":0,"o":"m 96 1111 l 285 1111 l 285 0 l 96 0 m 93 -233 b 174 -206 126 -232 165 -218 b 104 -126 133 -199 104 -167 b 189 -42 104 -79 142 -42 b 278 -149 236 -42 278 -81 b 93 -297 278 -214 232 -292 "},"ŀ":{"ha":583,"x_min":0,"x_max":0,"o":"m 100 1111 l 289 1111 l 289 0 l 100 0 m 368 467 b 486 585 368 532 421 585 b 604 467 551 585 604 532 b 486 349 604 401 551 349 b 368 467 421 349 368 401 "},"ń":{"ha":878,"x_min":0,"x_max":0,"o":"m 653 1083 l 539 839 l 347 839 l 458 1083 m 90 736 l 246 736 l 246 576 b 513 756 286 701 389 756 b 794 492 696 756 794 628 l 794 0 l 606 0 l 606 431 b 454 578 606 524 550 578 b 279 411 351 578 279 513 l 279 0 l 90 0 "},"ñ":{"ha":878,"x_min":0,"x_max":0,"o":"m 332 1083 b 540 1006 443 1083 474 1006 b 597 1063 575 1006 597 1029 l 743 1063 b 554 839 743 922 681 839 b 346 917 443 839 413 917 b 289 860 311 917 289 893 l 143 860 b 332 1083 143 1000 206 1083 m 90 736 l 246 736 l 246 576 b 513 756 286 701 389 756 b 794 492 696 756 794 628 l 794 0 l 606 0 l 606 431 b 454 578 606 524 550 578 b 279 411 351 578 279 513 l 279 0 l 90 0 "},"ň":{"ha":878,"x_min":0,"x_max":0,"o":"m 354 1083 l 443 983 l 532 1083 l 726 1083 l 524 839 l 363 839 l 160 1083 m 90 736 l 246 736 l 246 576 b 513 756 286 701 389 756 b 794 492 696 756 794 628 l 794 0 l 606 0 l 606 431 b 454 578 606 524 550 578 b 279 411 351 578 279 513 l 279 0 l 90 0 "},"ņ":{"ha":878,"x_min":0,"x_max":0,"o":"m 347 -233 b 428 -206 381 -232 419 -218 b 358 -126 388 -199 358 -167 b 443 -42 358 -79 396 -42 b 532 -149 490 -42 532 -81 b 347 -297 532 -214 486 -292 m 90 736 l 246 736 l 246 576 b 513 756 286 701 389 756 b 794 492 696 756 794 628 l 794 0 l 606 0 l 606 431 b 454 578 606 524 550 578 b 279 411 351 578 279 513 l 279 0 l 90 0 "},"ò":{"ha":883,"x_min":0,"x_max":0,"o":"m 442 -19 b 49 368 211 -19 49 133 b 442 756 49 603 211 756 b 835 368 672 756 835 603 b 442 -19 835 133 672 -19 m 442 158 b 642 368 561 158 642 240 b 442 578 642 496 561 578 b 242 368 322 578 242 496 b 442 158 242 240 322 158 m 426 1083 l 538 839 l 346 839 l 232 1083 "},"ó":{"ha":883,"x_min":0,"x_max":0,"o":"m 442 -19 b 49 368 211 -19 49 133 b 442 756 49 603 211 756 b 835 368 672 756 835 603 b 442 -19 835 133 672 -19 m 442 158 b 642 368 561 158 642 240 b 442 578 642 496 561 578 b 242 368 322 578 242 496 b 442 158 242 240 322 158 m 651 1083 l 538 839 l 346 839 l 457 1083 "},"ô":{"ha":883,"x_min":0,"x_max":0,"o":"m 442 -19 b 49 368 211 -19 49 133 b 442 756 49 603 211 756 b 835 368 672 756 835 603 b 442 -19 835 133 672 -19 m 442 158 b 642 368 561 158 642 240 b 442 578 642 496 561 578 b 242 368 322 578 242 496 b 442 158 242 240 322 158 m 158 839 l 361 1083 l 522 1083 l 725 839 l 531 839 l 442 939 l 353 839 "},"ö":{"ha":883,"x_min":0,"x_max":0,"o":"m 442 158 b 642 368 561 158 642 240 b 442 578 642 496 561 578 b 242 368 322 578 242 496 b 442 158 242 240 322 158 m 442 -19 b 49 368 211 -19 49 133 b 442 756 49 603 211 756 b 835 368 672 756 835 603 b 442 -19 835 133 672 -19 m 185 961 b 303 1079 185 1026 238 1079 b 421 961 368 1079 421 1026 b 303 843 421 896 368 843 b 185 961 238 843 185 896 m 463 961 b 581 1079 463 1026 515 1079 b 699 961 646 1079 699 1026 b 581 843 699 896 646 843 b 463 961 515 843 463 896 "},"õ":{"ha":883,"x_min":0,"x_max":0,"o":"m 442 158 b 642 368 561 158 642 240 b 442 578 642 496 561 578 b 242 368 322 578 242 496 b 442 158 242 240 322 158 m 442 -19 b 49 368 211 -19 49 133 b 442 756 49 603 211 756 b 835 368 672 756 835 603 b 442 -19 835 133 672 -19 m 331 1083 b 539 1006 442 1083 472 1006 b 596 1063 574 1006 596 1029 l 742 1063 b 553 839 742 922 679 839 b 344 917 442 839 411 917 b 288 860 310 917 288 893 l 142 860 b 331 1083 142 1000 204 1083 "},"ō":{"ha":883,"x_min":0,"x_max":0,"o":"m 442 -19 b 49 368 211 -19 49 133 b 442 756 49 603 211 756 b 835 368 672 756 835 603 b 442 -19 835 133 672 -19 m 442 158 b 642 368 561 158 642 240 b 442 578 642 496 561 578 b 242 368 322 578 242 496 b 442 158 242 240 322 158 m 656 1046 l 656 876 l 228 876 l 228 1046 "},"ŏ":{"ha":883,"x_min":0,"x_max":0,"o":"m 442 158 b 642 368 561 158 642 240 b 442 578 642 496 561 578 b 242 368 322 578 242 496 b 442 158 242 240 322 158 m 442 -19 b 49 368 211 -19 49 133 b 442 756 49 603 211 756 b 835 368 672 756 835 603 b 442 -19 835 133 672 -19 m 442 819 b 178 1083 275 819 178 910 l 324 1083 b 442 961 324 1003 369 961 b 560 1083 514 961 560 1003 l 706 1083 b 442 819 706 910 608 819 "},"ő":{"ha":883,"x_min":0,"x_max":0,"o":"m 442 -19 b 49 368 211 -19 49 133 b 442 756 49 603 211 756 b 835 368 672 756 835 603 b 442 -19 835 133 672 -19 m 442 158 b 642 368 561 158 642 240 b 442 578 642 496 561 578 b 242 368 322 578 242 496 b 442 158 242 240 322 158 m 413 839 l 221 839 l 332 1083 l 526 1083 m 776 1083 l 663 839 l 471 839 l 582 1083 "},"ŕ":{"ha":683,"x_min":0,"x_max":0,"o":"m 578 1083 l 464 839 l 272 839 l 383 1083 m 486 490 b 393 592 486 553 450 592 b 279 461 322 592 279 538 l 279 0 l 90 0 l 90 736 l 246 736 l 246 593 b 457 756 278 708 360 756 b 661 490 568 756 669 667 "},"ř":{"ha":683,"x_min":0,"x_max":0,"o":"m 279 1083 l 368 983 l 457 1083 l 651 1083 l 449 839 l 288 839 l 85 1083 m 486 490 b 393 592 486 553 450 592 b 279 461 322 592 279 538 l 279 0 l 90 0 l 90 736 l 246 736 l 246 593 b 457 756 278 708 360 756 b 661 490 568 756 669 667 "},"ŗ":{"ha":683,"x_min":0,"x_max":0,"o":"m 88 -233 b 168 -206 121 -232 160 -218 b 99 -126 128 -199 99 -167 b 183 -42 99 -79 136 -42 b 272 -149 231 -42 272 -81 b 88 -297 272 -214 226 -292 m 486 490 b 393 592 486 553 450 592 b 279 461 322 592 279 538 l 279 0 l 90 0 l 90 736 l 246 736 l 246 593 b 457 756 278 708 360 756 b 661 490 568 756 669 667 "},"ś":{"ha":708,"x_min":0,"x_max":0,"o":"m 563 1083 l 449 839 l 257 839 l 368 1083 m 360 614 b 254 539 303 614 254 582 b 396 457 254 490 306 465 b 671 231 578 440 671 372 b 353 -19 671 85 547 -19 b 47 288 176 -19 32 71 l 214 288 b 354 122 206 178 269 122 b 490 214 447 122 490 168 b 349 306 490 268 446 296 b 74 525 156 324 74 394 b 358 756 74 682 215 756 b 639 499 518 756 654 676 l 472 499 b 360 614 475 575 431 614 "},"ŝ":{"ha":708,"x_min":0,"x_max":0,"o":"m 69 839 l 272 1083 l 433 1083 l 636 839 l 442 839 l 353 939 l 264 839 m 360 614 b 254 539 303 614 254 582 b 396 457 254 490 306 465 b 671 231 578 440 671 372 b 353 -19 671 85 547 -19 b 47 288 176 -19 32 71 l 214 288 b 354 122 206 178 269 122 b 490 214 447 122 490 168 b 349 306 490 268 446 296 b 74 525 156 324 74 394 b 358 756 74 682 215 756 b 639 499 518 756 654 676 l 472 499 b 360 614 475 575 431 614 "},"š":{"ha":708,"x_min":0,"x_max":0,"o":"m 264 1083 l 353 983 l 442 1083 l 636 1083 l 433 839 l 272 839 l 69 1083 m 360 614 b 254 539 303 614 254 582 b 396 457 254 490 306 465 b 671 231 578 440 671 372 b 353 -19 671 85 547 -19 b 47 288 176 -19 32 71 l 214 288 b 354 122 206 178 269 122 b 490 214 447 122 490 168 b 349 306 490 268 446 296 b 74 525 156 324 74 394 b 358 756 74 682 215 756 b 639 499 518 756 654 676 l 472 499 b 360 614 475 575 431 614 "},"ș":{"ha":708,"x_min":0,"x_max":0,"o":"m 257 -233 b 338 -206 290 -232 329 -218 b 268 -126 297 -199 268 -167 b 353 -42 268 -79 306 -42 b 442 -149 400 -42 442 -81 b 257 -297 442 -214 396 -292 m 360 614 b 254 539 303 614 254 582 b 396 457 254 490 306 465 b 671 231 578 440 671 372 b 353 -19 671 85 547 -19 b 47 288 176 -19 32 71 l 214 288 b 354 122 206 178 269 122 b 490 214 447 122 490 168 b 349 306 490 268 446 296 b 74 525 156 324 74 394 b 358 756 74 682 215 756 b 639 499 518 756 654 676 l 472 499 b 360 614 475 575 431 614 "},"ş":{"ha":708,"x_min":0,"x_max":0,"o":"m 360 614 b 254 539 303 614 254 582 b 396 457 254 490 306 465 b 671 231 578 440 671 372 b 418 -15 671 101 575 6 l 415 -44 b 538 -175 489 -62 538 -103 b 358 -297 538 -235 482 -297 b 207 -253 272 -297 231 -269 l 258 -151 b 336 -175 274 -162 307 -175 b 399 -147 378 -175 399 -165 b 294 -100 399 -115 342 -106 l 304 -17 b 47 288 150 -1 33 90 l 214 288 b 354 122 206 178 269 122 b 490 214 447 122 490 168 b 349 306 490 268 446 296 b 74 525 156 324 74 394 b 358 756 74 682 215 756 b 639 499 518 756 654 676 l 472 499 b 360 614 475 575 431 614 "},"ț":{"ha":611,"x_min":0,"x_max":0,"o":"m 351 568 l 351 250 b 458 142 351 174 390 142 b 540 156 492 142 529 150 l 542 1 b 422 -19 525 -6 481 -19 b 165 214 267 -19 165 57 l 165 568 l 33 568 l 33 736 l 165 736 l 165 924 l 351 924 l 351 736 l 554 736 l 554 568 m 249 -233 b 329 -206 282 -232 321 -218 b 260 -126 289 -199 260 -167 b 344 -42 260 -79 297 -42 b 433 -149 392 -42 433 -81 b 249 -297 433 -214 388 -292 "},"ŧ":{"ha":611,"x_min":0,"x_max":0,"o":"m 542 1 b 422 -19 525 -6 481 -19 b 165 214 267 -19 165 57 l 165 289 l 47 289 l 47 458 l 165 458 l 165 568 l 33 568 l 33 736 l 165 736 l 165 924 l 351 924 l 351 736 l 554 736 l 554 568 l 351 568 l 351 458 l 500 458 l 500 289 l 351 289 l 351 250 b 458 142 351 174 390 142 b 540 156 492 142 529 150 "},"ù":{"ha":875,"x_min":0,"x_max":0,"o":"m 418 1083 l 529 839 l 338 839 l 224 1083 m 629 0 l 629 160 b 363 -19 589 35 486 -19 b 81 244 179 -19 81 108 l 81 736 l 269 736 l 269 306 b 421 158 269 213 325 158 b 596 325 524 158 596 224 l 596 736 l 785 736 l 785 0 "},"ú":{"ha":875,"x_min":0,"x_max":0,"o":"m 643 1083 l 529 839 l 338 839 l 449 1083 m 629 0 l 629 160 b 363 -19 589 35 486 -19 b 81 244 179 -19 81 108 l 81 736 l 269 736 l 269 306 b 421 158 269 213 325 158 b 596 325 524 158 596 224 l 596 736 l 785 736 l 785 0 "},"û":{"ha":875,"x_min":0,"x_max":0,"o":"m 150 839 l 353 1083 l 514 1083 l 717 839 l 522 839 l 433 939 l 344 839 m 629 0 l 629 160 b 363 -19 589 35 486 -19 b 81 244 179 -19 81 108 l 81 736 l 269 736 l 269 306 b 421 158 269 213 325 158 b 596 325 524 158 596 224 l 596 736 l 785 736 l 785 0 "},"ü":{"ha":875,"x_min":0,"x_max":0,"o":"m 176 961 b 294 1079 176 1026 229 1079 b 413 961 360 1079 413 1026 b 294 843 413 896 360 843 b 176 961 229 843 176 896 m 454 961 b 572 1079 454 1026 507 1079 b 690 961 638 1079 690 1026 b 572 843 690 896 638 843 b 454 961 507 843 454 896 m 629 0 l 629 160 b 363 -19 589 35 486 -19 b 81 244 179 -19 81 108 l 81 736 l 269 736 l 269 306 b 421 158 269 213 325 158 b 596 325 524 158 596 224 l 596 736 l 785 736 l 785 0 "},"ũ":{"ha":875,"x_min":0,"x_max":0,"o":"m 322 1083 b 531 1006 433 1083 464 1006 b 588 1063 565 1006 588 1029 l 733 1063 b 544 839 733 922 671 839 b 336 917 433 839 403 917 b 279 860 301 917 279 893 l 133 860 b 322 1083 133 1000 196 1083 m 629 0 l 629 160 b 363 -19 589 35 486 -19 b 81 244 179 -19 81 108 l 81 736 l 269 736 l 269 306 b 421 158 269 213 325 158 b 596 325 524 158 596 224 l 596 736 l 785 736 l 785 0 "},"ů":{"ha":875,"x_min":0,"x_max":0,"o":"m 292 961 b 433 1103 292 1039 356 1103 b 575 961 511 1103 575 1039 b 433 819 575 883 511 819 b 292 961 356 819 292 883 m 375 961 b 433 903 375 929 401 903 b 492 961 465 903 492 929 b 433 1019 492 993 465 1019 b 375 961 401 1019 375 993 m 629 0 l 629 160 b 363 -19 589 35 486 -19 b 81 244 179 -19 81 108 l 81 736 l 269 736 l 269 306 b 421 158 269 213 325 158 b 596 325 524 158 596 224 l 596 736 l 785 736 l 785 0 "},"ū":{"ha":875,"x_min":0,"x_max":0,"o":"m 647 1046 l 647 876 l 219 876 l 219 1046 m 629 0 l 629 160 b 363 -19 589 35 486 -19 b 81 244 179 -19 81 108 l 81 736 l 269 736 l 269 306 b 421 158 269 213 325 158 b 596 325 524 158 596 224 l 596 736 l 785 736 l 785 0 "},"ŭ":{"ha":875,"x_min":0,"x_max":0,"o":"m 433 819 b 169 1083 267 819 169 910 l 315 1083 b 433 961 315 1003 361 961 b 551 1083 506 961 551 1003 l 697 1083 b 433 819 697 910 600 819 m 629 0 l 629 160 b 363 -19 589 35 486 -19 b 81 244 179 -19 81 108 l 81 736 l 269 736 l 269 306 b 421 158 269 213 325 158 b 596 325 524 158 596 224 l 596 736 l 785 736 l 785 0 "},"ű":{"ha":875,"x_min":0,"x_max":0,"o":"m 768 1083 l 654 839 l 463 839 l 574 1083 m 404 839 l 213 839 l 324 1083 l 518 1083 m 629 0 l 629 160 b 363 -19 589 35 486 -19 b 81 244 179 -19 81 108 l 81 736 l 269 736 l 269 306 b 421 158 269 213 325 158 b 596 325 524 158 596 224 l 596 736 l 785 736 l 785 0 "},"ẁ":{"ha":1194,"x_min":0,"x_max":0,"o":"m 858 269 l 971 736 l 1174 736 l 971 0 l 761 0 l 597 496 l 433 0 l 224 0 l 21 736 l 224 736 l 336 269 l 488 736 l 707 736 m 582 1083 l 693 839 l 501 839 l 388 1083 "},"ẃ":{"ha":1194,"x_min":0,"x_max":0,"o":"m 858 269 l 971 736 l 1174 736 l 971 0 l 761 0 l 597 496 l 433 0 l 224 0 l 21 736 l 224 736 l 336 269 l 488 736 l 707 736 m 807 1083 l 693 839 l 501 839 l 613 1083 "},"ŵ":{"ha":1194,"x_min":0,"x_max":0,"o":"m 858 269 l 971 736 l 1174 736 l 971 0 l 761 0 l 597 496 l 433 0 l 224 0 l 21 736 l 224 736 l 336 269 l 488 736 l 707 736 m 314 839 l 517 1083 l 678 1083 l 881 839 l 686 839 l 597 939 l 508 839 "},"ẅ":{"ha":1194,"x_min":0,"x_max":0,"o":"m 858 269 l 971 736 l 1174 736 l 971 0 l 761 0 l 597 496 l 433 0 l 224 0 l 21 736 l 224 736 l 336 269 l 488 736 l 707 736 m 618 961 b 736 1079 618 1026 671 1079 b 854 961 801 1079 854 1026 b 736 843 854 896 801 843 b 618 961 671 843 618 896 m 340 961 b 458 1079 340 1026 393 1079 b 576 961 524 1079 576 1026 b 458 843 576 896 524 843 b 340 961 393 843 340 896 "},"ý":{"ha":819,"x_min":0,"x_max":0,"o":"m 518 69 l 381 -278 l 164 -278 l 306 60 l 13 736 l 219 736 l 410 258 l 600 736 l 807 736 m 619 1083 l 506 839 l 314 839 l 425 1083 "},"ŷ":{"ha":819,"x_min":0,"x_max":0,"o":"m 518 69 l 381 -278 l 164 -278 l 306 60 l 13 736 l 219 736 l 410 258 l 600 736 l 807 736 m 126 839 l 329 1083 l 490 1083 l 693 839 l 499 839 l 410 939 l 321 839 "},"ÿ":{"ha":819,"x_min":0,"x_max":0,"o":"m 518 69 l 381 -278 l 164 -278 l 306 60 l 13 736 l 219 736 l 410 258 l 600 736 l 807 736 m 153 961 b 271 1079 153 1026 206 1079 b 389 961 336 1079 389 1026 b 271 843 389 896 336 843 b 153 961 206 843 153 896 m 431 961 b 549 1079 431 1026 483 1079 b 667 961 614 1079 667 1026 b 549 843 667 896 614 843 b 431 961 483 843 431 896 "},"ỳ":{"ha":819,"x_min":0,"x_max":0,"o":"m 518 69 l 381 -278 l 164 -278 l 306 60 l 13 736 l 219 736 l 410 258 l 600 736 l 807 736 m 394 1083 l 506 839 l 314 839 l 200 1083 "},"ȳ":{"ha":819,"x_min":0,"x_max":0,"o":"m 518 69 l 381 -278 l 164 -278 l 306 60 l 13 736 l 219 736 l 410 258 l 600 736 l 807 736 m 624 1046 l 624 876 l 196 876 l 196 1046 "},"ź":{"ha":778,"x_min":0,"x_max":0,"o":"m 49 135 l 444 567 l 317 565 l 63 565 l 63 736 l 715 736 l 715 601 l 319 169 l 447 171 l 729 171 l 729 0 l 49 0 m 599 1083 l 485 839 l 293 839 l 404 1083 "},"ž":{"ha":778,"x_min":0,"x_max":0,"o":"m 49 135 l 444 567 l 317 565 l 63 565 l 63 736 l 715 736 l 715 601 l 319 169 l 447 171 l 729 171 l 729 0 l 49 0 m 300 1083 l 389 983 l 478 1083 l 672 1083 l 469 839 l 308 839 l 106 1083 "},"ż":{"ha":778,"x_min":0,"x_max":0,"o":"m 49 135 l 444 567 l 317 565 l 63 565 l 63 736 l 715 736 l 715 601 l 319 169 l 447 171 l 729 171 l 729 0 l 49 0 m 271 961 b 389 1079 271 1026 324 1079 b 507 961 454 1079 507 1026 b 389 843 507 896 454 843 b 271 961 324 843 271 896 "},"ŋ":{"ha":878,"x_min":0,"x_max":0,"o":"m 90 736 l 246 736 l 246 576 b 513 756 286 701 389 756 b 794 492 696 756 794 628 l 794 -83 b 561 -297 794 -207 707 -297 b 343 -92 413 -297 347 -200 l 510 -92 b 557 -139 511 -119 528 -139 b 606 -90 588 -139 606 -118 l 606 431 b 454 578 606 524 550 578 b 279 411 351 578 279 513 l 279 0 l 90 0 "},"ď":{"ha":932,"x_min":0,"x_max":0,"o":"m 1085 1111 l 1049 825 l 907 825 l 939 1111 m 49 368 b 400 756 49 604 217 756 b 653 617 517 756 614 703 l 653 1111 l 842 1111 l 842 0 l 686 0 l 686 165 b 400 -19 647 42 518 -19 b 49 368 217 -19 49 132 m 653 368 b 442 583 653 494 569 583 b 239 368 346 583 239 525 b 442 153 239 211 346 153 b 653 368 569 153 653 242 "},"ľ":{"ha":381,"x_min":0,"x_max":0,"o":"m 96 1111 l 285 1111 l 285 0 l 96 0 m 528 1111 l 492 825 l 350 825 l 382 1111 "},"ť":{"ha":611,"x_min":0,"x_max":0,"o":"m 542 1 b 422 -19 525 -6 481 -19 b 165 214 267 -19 165 57 l 165 568 l 33 568 l 33 736 l 165 736 l 165 924 l 351 924 l 351 736 l 554 736 l 554 568 l 351 568 l 351 250 b 458 142 351 174 390 142 b 540 156 492 142 529 150 m 597 1111 l 561 825 l 419 825 l 451 1111 "},"Ľ":{"ha":861,"x_min":0,"x_max":0,"o":"m 306 181 l 833 181 l 833 0 l 111 0 l 111 1083 l 306 1083 m 674 1111 l 638 825 l 496 825 l 528 1111 "},"ḃ":{"ha":932,"x_min":0,"x_max":0,"o":"m 67 1267 b 185 1385 67 1332 119 1385 b 303 1267 250 1385 303 1332 b 185 1149 303 1201 250 1149 b 67 1267 119 1149 67 1201 m 883 368 b 532 -19 883 132 715 -19 b 246 165 414 -19 285 42 l 246 0 l 90 0 l 90 1111 l 279 1111 l 279 617 b 532 756 318 703 415 756 b 883 368 715 756 883 604 m 279 368 b 490 153 279 242 363 153 b 693 368 586 153 693 211 b 490 583 693 525 586 583 b 279 368 363 583 279 494 "},"ḋ":{"ha":932,"x_min":0,"x_max":0,"o":"m 629 1267 b 747 1385 629 1332 682 1385 b 865 1267 813 1385 865 1332 b 747 1149 865 1201 813 1149 b 629 1267 682 1149 629 1201 m 49 368 b 400 756 49 604 217 756 b 653 617 517 756 614 703 l 653 1111 l 842 1111 l 842 0 l 686 0 l 686 165 b 400 -19 647 42 518 -19 b 49 368 217 -19 49 132 m 653 368 b 442 583 653 494 569 583 b 239 368 346 583 239 525 b 442 153 239 211 346 153 b 653 368 569 153 653 242 "},"ḟ":{"ha":597,"x_min":0,"x_max":0,"o":"m 351 568 l 351 0 l 165 0 l 165 568 l 33 568 l 33 736 l 165 736 l 165 893 b 418 1131 165 1039 265 1131 b 654 904 581 1131 649 1018 l 493 904 b 421 974 489 946 465 974 b 351 897 381 974 351 946 l 351 736 l 554 736 l 554 568 m 250 1294 b 368 1413 250 1360 303 1413 b 486 1294 433 1413 486 1360 b 368 1176 486 1229 433 1176 b 250 1294 303 1176 250 1229 "},"ṁ":{"ha":1250,"x_min":0,"x_max":0,"o":"m 508 961 b 626 1079 508 1026 561 1079 b 744 961 692 1079 744 1026 b 626 843 744 896 692 843 b 508 961 561 843 508 896 m 83 0 l 83 736 l 239 736 l 239 589 b 475 756 283 707 381 756 b 701 617 583 756 664 701 b 925 756 743 707 831 756 b 1171 522 1081 756 1171 644 l 1171 0 l 983 0 l 983 457 b 864 578 983 532 940 578 b 722 442 783 578 722 522 l 722 0 l 533 0 l 533 457 b 414 578 533 532 490 578 b 272 442 333 578 272 522 l 272 0 "},"ṗ":{"ha":932,"x_min":0,"x_max":0,"o":"m 368 961 b 486 1079 368 1026 421 1079 b 604 961 551 1079 604 1026 b 486 843 604 896 551 843 b 368 961 421 843 368 896 m 883 368 b 532 -19 883 132 715 -19 b 279 119 415 -19 318 33 l 279 -278 l 90 -278 l 90 736 l 246 736 l 246 571 b 532 756 285 694 414 756 b 883 368 715 756 883 604 m 279 368 b 490 153 279 242 363 153 b 693 368 586 153 693 211 b 490 583 693 525 586 583 b 279 368 363 583 279 494 "},"ṫ":{"ha":611,"x_min":0,"x_max":0,"o":"m 542 1 b 422 -19 525 -6 481 -19 b 165 214 267 -19 165 57 l 165 568 l 33 568 l 33 736 l 165 736 l 165 924 l 351 924 l 351 736 l 554 736 l 554 568 l 351 568 l 351 250 b 458 142 351 174 390 142 b 540 156 492 142 529 150 m 142 1079 b 260 1197 142 1144 194 1197 b 378 1079 325 1197 378 1144 b 260 961 378 1014 325 961 b 142 1079 194 961 142 1014 "},"ą":{"ha":800,"x_min":0,"x_max":0,"o":"m 814 -253 b 646 -297 790 -269 732 -297 b 458 -140 514 -297 458 -217 b 564 32 458 -61 507 -4 l 564 161 b 297 -19 525 44 429 -19 b 57 206 146 -19 57 85 b 315 444 57 347 139 415 l 531 481 l 531 492 b 394 603 531 554 483 603 b 247 490 306 603 253 558 l 81 490 b 399 756 90 621 183 756 b 719 464 599 756 719 640 l 719 0 b 606 -111 650 -18 606 -57 b 679 -172 606 -153 640 -172 b 761 -149 717 -172 746 -160 m 250 219 b 350 133 250 167 293 133 b 531 329 474 133 531 246 l 531 350 l 351 321 b 250 219 282 308 250 274 "},"ę":{"ha":828,"x_min":0,"x_max":0,"o":"m 661 -253 b 493 -297 638 -269 579 -297 b 306 -140 361 -297 306 -217 b 357 -14 306 -89 326 -47 b 49 368 174 15 49 158 b 421 756 49 604 217 756 b 779 368 617 756 779 614 b 772 304 779 342 775 314 l 240 304 b 426 133 250 197 317 133 b 597 233 538 133 581 183 l 774 233 b 546 -6 757 131 689 29 b 453 -111 488 -26 453 -62 b 526 -172 453 -153 488 -172 b 608 -149 564 -172 593 -160 m 585 443 b 415 603 576 547 513 603 b 243 443 318 603 251 544 "},"į":{"ha":381,"x_min":0,"x_max":0,"o":"m 379 -253 b 211 -297 356 -269 297 -297 b 24 -140 79 -297 24 -217 b 96 6 24 -78 54 -29 l 96 736 l 285 736 l 285 0 b 171 -111 215 -18 171 -57 b 244 -172 171 -153 206 -172 b 326 -149 282 -172 311 -160 m 72 961 b 190 1079 72 1026 125 1079 b 308 961 256 1079 308 1026 b 190 843 308 896 256 843 b 72 961 125 843 72 896 "},"ų":{"ha":875,"x_min":0,"x_max":0,"o":"m 879 -253 b 711 -297 856 -269 797 -297 b 524 -140 579 -297 524 -217 b 629 32 524 -61 572 -4 l 629 160 b 363 -19 589 35 486 -19 b 81 244 179 -19 81 108 l 81 736 l 269 736 l 269 306 b 421 158 269 213 325 158 b 596 325 524 158 596 224 l 596 736 l 785 736 l 785 0 b 671 -111 715 -18 671 -57 b 744 -172 671 -153 706 -172 b 826 -149 782 -172 811 -160 "},"Ą":{"ha":1056,"x_min":0,"x_max":0,"o":"m 1124 -253 b 956 -297 1100 -269 1042 -297 b 768 -140 824 -297 768 -217 b 817 -17 768 -90 788 -50 l 725 238 l 324 238 l 239 0 l 26 0 l 432 1083 l 624 1083 l 1029 0 b 915 -111 960 -18 915 -57 b 989 -172 915 -153 950 -172 b 1071 -149 1026 -172 1056 -160 m 525 818 l 439 558 l 389 418 l 661 418 l 611 558 "},"Ę":{"ha":986,"x_min":0,"x_max":0,"o":"m 1011 -253 b 843 -297 988 -269 929 -297 b 656 -140 711 -297 656 -217 b 721 0 656 -82 683 -35 l 111 0 l 111 1083 l 889 1083 l 889 903 l 306 903 l 306 646 l 833 646 l 833 465 l 306 465 l 306 181 l 917 181 l 917 0 b 803 -111 847 -18 803 -57 b 876 -172 803 -153 838 -172 b 958 -149 914 -172 943 -160 "},"Į":{"ha":444,"x_min":0,"x_max":0,"o":"m 414 -253 b 246 -297 390 -269 332 -297 b 58 -140 114 -297 58 -217 b 125 1 58 -81 86 -33 l 125 1083 l 319 1083 l 319 0 b 206 -111 250 -18 206 -57 b 279 -172 206 -153 240 -172 b 361 -149 317 -172 346 -160 "},"Ų":{"ha":1089,"x_min":0,"x_max":0,"o":"m 783 -253 b 615 -297 760 -269 701 -297 b 428 -140 483 -297 428 -217 b 478 -15 428 -89 447 -49 b 97 428 247 11 97 182 l 97 1083 l 292 1083 l 292 414 b 544 161 292 264 394 161 b 797 414 694 161 797 264 l 797 1083 l 992 1083 l 992 428 b 675 -3 992 206 869 50 b 575 -111 614 -19 575 -58 b 649 -172 575 -153 610 -172 b 731 -149 686 -172 715 -160 "},"ł":{"ha":611,"x_min":0,"x_max":0,"o":"m 49 501 l 194 574 l 194 1111 l 383 1111 l 383 668 l 557 756 l 557 578 l 383 490 l 383 0 l 194 0 l 194 396 l 49 324 "},"œ":{"ha":1421,"x_min":0,"x_max":0,"o":"m 1021 -19 b 736 118 893 -19 796 31 b 442 -19 675 31 574 -19 b 49 368 211 -19 49 133 b 442 756 49 603 211 756 b 738 615 575 756 676 704 b 1014 756 799 704 894 756 b 1372 368 1210 756 1372 614 b 1365 304 1372 342 1368 314 l 833 304 b 1019 133 843 197 910 133 b 1190 233 1131 133 1174 183 l 1367 233 b 1021 -19 1346 107 1247 -19 m 442 158 b 642 368 561 158 642 240 b 442 578 642 496 561 578 b 242 368 322 578 242 496 b 442 158 242 240 322 158 m 1178 443 b 1008 603 1169 547 1106 603 b 836 443 911 603 844 544 "},"ģ":{"ha":908,"x_min":0,"x_max":0,"o":"m 531 1025 b 450 997 497 1024 458 1010 b 519 918 490 990 519 958 b 435 833 519 871 482 833 b 346 940 388 833 346 872 b 531 1089 346 1006 392 1083 m 636 385 b 435 585 636 504 563 585 b 239 385 340 585 239 521 b 435 186 239 250 340 186 b 636 385 563 186 636 267 m 636 125 b 400 14 593 61 511 14 b 50 385 215 14 50 164 b 400 756 50 606 215 756 b 667 599 533 756 621 689 l 667 736 l 822 736 l 822 24 b 440 -297 822 -171 665 -297 b 67 -22 213 -297 81 -176 l 250 -22 b 440 -144 263 -81 311 -144 b 636 7 571 -144 636 -74 "},"®":{"ha":514,"x_min":0,"x_max":0,"o":"m 56 924 b 257 1125 56 1035 146 1125 b 458 924 368 1125 458 1035 b 257 722 458 813 368 722 b 56 924 146 722 56 813 m 93 924 b 257 760 93 833 167 760 b 421 924 347 760 421 833 b 257 1088 421 1014 347 1088 b 93 924 167 1088 93 1014 m 226 806 l 171 806 l 171 1042 l 279 1042 b 353 967 328 1042 353 1004 b 301 894 353 935 335 904 l 356 806 l 293 806 l 243 892 l 226 892 m 271 942 b 296 967 290 942 296 954 b 271 992 296 979 290 992 l 226 992 l 226 942 "},"™":{"ha":833,"x_min":0,"x_max":0,"o":"m 222 736 l 136 736 l 136 1031 l 25 1031 l 25 1111 l 333 1111 l 333 1031 l 222 1031 m 492 896 l 475 951 l 476 874 l 476 736 l 392 736 l 392 1111 l 503 1111 l 560 954 l 588 868 l 617 954 l 674 1111 l 782 1111 l 782 736 l 699 736 l 699 874 l 700 951 l 682 896 l 625 736 l 550 736 "},"℠":{"ha":833,"x_min":0,"x_max":0,"o":"m 190 1038 b 150 1008 161 1038 150 1026 b 206 967 150 988 160 976 b 332 847 296 949 332 917 b 192 728 332 764 265 728 b 50 856 108 728 53 765 l 138 856 b 192 808 139 828 161 808 b 243 846 224 808 243 826 b 186 890 243 868 235 882 b 63 1006 121 903 63 926 b 190 1118 63 1082 114 1118 b 324 1000 290 1118 321 1065 l 236 1000 b 190 1038 235 1024 228 1038 m 492 896 l 475 951 l 476 874 l 476 736 l 392 736 l 392 1111 l 503 1111 l 560 954 l 588 868 l 617 954 l 674 1111 l 782 1111 l 782 736 l 699 736 l 699 874 l 700 951 l 682 896 l 625 736 l 550 736 "},"ª":{"ha":601,"x_min":0,"x_max":0,"o":"m 556 226 l 50 226 l 50 367 l 556 367 m 49 896 b 300 1103 58 1013 136 1103 b 556 876 465 1103 556 1013 l 556 528 l 428 528 l 428 646 b 219 511 403 564 333 511 b 29 679 101 511 29 586 b 236 860 29 788 104 838 l 403 888 l 403 897 b 303 988 403 947 376 988 b 201 896 235 988 204 946 m 193 693 b 269 625 193 647 225 625 b 403 768 351 625 403 688 l 403 793 l 271 771 b 193 693 225 763 193 742 "},"º":{"ha":658,"x_min":0,"x_max":0,"o":"m 183 807 b 329 649 183 704 251 649 b 475 807 407 649 475 704 b 329 965 475 910 407 965 b 183 807 251 965 183 910 m 633 807 b 329 511 633 624 497 511 b 25 807 161 511 25 624 b 329 1103 25 989 161 1103 b 633 807 497 1103 633 989 m 600 226 l 58 226 l 58 367 l 600 367 "},"₀":{"ha":417,"x_min":0,"x_max":0,"o":"m 129 243 b 208 81 129 131 154 81 b 289 243 263 81 289 131 b 208 406 289 356 263 406 b 129 243 154 406 129 356 m 388 243 b 208 -10 388 82 331 -10 b 31 243 88 -10 31 82 b 208 497 31 406 88 497 b 388 243 331 497 388 406 "},"₁":{"ha":417,"x_min":0,"x_max":0,"o":"m 378 0 l 39 0 l 39 90 l 161 90 l 161 354 b 32 294 161 354 108 307 l 32 385 b 189 497 124 408 189 497 l 261 497 l 261 90 l 378 90 "},"₂":{"ha":417,"x_min":0,"x_max":0,"o":"m 26 68 b 221 204 79 96 165 144 b 282 333 260 243 282 288 b 208 406 282 381 253 406 b 132 335 168 406 136 386 l 35 335 b 208 497 40 435 97 497 b 381 338 308 497 381 442 b 301 175 381 272 349 221 b 172 88 257 132 201 100 l 389 90 l 389 0 l 26 0 "},"₃":{"ha":417,"x_min":0,"x_max":0,"o":"m 210 -10 b 31 153 94 -10 38 56 l 128 153 b 210 81 132 106 161 81 b 286 146 254 81 286 107 b 210 208 286 190 257 208 l 139 208 l 139 293 l 210 293 b 274 350 250 293 274 315 b 208 406 274 382 250 406 b 136 335 168 406 140 386 l 39 335 b 208 497 46 433 100 497 b 372 360 308 497 372 439 b 289 254 372 310 346 267 b 385 133 358 238 385 193 b 210 -10 385 54 321 -10 "},"₄":{"ha":417,"x_min":0,"x_max":0,"o":"m 347 331 l 347 182 l 394 182 l 394 92 l 347 92 l 347 0 l 249 0 l 249 92 l 22 92 l 22 156 b 179 488 126 256 167 379 l 272 488 b 136 179 264 386 225 254 l 249 182 l 249 293 "},"₅":{"ha":417,"x_min":0,"x_max":0,"o":"m 207 -10 b 24 153 88 -10 32 61 l 121 153 b 207 81 126 101 163 81 b 293 163 261 81 293 115 b 208 244 293 210 261 244 b 124 200 164 244 138 225 l 38 231 l 54 488 l 365 488 l 371 397 l 144 397 l 136 288 b 235 331 158 314 193 331 b 392 161 329 331 392 253 b 207 -10 392 68 326 -10 "},"₆":{"ha":417,"x_min":0,"x_max":0,"o":"m 290 154 b 213 226 290 196 263 226 b 136 154 163 226 136 196 b 213 81 136 113 163 81 b 290 154 263 81 290 113 m 224 497 b 385 335 335 497 389 421 l 288 335 b 221 406 289 383 263 406 b 129 253 167 406 131 369 b 238 317 147 293 188 317 b 390 154 325 317 390 254 b 215 -10 390 63 324 -10 b 31 243 83 -10 31 92 b 224 497 31 414 104 497 "},"₇":{"ha":417,"x_min":0,"x_max":0,"o":"m 125 0 b 264 397 125 150 201 335 l 114 397 l 114 335 l 22 335 l 22 488 l 399 488 l 399 425 b 224 0 279 314 224 135 "},"₈":{"ha":417,"x_min":0,"x_max":0,"o":"m 208 293 b 274 350 249 293 274 314 b 208 406 274 381 250 406 b 144 350 168 406 144 381 b 208 293 144 314 168 293 m 208 81 b 285 144 254 81 285 107 b 208 208 285 183 256 208 b 132 144 163 208 132 183 b 208 81 132 107 163 81 m 208 -10 b 33 138 93 -10 33 50 b 117 254 33 196 65 243 b 46 357 74 265 46 303 b 208 497 46 438 110 497 b 372 357 308 497 372 438 b 300 254 372 303 343 265 b 383 138 351 243 383 196 b 208 -10 383 50 324 -10 "},"₉":{"ha":417,"x_min":0,"x_max":0,"o":"m 132 333 b 210 261 132 292 160 261 b 288 333 260 261 288 292 b 210 406 288 375 260 406 b 132 333 160 406 132 375 m 197 -10 b 32 153 86 -10 28 63 l 129 153 b 199 81 128 101 158 81 b 294 235 256 81 293 118 b 186 171 276 194 236 171 b 33 333 99 171 33 233 b 208 497 33 425 99 497 b 393 243 340 497 393 396 b 197 -10 393 74 317 -10 "},"₊":{"ha":417,"x_min":0,"x_max":0,"o":"m 164 199 l 36 199 l 36 289 l 164 289 l 164 417 l 254 417 l 254 289 l 382 289 l 382 199 l 254 199 l 254 71 l 164 71 "},"₋":{"ha":417,"x_min":0,"x_max":0,"o":"m 36 199 l 36 289 l 382 289 l 382 199 "},"₌":{"ha":417,"x_min":0,"x_max":0,"o":"m 36 118 l 36 207 l 382 207 l 382 118 m 36 281 l 36 369 l 382 369 l 382 281 "},"₍":{"ha":243,"x_min":0,"x_max":0,"o":"m 28 243 b 156 550 28 444 128 532 l 218 488 b 129 243 197 472 129 399 b 218 0 129 89 197 15 l 156 -62 b 28 243 128 -44 28 43 "},"₎":{"ha":243,"x_min":0,"x_max":0,"o":"m 215 243 b 88 -62 215 43 115 -44 l 25 0 b 114 243 46 15 114 89 b 25 488 114 399 46 472 l 88 550 b 215 243 115 532 215 444 "},"⁄":{"ha":278,"x_min":0,"x_max":0,"o":"m -239 0 l 400 1083 l 517 1083 l -122 0 "},"⁰":{"ha":417,"x_min":0,"x_max":0,"o":"m 129 839 b 208 676 129 726 154 676 b 289 839 263 676 289 726 b 208 1001 289 951 263 1001 b 129 839 154 1001 129 951 m 388 839 b 208 586 388 678 331 586 b 31 839 88 586 31 678 b 208 1093 31 1001 88 1093 b 388 839 331 1093 388 1001 "},"¹":{"ha":417,"x_min":0,"x_max":0,"o":"m 378 596 l 39 596 l 39 686 l 161 686 l 161 950 b 32 890 161 950 108 903 l 32 981 b 189 1093 124 1004 189 1093 l 261 1093 l 261 686 l 378 686 "},"²":{"ha":417,"x_min":0,"x_max":0,"o":"m 26 664 b 221 800 79 692 165 740 b 282 929 260 839 282 883 b 208 1001 282 976 253 1001 b 132 931 168 1001 136 982 l 35 931 b 208 1093 40 1031 97 1093 b 381 933 308 1093 381 1038 b 301 771 381 868 349 817 b 172 683 257 728 201 696 l 389 686 l 389 596 l 26 596 "},"³":{"ha":417,"x_min":0,"x_max":0,"o":"m 210 586 b 31 749 94 586 38 651 l 128 749 b 210 676 132 701 161 676 b 286 742 254 676 286 703 b 210 804 286 786 257 804 l 139 804 l 139 889 l 210 889 b 274 946 250 889 274 911 b 208 1001 274 978 250 1001 b 136 931 168 1001 140 982 l 39 931 b 208 1093 46 1029 100 1093 b 372 956 308 1093 372 1035 b 289 850 372 906 346 863 b 385 729 358 833 385 789 b 210 586 385 650 321 586 "},"⁴":{"ha":417,"x_min":0,"x_max":0,"o":"m 347 926 l 347 778 l 394 778 l 394 688 l 347 688 l 347 596 l 249 596 l 249 688 l 22 688 l 22 751 b 179 1083 126 851 167 975 l 272 1083 b 136 775 264 982 225 850 l 249 778 l 249 889 "},"⁵":{"ha":417,"x_min":0,"x_max":0,"o":"m 207 586 b 24 749 88 586 32 657 l 121 749 b 207 676 126 697 163 676 b 293 758 261 676 293 711 b 208 840 293 806 261 840 b 124 796 164 840 138 821 l 38 826 l 54 1083 l 365 1083 l 371 993 l 144 993 l 136 883 b 235 926 158 910 193 926 b 392 757 329 926 392 849 b 207 586 392 664 326 586 "},"⁶":{"ha":417,"x_min":0,"x_max":0,"o":"m 224 1093 b 385 931 335 1093 389 1017 l 288 931 b 221 1001 289 979 263 1001 b 129 849 167 1001 131 965 b 238 913 147 889 188 913 b 390 750 325 913 390 850 b 215 586 390 658 324 586 b 31 839 83 586 31 688 b 224 1093 31 1010 104 1093 m 290 750 b 213 822 290 792 263 822 b 136 750 163 822 136 792 b 213 676 136 708 163 676 b 290 750 263 676 290 708 "},"⁷":{"ha":417,"x_min":0,"x_max":0,"o":"m 125 596 b 264 993 125 746 201 931 l 114 993 l 114 931 l 22 931 l 22 1083 l 399 1083 l 399 1021 b 224 596 279 910 224 731 "},"⁸":{"ha":417,"x_min":0,"x_max":0,"o":"m 208 889 b 274 946 249 889 274 910 b 208 1001 274 976 250 1001 b 144 946 168 1001 144 976 b 208 889 144 910 168 889 m 208 676 b 285 740 254 676 285 703 b 208 804 285 779 256 804 b 132 740 163 804 132 779 b 208 676 132 703 163 676 m 208 586 b 33 733 93 586 33 646 b 117 850 33 792 65 839 b 46 953 74 861 46 899 b 208 1093 46 1033 110 1093 b 372 953 308 1093 372 1033 b 300 850 372 899 343 861 b 383 733 351 839 383 792 b 208 586 383 646 324 586 "},"⁹":{"ha":417,"x_min":0,"x_max":0,"o":"m 197 586 b 32 749 86 586 28 658 l 129 749 b 199 676 128 697 158 676 b 294 831 256 676 293 714 b 186 767 276 790 236 767 b 33 929 99 767 33 829 b 208 1093 33 1021 99 1093 b 393 839 340 1093 393 992 b 197 586 393 669 317 586 m 132 929 b 210 857 132 888 160 857 b 288 929 260 857 288 888 b 210 1001 288 971 260 1001 b 132 929 160 1001 132 971 "},"⁺":{"ha":417,"x_min":0,"x_max":0,"o":"m 164 794 l 36 794 l 36 885 l 164 885 l 164 1013 l 254 1013 l 254 885 l 382 885 l 382 794 l 254 794 l 254 667 l 164 667 "},"⁻":{"ha":417,"x_min":0,"x_max":0,"o":"m 36 794 l 36 885 l 382 885 l 382 794 "},"⁼":{"ha":417,"x_min":0,"x_max":0,"o":"m 36 714 l 36 803 l 382 803 l 382 714 m 36 876 l 36 965 l 382 965 l 382 876 "},"⁽":{"ha":243,"x_min":0,"x_max":0,"o":"m 28 839 b 156 1146 28 1040 128 1128 l 218 1083 b 129 839 197 1068 129 994 b 218 596 129 685 197 611 l 156 533 b 28 839 128 551 28 639 "},"⁾":{"ha":243,"x_min":0,"x_max":0,"o":"m 215 839 b 88 533 215 639 115 551 l 25 596 b 114 839 46 611 114 685 b 25 1083 114 994 46 1068 l 88 1146 b 215 839 115 1128 215 1040 "},"₡":{"ha":903,"x_min":0,"x_max":0,"o":"m 679 919 b 847 647 783 865 840 768 l 656 647 b 628 722 653 675 643 701 l 519 297 b 656 436 599 311 649 363 l 847 436 b 474 118 838 251 710 119 l 443 0 l 332 0 l 364 128 b 325 139 351 131 338 135 l 290 0 l 179 0 l 226 185 b 53 542 117 256 53 379 b 426 963 53 786 201 944 l 457 1083 l 568 1083 l 536 961 b 576 954 550 960 564 957 l 610 1083 l 721 1083 m 244 542 b 281 396 244 485 257 435 l 376 772 b 244 542 294 738 244 654 m 532 783 b 492 789 519 786 506 788 l 369 313 b 408 300 382 307 394 303 l 532 783 "},"₢":{"ha":903,"x_min":0,"x_max":0,"o":"m 493 928 b 246 542 358 928 246 810 b 353 210 246 376 288 268 l 353 667 l 514 667 l 514 549 b 686 686 536 635 599 686 b 860 444 785 686 860 601 l 682 444 b 617 525 682 493 656 525 b 542 410 565 525 542 482 l 542 160 b 668 300 614 175 664 222 l 860 300 b 496 -19 856 117 729 -19 b 54 542 226 -19 54 192 b 496 1103 54 892 226 1103 b 860 783 729 1103 856 967 l 668 783 b 493 928 664 876 592 928 "},"₦":{"ha":903,"x_min":0,"x_max":0,"o":"m 153 507 l 153 576 l 42 576 l 42 715 l 153 715 l 153 1083 l 339 1083 l 483 715 l 561 715 l 561 1083 l 750 1083 l 750 715 l 861 715 l 861 576 l 750 576 l 750 507 l 861 507 l 861 368 l 750 368 l 750 0 l 564 0 l 418 368 l 342 368 l 342 0 l 153 0 l 153 368 l 42 368 l 42 507 m 564 576 l 539 576 l 567 507 m 338 507 l 364 507 l 336 576 "},"₪":{"ha":903,"x_min":0,"x_max":0,"o":"m 250 0 l 97 0 l 97 1083 l 383 1083 b 628 846 536 1083 628 983 l 628 196 l 475 196 l 475 860 b 411 931 475 899 444 931 l 250 931 m 435 153 l 596 153 b 660 224 629 153 660 185 l 660 1083 l 813 1083 l 813 238 b 568 0 813 100 721 0 l 282 0 l 282 888 l 435 888 "}," ":{"ha":319,"x_min":0,"x_max":0,"o":""}," ":{"ha":653,"x_min":0,"x_max":0,"o":""}," ":{"ha":1306,"x_min":0,"x_max":0,"o":""}," ":{"ha":435,"x_min":0,"x_max":0,"o":""}," ":{"ha":326,"x_min":0,"x_max":0,"o":""}," ":{"ha":217,"x_min":0,"x_max":0,"o":""}," ":{"ha":903,"x_min":0,"x_max":0,"o":""}," ":{"ha":317,"x_min":0,"x_max":0,"o":""}," ":{"ha":158,"x_min":0,"x_max":0,"o":""}," ":{"ha":79,"x_min":0,"x_max":0,"o":""},"​":{"ha":0,"x_min":0,"x_max":0,"o":""},"≡":{"ha":903,"x_min":0,"x_max":0,"o":"m 69 107 l 69 282 l 833 282 l 833 107 m 69 454 l 69 629 l 833 629 l 833 454 m 69 801 l 69 976 l 833 976 l 833 801 "},"₱":{"ha":903,"x_min":0,"x_max":0,"o":"m 153 638 l 153 707 l 42 707 l 42 846 l 153 846 l 153 1083 l 431 1083 b 756 846 592 1083 708 997 l 861 846 l 861 707 l 779 707 b 781 672 781 696 781 683 b 779 638 781 660 781 649 l 861 638 l 861 499 l 756 499 b 431 261 708 346 592 261 l 347 261 l 347 0 l 153 0 l 153 499 l 42 499 l 42 638 m 583 672 b 582 707 583 683 582 696 l 347 707 l 347 638 l 582 638 b 583 672 582 649 583 660 m 408 442 b 543 499 468 442 514 457 l 347 499 l 347 442 m 347 846 l 543 846 b 408 903 514 888 468 903 l 347 903 "},"฿":{"ha":903,"x_min":0,"x_max":0,"o":"m 521 140 l 521 0 l 382 0 l 382 140 l 83 140 l 83 943 l 382 943 l 382 1083 l 521 1083 l 521 943 l 551 943 b 807 714 699 943 807 861 b 717 561 807 647 779 596 b 833 386 793 531 833 478 b 561 140 833 231 733 140 m 382 321 l 382 463 l 275 463 l 275 321 m 521 463 l 521 321 l 567 321 b 639 396 606 321 639 343 b 567 463 639 443 597 463 m 275 640 l 382 640 l 382 763 l 275 763 m 521 763 l 521 640 l 551 640 b 611 700 585 640 611 664 b 554 763 611 739 588 763 "},"₩":{"ha":1319,"x_min":0,"x_max":0,"o":"m 42 715 l 104 715 l 42 1083 l 240 1083 l 296 715 l 460 715 l 536 1083 l 783 1083 l 861 715 l 1025 715 l 1079 1083 l 1278 1083 l 1218 715 l 1278 715 l 1278 576 l 1194 576 l 1183 507 l 1278 507 l 1278 368 l 1161 368 l 1101 0 l 838 0 l 761 368 l 563 368 l 489 0 l 225 0 l 163 368 l 42 368 l 42 507 l 139 507 l 128 576 l 42 576 m 590 507 l 732 507 l 718 576 l 604 576 m 328 507 l 418 507 l 432 576 l 318 576 m 906 507 l 996 507 l 1006 576 l 892 576 m 632 715 l 689 715 l 660 857 m 367 256 l 389 368 l 349 368 m 960 256 l 975 368 l 936 368 "},"Ţ":{"ha":917,"x_min":0,"x_max":0,"o":"m 556 0 l 361 0 l 361 903 l 28 903 l 28 1083 l 889 1083 l 889 903 l 556 903 m 347 -151 b 425 -175 363 -162 396 -175 b 488 -147 467 -175 488 -165 b 400 -97 488 -118 446 -103 l 438 -24 b 626 -175 549 -40 626 -83 b 447 -297 626 -235 571 -297 b 296 -253 361 -297 319 -269 "},"ţ":{"ha":611,"x_min":0,"x_max":0,"o":"m 542 1 b 422 -19 525 -6 481 -19 b 165 214 267 -19 165 57 l 165 568 l 33 568 l 33 736 l 165 736 l 165 924 l 351 924 l 351 736 l 554 736 l 554 568 l 351 568 l 351 250 b 458 142 351 174 390 142 b 540 156 492 142 529 150 m 215 -151 b 293 -175 231 -162 264 -175 b 356 -147 335 -175 356 -165 b 268 -97 356 -118 314 -103 l 306 -24 b 494 -175 417 -40 494 -83 b 315 -297 494 -235 439 -297 b 164 -253 229 -297 188 -269 "},"₫":{"ha":903,"x_min":0,"x_max":0,"o":"m 335 803 b 522 714 428 803 490 760 l 522 865 l 349 865 l 349 978 l 522 978 l 522 1083 l 683 1083 l 683 978 l 846 978 l 846 865 l 683 865 l 683 208 l 539 208 l 539 313 b 335 199 513 254 443 199 b 57 500 194 199 57 313 b 335 803 57 689 194 803 m 846 111 l 846 0 l 57 0 l 57 111 m 524 500 b 374 660 524 604 460 660 b 225 500 286 660 225 594 b 374 340 225 407 286 340 b 524 500 460 340 524 397 "},"₭":{"ha":903,"x_min":0,"x_max":0,"o":"m 576 472 l 865 0 l 644 0 l 369 472 l 347 472 l 347 0 l 153 0 l 153 472 l 42 472 l 42 611 l 153 611 l 153 1083 l 347 1083 l 347 611 l 361 611 l 636 1083 l 857 1083 l 568 611 l 861 611 l 861 472 "},"₲":{"ha":903,"x_min":0,"x_max":0,"o":"m 407 -11 b 54 542 189 31 54 232 b 407 1094 54 851 189 1051 l 407 1278 l 546 1278 l 546 1100 b 860 783 747 1082 856 953 l 668 783 b 546 922 664 858 617 907 l 546 158 b 661 203 600 167 639 185 l 661 350 l 594 350 l 594 531 l 854 531 l 854 111 b 546 -17 801 56 699 -6 l 546 -194 l 407 -194 m 246 542 b 407 174 246 333 313 215 l 407 910 b 246 542 313 867 246 750 "},"₴":{"ha":903,"x_min":0,"x_max":0,"o":"m 453 917 b 336 821 358 917 342 881 l 143 821 b 453 1097 147 971 218 1097 b 754 818 631 1097 754 1007 b 733 715 754 779 747 746 l 861 715 l 861 576 l 618 576 b 519 507 588 551 553 528 l 861 507 l 861 368 l 346 368 b 315 276 326 340 315 311 b 449 163 315 207 369 163 b 588 282 532 163 585 211 l 782 282 b 449 -17 775 74 651 -17 b 121 278 274 -17 121 72 b 136 368 121 311 126 340 l 42 368 l 42 507 l 238 507 b 331 576 267 532 297 554 l 42 576 l 42 715 l 515 715 b 560 824 543 746 560 781 b 453 917 560 888 524 917 "},"₵":{"ha":903,"x_min":0,"x_max":0,"o":"m 407 -11 b 54 542 189 31 54 232 b 407 1094 54 851 189 1051 l 407 1278 l 546 1278 l 546 1100 b 860 783 747 1082 856 953 l 668 783 b 546 922 664 858 617 907 l 546 161 b 668 300 617 176 664 224 l 860 300 b 546 -17 856 131 747 0 l 546 -194 l 407 -194 m 246 542 b 407 174 246 333 313 215 l 407 910 b 246 542 313 867 246 750 "},"₨":{"ha":903,"x_min":0,"x_max":0,"o":"m 704 672 b 494 438 683 554 606 471 l 768 0 l 543 0 l 243 490 l 243 581 l 358 581 b 507 672 428 581 483 614 l 42 672 l 42 811 l 507 811 b 358 903 483 869 428 903 l 42 903 l 42 1083 l 861 1083 l 861 944 l 647 944 b 704 811 675 907 694 863 l 861 811 l 861 672 "},"₼":{"ha":903,"x_min":0,"x_max":0,"o":"m 369 763 b 256 600 300 750 256 674 l 256 0 l 67 0 l 67 600 b 369 944 67 799 175 922 l 369 1083 l 558 1083 l 558 944 b 861 600 753 922 861 799 l 861 0 l 672 0 l 672 600 b 558 763 672 674 628 750 l 558 0 l 369 0 "},"←":{"ha":1194,"x_min":0,"x_max":0,"o":"m 375 629 l 1139 629 l 1139 454 l 375 454 l 721 110 l 597 -14 l 42 542 l 597 1097 l 721 974 "},"→":{"ha":1194,"x_min":0,"x_max":0,"o":"m 474 110 l 819 454 l 56 454 l 56 629 l 819 629 l 474 974 l 597 1097 l 1153 542 l 597 -14 "},"↑":{"ha":1194,"x_min":0,"x_max":0,"o":"m 685 764 l 685 0 l 510 0 l 510 764 l 165 418 l 42 542 l 597 1097 l 1153 542 l 1029 418 "},"↓":{"ha":1194,"x_min":0,"x_max":0,"o":"m 165 665 l 510 319 l 510 1083 l 685 1083 l 685 319 l 1029 665 l 1153 542 l 597 -14 l 42 542 "},"↖":{"ha":1194,"x_min":0,"x_max":0,"o":"m 229 785 l 229 0 l 56 0 l 56 1083 l 1139 1083 l 1139 910 l 354 910 l 1153 110 l 1029 -14 "},"↗":{"ha":1194,"x_min":0,"x_max":0,"o":"m 965 0 l 965 785 l 165 -14 l 42 110 l 840 910 l 56 910 l 56 1083 l 1139 1083 l 1139 0 "},"↘":{"ha":1194,"x_min":0,"x_max":0,"o":"m 229 299 l 1029 1097 l 1153 974 l 354 174 l 1139 174 l 1139 0 l 56 0 l 56 1083 l 229 1083 "},"↙":{"ha":1194,"x_min":0,"x_max":0,"o":"m 965 299 l 965 1083 l 1139 1083 l 1139 0 l 56 0 l 56 174 l 840 174 l 42 974 l 165 1097 "},"○":{"ha":1361,"x_min":0,"x_max":0,"o":"m 119 542 b 681 1103 119 851 371 1103 b 1242 542 990 1103 1242 851 b 681 -19 1242 232 990 -19 b 119 542 371 -19 119 232 m 294 542 b 681 156 294 329 468 156 b 1067 542 893 156 1067 329 b 681 928 1067 754 893 928 b 294 542 468 928 294 754 "},"◯":{"ha":1361,"x_min":0,"x_max":0,"o":"m 119 542 b 681 -19 119 232 371 -19 b 1242 542 990 -19 1242 232 b 681 1103 1242 851 990 1103 b 119 542 371 1103 119 851 m 294 542 b 681 928 294 754 468 928 b 1067 542 893 928 1067 754 b 681 156 1067 329 893 156 b 294 542 468 156 294 329 "},"●":{"ha":1361,"x_min":0,"x_max":0,"o":"m 119 542 b 681 1103 119 851 371 1103 b 1242 542 990 1103 1242 851 b 681 -19 1242 232 990 -19 b 119 542 371 -19 119 232 "},"⚪":{"ha":1014,"x_min":0,"x_max":0,"o":"m 119 368 b 507 756 119 582 293 756 b 894 368 721 756 894 582 b 507 -19 894 154 721 -19 b 119 368 293 -19 119 154 m 294 368 b 507 156 294 251 390 156 b 719 368 624 156 719 251 b 507 581 719 485 624 581 b 294 368 390 581 294 485 "},"⚫":{"ha":1014,"x_min":0,"x_max":0,"o":"m 119 368 b 507 756 119 582 293 756 b 894 368 721 756 894 582 b 507 -19 894 154 721 -19 b 119 368 293 -19 119 154 "},"■":{"ha":1361,"x_min":0,"x_max":0,"o":"m 1222 0 l 139 0 l 139 1083 l 1222 1083 "},"□":{"ha":1361,"x_min":0,"x_max":0,"o":"m 139 1083 l 1222 1083 l 1222 0 l 139 0 m 314 908 l 314 175 l 1047 175 l 1047 908 "},"⊠":{"ha":1361,"x_min":0,"x_max":0,"o":"m 139 1083 l 1222 1083 l 1222 0 l 139 0 m 314 908 l 314 175 l 1047 175 l 1047 908 m 467 207 l 346 328 l 558 542 l 346 756 l 467 876 l 681 664 l 894 876 l 1015 756 l 803 542 l 1015 328 l 894 207 l 681 419 "},"▪":{"ha":1014,"x_min":0,"x_max":0,"o":"m 875 0 l 139 0 l 139 736 l 875 736 "},"▫":{"ha":1014,"x_min":0,"x_max":0,"o":"m 139 736 l 875 736 l 875 0 l 139 0 m 314 561 l 314 175 l 700 175 l 700 561 "},"☒":{"ha":1014,"x_min":0,"x_max":0,"o":"m 139 736 l 875 736 l 875 0 l 139 0 m 314 561 l 314 175 l 700 175 l 700 561 m 453 193 l 332 314 l 385 368 l 332 422 l 453 543 l 507 490 l 561 543 l 682 422 l 629 368 l 682 314 l 561 193 l 507 246 "},"▲":{"ha":1194,"x_min":0,"x_max":0,"o":"m 597 988 l 1167 0 l 28 0 "},"▼":{"ha":1194,"x_min":0,"x_max":0,"o":"m 28 1083 l 1167 1083 l 597 96 "},"◄":{"ha":1194,"x_min":0,"x_max":0,"o":"m 1056 1111 l 1056 -28 l 69 542 "},"►":{"ha":1194,"x_min":0,"x_max":0,"o":"m 1125 542 l 139 -28 l 139 1111 "},"◤":{"ha":1194,"x_min":0,"x_max":0,"o":"m 28 1101 l 1128 806 l 322 0 "},"◥":{"ha":1194,"x_min":0,"x_max":0,"o":"m 833 0 l 28 806 l 1128 1101 "},"◢":{"ha":1194,"x_min":0,"x_max":0,"o":"m 1128 -14 l 28 282 l 833 1088 "},"◣":{"ha":1194,"x_min":0,"x_max":0,"o":"m 322 1088 l 1128 282 l 28 -14 "},"★":{"ha":1361,"x_min":0,"x_max":0,"o":"m 319 -14 l 457 413 l 96 675 l 543 675 l 681 1100 l 818 675 l 1265 675 l 904 413 l 1042 -14 l 681 250 "},"☼":{"ha":1361,"x_min":0,"x_max":0,"o":"m 1008 499 l 1229 394 l 986 415 l 1174 258 l 943 340 l 1081 139 l 882 278 l 964 49 l 807 235 l 826 -8 l 724 213 l 681 -28 l 638 213 l 535 -8 l 554 235 l 397 49 l 479 278 l 281 139 l 418 340 l 188 258 l 375 415 l 132 394 l 353 499 l 113 542 l 353 585 l 132 689 l 375 668 l 188 825 l 418 743 l 281 944 l 479 806 l 397 1035 l 554 849 l 535 1092 l 638 871 l 681 1111 l 724 871 l 826 1092 l 807 849 l 964 1035 l 882 806 l 1081 944 l 943 743 l 1174 825 l 986 668 l 1229 689 l 1008 585 l 1249 542 "},"☾":{"ha":1361,"x_min":0,"x_max":0,"o":"m 431 542 b 881 72 431 282 632 72 b 1014 93 942 72 982 81 b 681 -14 919 26 803 -14 b 125 542 374 -14 125 235 b 681 1097 125 849 374 1097 b 1014 990 803 1097 919 1057 b 881 1011 982 1003 942 1011 b 431 542 632 1011 431 801 "},"♻":{"ha":1361,"x_min":0,"x_max":0,"o":"m 269 172 l 135 406 b 106 482 118 435 106 457 b 126 551 106 510 113 526 l 167 621 l 107 654 l 349 696 l 435 465 l 375 499 l 275 325 b 257 250 263 303 257 276 b 271 172 257 207 271 172 m 381 993 b 510 1058 400 1026 449 1058 b 658 990 575 1058 638 1025 l 499 713 l 288 831 m 439 57 b 290 236 342 57 290 167 b 304 297 290 261 296 282 l 626 297 l 626 57 m 1207 369 l 1072 136 b 950 56 1044 88 1018 56 l 871 56 l 871 -12 l 714 176 l 871 365 l 871 297 l 1072 297 b 1206 371 1150 297 1206 371 m 1221 575 b 1235 511 1229 563 1235 538 b 1079 338 1235 413 1138 338 l 919 614 l 1126 738 m 565 1083 l 833 1083 b 964 1018 889 1083 931 1076 l 1004 949 l 1064 983 l 979 753 l 736 794 l 796 829 l 696 1003 b 565 1082 657 1071 565 1082 "},"♼":{"ha":1361,"x_min":0,"x_max":0,"o":"m 1236 540 b 682 -14 1236 233 989 -14 b 125 540 374 -14 125 233 b 682 1097 125 849 374 1097 b 1236 540 989 1097 1236 849 m 364 256 b 353 315 364 256 353 282 b 367 374 353 336 357 357 l 444 508 l 490 482 l 424 661 l 236 629 l 282 603 l 251 549 b 235 496 240 529 235 517 b 258 436 235 476 244 458 l 363 256 m 376 765 l 540 674 l 664 889 b 549 942 647 917 599 942 b 449 892 501 942 464 917 m 639 167 l 639 353 l 389 353 b 378 304 383 340 378 324 b 493 167 378 251 418 167 m 1088 410 b 985 353 1088 410 1044 353 l 828 353 l 828 406 l 707 258 l 828 113 l 828 165 l 890 165 b 985 228 943 165 963 190 l 1089 408 m 1026 693 l 867 597 l 990 383 b 1110 518 1035 383 1110 442 b 1100 568 1110 539 1106 558 m 592 960 b 693 899 592 960 663 951 l 771 764 l 724 738 l 913 706 l 978 883 l 932 857 l 900 911 b 799 961 875 956 842 961 l 592 961 "},"♽":{"ha":1361,"x_min":0,"x_max":0,"o":"m 153 542 b 681 14 153 250 389 14 b 1208 542 972 14 1208 250 b 681 1069 1208 833 972 1069 b 153 542 389 1069 153 833 m 1236 540 b 682 -14 1236 233 989 -14 b 125 540 374 -14 125 233 b 682 1097 125 849 374 1097 b 1236 540 989 1097 1236 849 m 363 256 l 258 436 b 235 496 244 458 235 476 b 251 549 235 517 240 529 l 282 603 l 236 629 l 424 661 l 490 482 l 444 508 l 367 374 b 353 315 357 357 353 336 b 364 256 353 282 364 256 m 449 892 b 549 942 464 917 501 942 b 664 889 599 942 647 917 l 540 674 l 376 765 m 493 167 b 378 304 418 167 378 251 b 389 353 378 324 383 340 l 639 353 l 639 167 m 1089 408 l 985 228 b 890 165 963 190 943 165 l 828 165 l 828 113 l 707 258 l 828 406 l 828 353 l 985 353 b 1088 410 1044 353 1088 410 m 1100 568 b 1110 518 1106 558 1110 539 b 990 383 1110 442 1035 383 l 867 597 l 1026 693 m 592 961 l 799 961 b 900 911 842 961 875 956 l 932 857 l 978 883 l 913 706 l 724 738 l 771 764 l 693 899 b 592 960 663 951 592 960 "},"⌂":{"ha":1361,"x_min":0,"x_max":0,"o":"m 139 0 l 139 706 l 681 1100 l 1222 706 l 1222 0 "},"♠":{"ha":1250,"x_min":0,"x_max":0,"o":"m 626 1097 b 950 778 672 1028 803 874 b 1178 464 1071 699 1178 608 b 933 222 1178 328 1069 222 b 656 446 796 222 703 331 l 651 444 b 765 0 667 257 696 139 l 485 0 b 599 444 554 139 583 257 l 594 446 b 317 222 547 331 454 222 b 72 464 181 222 72 328 b 300 778 72 608 179 699 b 624 1097 447 874 578 1028 l 626 1097 "},"♣":{"ha":1250,"x_min":0,"x_max":0,"o":"m 485 0 b 599 444 554 139 583 257 l 594 446 b 317 222 547 331 454 222 b 72 464 181 222 72 328 b 314 714 72 608 169 714 b 431 682 361 714 399 699 l 433 685 b 381 847 403 731 381 786 b 625 1097 381 985 485 1097 b 869 847 765 1097 869 985 b 817 685 869 786 847 731 l 819 682 b 936 714 851 699 889 714 b 1178 464 1081 714 1178 608 b 933 222 1178 328 1069 222 b 656 446 796 222 703 331 l 651 444 b 765 0 667 257 696 139 l 485 0 "},"♥":{"ha":1250,"x_min":0,"x_max":0,"o":"m 624 -14 b 300 393 578 56 447 226 b 72 811 204 501 72 667 b 338 1097 72 975 174 1097 b 622 879 510 1097 582 994 l 628 879 b 913 1097 668 994 740 1097 b 1178 811 1076 1097 1178 975 b 950 393 1178 667 1046 501 b 626 -14 803 226 672 56 "},"♦":{"ha":1250,"x_min":0,"x_max":0,"o":"m 1135 542 b 626 -14 938 388 750 182 l 624 -14 b 115 542 500 182 313 388 b 624 1097 313 696 500 901 l 626 1097 b 1135 542 750 901 938 696 "},"∆":{"ha":1042,"x_min":0,"x_max":0,"o":"m 35 106 l 429 1089 l 613 1089 l 1007 106 l 1007 0 l 35 0 m 272 175 l 768 175 l 521 808 "},"∞":{"ha":1167,"x_min":0,"x_max":0,"o":"m 869 269 b 583 431 750 269 683 331 b 297 269 483 331 415 269 b 26 540 147 269 26 390 b 297 811 26 690 147 811 b 583 649 415 811 483 750 b 869 811 683 750 750 811 b 1140 540 1019 811 1140 690 b 869 269 1140 390 1019 269 m 869 658 b 690 540 807 658 757 608 b 869 422 757 471 807 422 b 988 540 935 422 988 475 b 869 658 988 606 935 658 m 297 422 b 476 540 360 422 410 471 b 297 658 410 608 360 658 b 179 540 232 658 179 606 b 297 422 179 475 232 422 "},"∂":{"ha":883,"x_min":0,"x_max":0,"o":"m 835 390 b 442 -19 835 128 672 -19 b 49 368 211 -19 49 133 b 417 756 49 603 219 756 b 533 736 458 756 497 749 b 61 954 419 865 261 922 l 108 1131 b 835 390 538 1064 835 819 m 442 158 b 642 368 561 158 642 240 b 442 578 642 496 561 578 b 242 368 322 578 242 496 b 442 158 242 240 322 158 "},"∫":{"ha":389,"x_min":0,"x_max":0,"o":"m 289 -82 b 51 -297 289 -208 199 -297 b -162 -90 -96 -297 -158 -200 l 8 -90 b 54 -136 8 -117 25 -136 b 100 -90 83 -136 100 -117 l 100 915 b 338 1131 100 1042 190 1131 b 551 924 485 1131 547 1033 l 381 924 b 335 969 381 950 364 969 b 289 924 306 969 289 950 "},"√":{"ha":1000,"x_min":0,"x_max":0,"o":"m 439 0 l 228 0 l 33 736 l 242 736 l 363 222 l 785 1083 l 990 1083 "},"∏":{"ha":1042,"x_min":0,"x_max":0,"o":"m 378 0 l 186 0 l 186 908 l 42 908 l 42 1083 l 1000 1083 l 1000 908 l 856 908 l 856 0 l 664 0 l 664 908 l 378 908 "},"∑":{"ha":972,"x_min":0,"x_max":0,"o":"m 883 1083 l 883 908 l 396 908 l 736 622 l 736 472 l 383 175 l 896 175 l 896 0 l 76 0 l 76 147 l 549 547 l 89 936 l 89 1083 "},"◊":{"ha":1042,"x_min":0,"x_max":0,"o":"m 785 542 l 521 856 l 257 542 l 521 228 m 43 542 l 521 1111 l 999 542 l 521 -28 "},"′":{"ha":333,"x_min":0,"x_max":0,"o":"m 278 1083 l 244 736 l 56 736 l 89 1083 "},"″":{"ha":611,"x_min":0,"x_max":0,"o":"m 278 1083 l 244 736 l 56 736 l 89 1083 m 556 1083 l 522 736 l 333 736 l 367 1083 "},"¤":{"ha":903,"x_min":0,"x_max":0,"o":"m 97 542 b 150 728 97 610 117 674 l 42 838 l 157 953 l 267 844 b 451 896 319 876 383 896 b 636 844 518 896 582 876 l 746 953 l 861 838 l 753 728 b 806 542 786 674 806 610 b 753 354 806 472 786 408 l 861 246 l 746 131 l 636 239 b 451 188 582 206 518 188 b 267 239 383 188 319 206 l 157 131 l 42 246 l 150 354 b 97 542 117 408 97 472 m 250 542 b 451 340 250 431 340 340 b 653 542 563 340 653 431 b 451 743 653 653 563 743 b 250 542 340 743 250 653 "},"℮":{"ha":1181,"x_min":0,"x_max":0,"o":"m 263 515 b 638 35 269 272 357 35 b 1060 368 853 35 1043 147 l 1117 368 b 613 -19 1096 125 890 -19 b 43 542 271 -19 43 203 b 590 1103 43 881 271 1103 b 1138 542 910 1103 1138 881 l 1138 515 m 590 1049 b 263 569 368 1049 269 867 l 918 569 b 590 1049 911 867 811 1049 "},"№":{"ha":1728,"x_min":0,"x_max":0,"o":"m 831 344 l 825 618 l 825 1083 l 1014 1083 l 1014 0 l 842 0 l 294 739 l 300 465 l 300 0 l 111 0 l 111 1083 l 283 1083 m 1181 296 l 1181 451 l 1661 451 l 1661 296 m 1421 731 b 1532 844 1490 731 1532 776 b 1421 958 1532 913 1490 958 b 1310 844 1351 958 1310 913 b 1421 731 1310 776 1351 731 m 1421 586 b 1153 844 1261 586 1153 689 b 1421 1103 1153 1000 1261 1103 b 1689 844 1581 1103 1689 1000 b 1421 586 1689 689 1581 586 "},"♭":{"ha":667,"x_min":0,"x_max":0,"o":"m 111 1167 l 164 1167 l 164 589 b 368 750 204 694 288 750 b 585 518 508 750 585 644 b 111 -28 585 238 340 85 m 164 63 b 456 510 326 144 456 293 b 335 651 456 589 414 651 b 164 413 238 651 164 542 "},"♮":{"ha":667,"x_min":0,"x_max":0,"o":"m 556 -222 l 503 -222 l 503 250 l 111 97 l 111 1167 l 164 1167 l 164 694 l 556 847 m 164 264 l 503 396 l 503 681 l 164 549 "},"♯":{"ha":667,"x_min":0,"x_max":0,"o":"m 181 -222 l 181 124 l 83 86 l 83 233 l 181 271 l 181 554 l 83 517 l 83 664 l 181 701 l 181 1083 l 233 1083 l 233 722 l 433 800 l 433 1167 l 486 1167 l 486 821 l 583 858 l 583 711 l 486 674 l 486 390 l 583 428 l 583 281 l 486 243 l 486 -139 l 433 -139 l 433 222 l 233 144 l 233 -222 m 233 292 l 433 369 l 433 653 l 233 575 "},"ℓ":{"ha":611,"x_min":0,"x_max":0,"o":"m 579 875 b 303 350 579 692 482 515 l 303 188 b 349 142 303 161 319 142 b 394 188 378 142 394 161 l 565 188 b 351 -19 561 78 499 -19 b 114 196 204 -19 114 69 l 114 199 b 21 138 83 178 53 157 l 21 336 b 114 406 53 358 85 382 l 114 888 b 351 1103 114 1014 204 1103 b 579 875 499 1103 579 1013 m 303 599 b 394 875 361 682 394 772 b 349 942 394 924 378 942 b 303 896 319 942 303 922 "},"♩":{"ha":667,"x_min":0,"x_max":0,"o":"m 514 186 b 256 -14 514 78 375 -14 b 111 114 163 -14 111 35 b 356 314 111 222 236 314 b 461 281 401 314 436 303 l 461 1167 l 514 1167 "},"⚜":{"ha":972,"x_min":0,"x_max":0,"o":"m 486 -14 b 435 90 449 11 435 54 b 365 160 396 90 365 121 b 451 250 407 160 451 194 l 264 250 l 264 319 l 340 319 b 257 444 340 401 304 444 b 188 375 218 444 188 414 b 215 319 188 343 206 326 b 63 472 131 319 63 386 b 215 625 63 557 131 625 b 403 319 350 625 403 481 l 451 319 b 333 813 451 590 333 665 b 486 1100 333 928 396 1014 b 639 813 576 1014 639 928 b 521 319 639 665 521 590 l 569 319 b 757 625 569 481 622 625 b 910 472 842 625 910 557 b 757 319 910 386 842 319 b 785 375 767 326 785 343 b 715 444 785 414 754 444 b 632 319 668 444 632 401 l 708 319 l 708 250 l 521 250 b 607 160 521 194 565 160 b 538 90 607 121 576 90 b 486 -14 538 54 524 11 "},"a":{"ha":800,"x_min":0,"x_max":0,"o":"m 81 490 b 399 756 90 621 183 756 b 719 464 599 756 719 640 l 719 0 l 564 0 l 564 161 b 297 -19 525 44 429 -19 b 57 206 146 -19 57 85 b 315 444 57 347 139 415 l 531 481 l 531 492 b 394 603 531 554 483 603 b 247 490 306 603 253 558 m 250 219 b 350 133 250 167 293 133 b 531 329 474 133 531 246 l 531 350 l 351 321 b 250 219 282 308 250 274 "},"b":{"ha":932,"x_min":0,"x_max":0,"o":"m 883 368 b 532 -19 883 132 715 -19 b 246 165 414 -19 285 42 l 246 0 l 90 0 l 90 1111 l 279 1111 l 279 617 b 532 756 318 703 415 756 b 883 368 715 756 883 604 m 279 368 b 490 153 279 242 363 153 b 693 368 586 153 693 211 b 490 583 693 525 586 583 b 279 368 363 583 279 494 "},"c":{"ha":872,"x_min":0,"x_max":0,"o":"m 239 368 b 449 153 239 238 326 153 b 632 292 560 153 619 215 l 826 292 b 447 -19 807 129 690 -19 b 49 368 222 -19 49 133 b 447 756 49 603 222 756 b 826 444 690 756 807 607 l 632 444 b 449 583 619 521 560 583 b 239 368 326 583 239 499 "},"d":{"ha":932,"x_min":0,"x_max":0,"o":"m 49 368 b 400 756 49 604 217 756 b 653 617 517 756 614 703 l 653 1111 l 842 1111 l 842 0 l 686 0 l 686 165 b 400 -19 647 42 518 -19 b 49 368 217 -19 49 132 m 653 368 b 442 583 653 494 569 583 b 239 368 346 583 239 525 b 442 153 239 211 346 153 b 653 368 569 153 653 242 "},"e":{"ha":828,"x_min":0,"x_max":0,"o":"m 428 -19 b 49 368 207 -19 49 132 b 421 756 49 604 217 756 b 779 368 617 756 779 614 b 772 304 779 342 775 314 l 240 304 b 426 133 250 197 317 133 b 597 233 538 133 581 183 l 774 233 b 428 -19 753 107 654 -19 m 585 443 b 415 603 576 547 513 603 b 243 443 318 603 251 544 "},"f":{"ha":597,"x_min":0,"x_max":0,"o":"m 351 568 l 351 0 l 165 0 l 165 568 l 33 568 l 33 736 l 165 736 l 165 893 b 418 1131 165 1039 265 1131 b 654 904 581 1131 649 1018 l 493 904 b 421 974 489 946 465 974 b 351 897 381 974 351 946 l 351 736 l 554 736 l 554 568 "},"g":{"ha":908,"x_min":0,"x_max":0,"o":"m 636 385 b 435 585 636 504 563 585 b 239 385 340 585 239 521 b 435 186 239 250 340 186 b 636 385 563 186 636 267 m 636 125 b 400 14 593 61 511 14 b 50 385 215 14 50 164 b 400 756 50 606 215 756 b 667 599 533 756 621 689 l 667 736 l 822 736 l 822 24 b 440 -297 822 -171 665 -297 b 67 -22 213 -297 81 -176 l 250 -22 b 440 -144 263 -81 311 -144 b 636 7 571 -144 636 -74 "},"h":{"ha":869,"x_min":0,"x_max":0,"o":"m 90 1111 l 279 1111 l 279 629 b 513 756 326 717 407 756 b 794 492 696 756 794 628 l 794 0 l 606 0 l 606 431 b 454 578 606 524 550 578 b 279 411 351 578 279 513 l 279 0 l 90 0 "},"i":{"ha":381,"x_min":0,"x_max":0,"o":"m 72 961 b 190 1079 72 1026 125 1079 b 308 961 256 1079 308 1026 b 190 843 308 896 256 843 b 72 961 125 843 72 896 m 96 736 l 285 736 l 285 0 l 96 0 "},"j":{"ha":381,"x_min":0,"x_max":0,"o":"m 285 -83 b 51 -297 285 -207 197 -297 b -167 -92 -97 -297 -162 -200 l 0 -92 b 47 -139 1 -119 18 -139 b 96 -90 78 -139 96 -118 l 96 736 l 285 736 m 72 961 b 190 1079 72 1026 125 1079 b 308 961 256 1079 308 1026 b 190 843 308 896 256 843 b 72 961 125 843 72 896 "},"k":{"ha":840,"x_min":0,"x_max":0,"o":"m 90 0 l 90 1111 l 279 1111 l 279 463 l 538 736 l 803 736 l 481 426 l 839 0 l 592 0 l 354 306 l 279 233 l 279 0 "},"l":{"ha":381,"x_min":0,"x_max":0,"o":"m 96 1111 l 285 1111 l 285 0 l 96 0 "},"m":{"ha":1261,"x_min":0,"x_max":0,"o":"m 90 0 l 90 736 l 246 736 l 246 589 b 482 756 290 707 388 756 b 708 617 590 756 671 701 b 932 756 750 707 838 756 b 1178 522 1088 756 1178 644 l 1178 0 l 990 0 l 990 457 b 871 578 990 532 947 578 b 729 442 790 578 729 522 l 729 0 l 540 0 l 540 457 b 421 578 540 532 497 578 b 279 442 340 578 279 522 l 279 0 "},"n":{"ha":875,"x_min":0,"x_max":0,"o":"m 90 736 l 246 736 l 246 576 b 513 756 286 701 389 756 b 794 492 696 756 794 628 l 794 0 l 606 0 l 606 431 b 454 578 606 524 550 578 b 279 411 351 578 279 513 l 279 0 l 90 0 "},"o":{"ha":883,"x_min":0,"x_max":0,"o":"m 442 158 b 642 368 561 158 642 240 b 442 578 642 496 561 578 b 242 368 322 578 242 496 b 442 158 242 240 322 158 m 442 -19 b 49 368 211 -19 49 133 b 442 756 49 603 211 756 b 835 368 672 756 835 603 b 442 -19 835 133 672 -19 "},"p":{"ha":932,"x_min":0,"x_max":0,"o":"m 883 368 b 532 -19 883 132 715 -19 b 279 119 415 -19 318 33 l 279 -278 l 90 -278 l 90 736 l 246 736 l 246 571 b 532 756 285 694 414 756 b 883 368 715 756 883 604 m 279 368 b 490 153 279 242 363 153 b 693 368 586 153 693 211 b 490 583 693 525 586 583 b 279 368 363 583 279 494 "},"q":{"ha":932,"x_min":0,"x_max":0,"o":"m 49 368 b 400 756 49 604 217 756 b 686 571 518 756 647 694 l 686 736 l 842 736 l 842 -278 l 653 -278 l 653 119 b 400 -19 614 33 517 -19 b 49 368 217 -19 49 132 m 653 368 b 442 583 653 494 569 583 b 239 368 346 583 239 525 b 442 153 239 211 346 153 b 653 368 569 153 653 242 "},"r":{"ha":683,"x_min":0,"x_max":0,"o":"m 486 490 b 393 592 486 553 450 592 b 279 461 322 592 279 538 l 279 0 l 90 0 l 90 736 l 246 736 l 246 593 b 457 756 278 708 360 756 b 661 490 568 756 669 667 "},"s":{"ha":708,"x_min":0,"x_max":0,"o":"m 360 614 b 254 539 303 614 254 582 b 396 457 254 490 306 465 b 671 231 578 440 671 372 b 353 -19 671 85 547 -19 b 47 288 176 -19 32 71 l 214 288 b 354 122 206 178 269 122 b 490 214 447 122 490 168 b 349 306 490 268 446 296 b 74 525 156 324 74 394 b 358 756 74 682 215 756 b 639 499 518 756 654 676 l 472 499 b 360 614 475 575 431 614 "},"t":{"ha":611,"x_min":0,"x_max":0,"o":"m 351 568 l 351 250 b 458 142 351 174 390 142 b 540 156 492 142 529 150 l 542 1 b 422 -19 525 -6 481 -19 b 165 214 267 -19 165 57 l 165 568 l 33 568 l 33 736 l 165 736 l 165 924 l 351 924 l 351 736 l 554 736 l 554 568 "},"u":{"ha":875,"x_min":0,"x_max":0,"o":"m 629 0 l 629 160 b 363 -19 589 35 486 -19 b 81 244 179 -19 81 108 l 81 736 l 269 736 l 269 306 b 421 158 269 213 325 158 b 596 325 524 158 596 224 l 596 736 l 785 736 l 785 0 "},"v":{"ha":806,"x_min":0,"x_max":0,"o":"m 508 0 l 297 0 l 13 736 l 218 736 l 403 222 l 588 736 l 793 736 "},"w":{"ha":1194,"x_min":0,"x_max":0,"o":"m 858 269 l 971 736 l 1174 736 l 971 0 l 761 0 l 597 496 l 433 0 l 224 0 l 21 736 l 224 736 l 336 269 l 488 736 l 707 736 "},"x":{"ha":861,"x_min":0,"x_max":0,"o":"m 431 239 l 261 0 l 28 0 l 314 381 l 46 736 l 278 736 l 431 511 l 583 736 l 815 736 l 547 381 l 833 0 l 600 0 "},"y":{"ha":819,"x_min":0,"x_max":0,"o":"m 518 69 l 381 -278 l 164 -278 l 306 60 l 13 736 l 219 736 l 410 258 l 600 736 l 807 736 "},"z":{"ha":778,"x_min":0,"x_max":0,"o":"m 49 135 l 444 567 l 317 565 l 63 565 l 63 736 l 715 736 l 715 601 l 319 169 l 447 171 l 729 171 l 729 0 l 49 0 "},"⅟":{"ha":694,"x_min":0,"x_max":0,"o":"m 378 596 l 39 596 l 39 686 l 161 686 l 161 950 b 32 890 161 950 108 903 l 32 981 b 189 1093 124 1004 189 1093 l 261 1093 l 261 686 l 378 686 m 178 0 l 817 1083 l 933 1083 l 294 0 "},"½":{"ha":1111,"x_min":0,"x_max":0,"o":"m 378 596 l 39 596 l 39 686 l 161 686 l 161 950 b 32 890 161 950 108 903 l 32 981 b 189 1093 124 1004 189 1093 l 261 1093 l 261 686 l 378 686 m 178 0 l 817 1083 l 933 1083 l 294 0 m 721 68 b 915 204 774 96 860 144 b 976 333 954 243 976 288 b 903 406 976 381 947 406 b 826 335 863 406 831 386 l 729 335 b 903 497 735 435 792 497 b 1075 338 1003 497 1075 442 b 996 175 1075 272 1043 221 b 867 88 951 132 896 100 l 1083 90 l 1083 0 l 721 0 "},"⅓":{"ha":1111,"x_min":0,"x_max":0,"o":"m 378 596 l 39 596 l 39 686 l 161 686 l 161 950 b 32 890 161 950 108 903 l 32 981 b 189 1093 124 1004 189 1093 l 261 1093 l 261 686 l 378 686 m 178 0 l 817 1083 l 933 1083 l 294 0 m 904 -10 b 725 153 789 -10 732 56 l 822 153 b 904 81 826 106 856 81 b 981 146 949 81 981 107 b 904 208 981 190 951 208 l 833 208 l 833 293 l 904 293 b 968 350 944 293 968 315 b 903 406 968 382 944 406 b 831 335 863 406 835 386 l 733 335 b 903 497 740 433 794 497 b 1067 360 1003 497 1067 439 b 983 254 1067 310 1040 267 b 1079 133 1053 238 1079 193 b 904 -10 1079 54 1015 -10 "},"⅔":{"ha":1111,"x_min":0,"x_max":0,"o":"m 26 664 b 221 800 79 692 165 740 b 282 929 260 839 282 883 b 208 1001 282 976 253 1001 b 132 931 168 1001 136 982 l 35 931 b 208 1093 40 1031 97 1093 b 381 933 308 1093 381 1038 b 301 771 381 868 349 817 b 172 683 257 728 201 696 l 389 686 l 389 596 l 26 596 m 178 0 l 817 1083 l 933 1083 l 294 0 m 904 -10 b 725 153 789 -10 732 56 l 822 153 b 904 81 826 106 856 81 b 981 146 949 81 981 107 b 904 208 981 190 951 208 l 833 208 l 833 293 l 904 293 b 968 350 944 293 968 315 b 903 406 968 382 944 406 b 831 335 863 406 835 386 l 733 335 b 903 497 740 433 794 497 b 1067 360 1003 497 1067 439 b 983 254 1067 310 1040 267 b 1079 133 1053 238 1079 193 b 904 -10 1079 54 1015 -10 "},"¼":{"ha":1111,"x_min":0,"x_max":0,"o":"m 378 596 l 39 596 l 39 686 l 161 686 l 161 950 b 32 890 161 950 108 903 l 32 981 b 189 1093 124 1004 189 1093 l 261 1093 l 261 686 l 378 686 m 178 0 l 817 1083 l 933 1083 l 294 0 m 1042 331 l 1042 182 l 1089 182 l 1089 92 l 1042 92 l 1042 0 l 943 0 l 943 92 l 717 92 l 717 156 b 874 488 821 256 861 379 l 967 488 b 831 179 958 386 919 254 l 943 182 l 943 293 "},"¾":{"ha":1111,"x_min":0,"x_max":0,"o":"m 210 586 b 31 749 94 586 38 651 l 128 749 b 210 676 132 701 161 676 b 286 742 254 676 286 703 b 210 804 286 786 257 804 l 139 804 l 139 889 l 210 889 b 274 946 250 889 274 911 b 208 1001 274 978 250 1001 b 136 931 168 1001 140 982 l 39 931 b 208 1093 46 1029 100 1093 b 372 956 308 1093 372 1035 b 289 850 372 906 346 863 b 385 729 358 833 385 789 b 210 586 385 650 321 586 m 178 0 l 817 1083 l 933 1083 l 294 0 m 1042 331 l 1042 182 l 1089 182 l 1089 92 l 1042 92 l 1042 0 l 943 0 l 943 92 l 717 92 l 717 156 b 874 488 821 256 861 379 l 967 488 b 831 179 958 386 919 254 l 943 182 l 943 293 "},"⅕":{"ha":1111,"x_min":0,"x_max":0,"o":"m 378 596 l 39 596 l 39 686 l 161 686 l 161 950 b 32 890 161 950 108 903 l 32 981 b 189 1093 124 1004 189 1093 l 261 1093 l 261 686 l 378 686 m 178 0 l 817 1083 l 933 1083 l 294 0 m 901 -10 b 718 153 782 -10 726 61 l 815 153 b 901 81 821 101 857 81 b 988 163 956 81 988 115 b 903 244 988 210 956 244 b 818 200 858 244 832 225 l 732 231 l 749 488 l 1060 488 l 1065 397 l 839 397 l 831 288 b 929 331 853 314 888 331 b 1086 161 1024 331 1086 253 b 901 -10 1086 68 1021 -10 "},"⅖":{"ha":1111,"x_min":0,"x_max":0,"o":"m 26 664 b 221 800 79 692 165 740 b 282 929 260 839 282 883 b 208 1001 282 976 253 1001 b 132 931 168 1001 136 982 l 35 931 b 208 1093 40 1031 97 1093 b 381 933 308 1093 381 1038 b 301 771 381 868 349 817 b 172 683 257 728 201 696 l 389 686 l 389 596 l 26 596 m 178 0 l 817 1083 l 933 1083 l 294 0 m 901 -10 b 718 153 782 -10 726 61 l 815 153 b 901 81 821 101 857 81 b 988 163 956 81 988 115 b 903 244 988 210 956 244 b 818 200 858 244 832 225 l 732 231 l 749 488 l 1060 488 l 1065 397 l 839 397 l 831 288 b 929 331 853 314 888 331 b 1086 161 1024 331 1086 253 b 901 -10 1086 68 1021 -10 "},"⅗":{"ha":1111,"x_min":0,"x_max":0,"o":"m 210 586 b 31 749 94 586 38 651 l 128 749 b 210 676 132 701 161 676 b 286 742 254 676 286 703 b 210 804 286 786 257 804 l 139 804 l 139 889 l 210 889 b 274 946 250 889 274 911 b 208 1001 274 978 250 1001 b 136 931 168 1001 140 982 l 39 931 b 208 1093 46 1029 100 1093 b 372 956 308 1093 372 1035 b 289 850 372 906 346 863 b 385 729 358 833 385 789 b 210 586 385 650 321 586 m 178 0 l 817 1083 l 933 1083 l 294 0 m 901 -10 b 718 153 782 -10 726 61 l 815 153 b 901 81 821 101 857 81 b 988 163 956 81 988 115 b 903 244 988 210 956 244 b 818 200 858 244 832 225 l 732 231 l 749 488 l 1060 488 l 1065 397 l 839 397 l 831 288 b 929 331 853 314 888 331 b 1086 161 1024 331 1086 253 b 901 -10 1086 68 1021 -10 "},"⅘":{"ha":1111,"x_min":0,"x_max":0,"o":"m 347 926 l 347 778 l 394 778 l 394 688 l 347 688 l 347 596 l 249 596 l 249 688 l 22 688 l 22 751 b 179 1083 126 851 167 975 l 272 1083 b 136 775 264 982 225 850 l 249 778 l 249 889 m 178 0 l 817 1083 l 933 1083 l 294 0 m 901 -10 b 718 153 782 -10 726 61 l 815 153 b 901 81 821 101 857 81 b 988 163 956 81 988 115 b 903 244 988 210 956 244 b 818 200 858 244 832 225 l 732 231 l 749 488 l 1060 488 l 1065 397 l 839 397 l 831 288 b 929 331 853 314 888 331 b 1086 161 1024 331 1086 253 b 901 -10 1086 68 1021 -10 "},"⅙":{"ha":1111,"x_min":0,"x_max":0,"o":"m 378 596 l 39 596 l 39 686 l 161 686 l 161 950 b 32 890 161 950 108 903 l 32 981 b 189 1093 124 1004 189 1093 l 261 1093 l 261 686 l 378 686 m 178 0 l 817 1083 l 933 1083 l 294 0 m 985 154 b 907 226 985 196 957 226 b 831 154 857 226 831 196 b 907 81 831 113 857 81 b 985 154 957 81 985 113 m 918 497 b 1079 335 1029 497 1083 421 l 982 335 b 915 406 983 383 957 406 b 824 253 861 406 825 369 b 932 317 842 293 882 317 b 1085 154 1019 317 1085 254 b 910 -10 1085 63 1018 -10 b 725 243 778 -10 725 92 b 918 497 725 414 799 497 "},"⅚":{"ha":1111,"x_min":0,"x_max":0,"o":"m 207 586 b 24 749 88 586 32 657 l 121 749 b 207 676 126 697 163 676 b 293 758 261 676 293 711 b 208 840 293 806 261 840 b 124 796 164 840 138 821 l 38 826 l 54 1083 l 365 1083 l 371 993 l 144 993 l 136 883 b 235 926 158 910 193 926 b 392 757 329 926 392 849 b 207 586 392 664 326 586 m 178 0 l 817 1083 l 933 1083 l 294 0 m 985 154 b 907 226 985 196 957 226 b 831 154 857 226 831 196 b 907 81 831 113 857 81 b 985 154 957 81 985 113 m 918 497 b 1079 335 1029 497 1083 421 l 982 335 b 915 406 983 383 957 406 b 824 253 861 406 825 369 b 932 317 842 293 882 317 b 1085 154 1019 317 1085 254 b 910 -10 1085 63 1018 -10 b 725 243 778 -10 725 92 b 918 497 725 414 799 497 "},"⅛":{"ha":1111,"x_min":0,"x_max":0,"o":"m 378 596 l 39 596 l 39 686 l 161 686 l 161 950 b 32 890 161 950 108 903 l 32 981 b 189 1093 124 1004 189 1093 l 261 1093 l 261 686 l 378 686 m 178 0 l 817 1083 l 933 1083 l 294 0 m 903 293 b 968 350 943 293 968 314 b 903 406 968 381 944 406 b 839 350 863 406 839 381 b 903 293 839 314 863 293 m 903 81 b 979 144 949 81 979 107 b 903 208 979 183 950 208 b 826 144 857 208 826 183 b 903 81 826 107 857 81 m 903 -10 b 728 138 788 -10 728 50 b 811 254 728 196 760 243 b 740 357 768 265 740 303 b 903 497 740 438 804 497 b 1067 357 1003 497 1067 438 b 994 254 1067 303 1038 265 b 1078 138 1046 243 1078 196 b 903 -10 1078 50 1018 -10 "},"⅜":{"ha":1111,"x_min":0,"x_max":0,"o":"m 210 586 b 31 749 94 586 38 651 l 128 749 b 210 676 132 701 161 676 b 286 742 254 676 286 703 b 210 804 286 786 257 804 l 139 804 l 139 889 l 210 889 b 274 946 250 889 274 911 b 208 1001 274 978 250 1001 b 136 931 168 1001 140 982 l 39 931 b 208 1093 46 1029 100 1093 b 372 956 308 1093 372 1035 b 289 850 372 906 346 863 b 385 729 358 833 385 789 b 210 586 385 650 321 586 m 178 0 l 817 1083 l 933 1083 l 294 0 m 903 293 b 968 350 943 293 968 314 b 903 406 968 381 944 406 b 839 350 863 406 839 381 b 903 293 839 314 863 293 m 903 81 b 979 144 949 81 979 107 b 903 208 979 183 950 208 b 826 144 857 208 826 183 b 903 81 826 107 857 81 m 903 -10 b 728 138 788 -10 728 50 b 811 254 728 196 760 243 b 740 357 768 265 740 303 b 903 497 740 438 804 497 b 1067 357 1003 497 1067 438 b 994 254 1067 303 1038 265 b 1078 138 1046 243 1078 196 b 903 -10 1078 50 1018 -10 "},"⅝":{"ha":1111,"x_min":0,"x_max":0,"o":"m 207 586 b 24 749 88 586 32 657 l 121 749 b 207 676 126 697 163 676 b 293 758 261 676 293 711 b 208 840 293 806 261 840 b 124 796 164 840 138 821 l 38 826 l 54 1083 l 365 1083 l 371 993 l 144 993 l 136 883 b 235 926 158 910 193 926 b 392 757 329 926 392 849 b 207 586 392 664 326 586 m 178 0 l 817 1083 l 933 1083 l 294 0 m 903 293 b 968 350 943 293 968 314 b 903 406 968 381 944 406 b 839 350 863 406 839 381 b 903 293 839 314 863 293 m 903 81 b 979 144 949 81 979 107 b 903 208 979 183 950 208 b 826 144 857 208 826 183 b 903 81 826 107 857 81 m 903 -10 b 728 138 788 -10 728 50 b 811 254 728 196 760 243 b 740 357 768 265 740 303 b 903 497 740 438 804 497 b 1067 357 1003 497 1067 438 b 994 254 1067 303 1038 265 b 1078 138 1046 243 1078 196 b 903 -10 1078 50 1018 -10 "},"⅞":{"ha":1111,"x_min":0,"x_max":0,"o":"m 125 596 b 264 993 125 746 201 931 l 114 993 l 114 931 l 22 931 l 22 1083 l 399 1083 l 399 1021 b 224 596 279 910 224 731 m 178 0 l 817 1083 l 933 1083 l 294 0 m 903 293 b 968 350 943 293 968 314 b 903 406 968 381 944 406 b 839 350 863 406 839 381 b 903 293 839 314 863 293 m 903 81 b 979 144 949 81 979 107 b 903 208 979 183 950 208 b 826 144 857 208 826 183 b 903 81 826 107 857 81 m 903 -10 b 728 138 788 -10 728 50 b 811 254 728 196 760 243 b 740 357 768 265 740 303 b 903 497 740 438 804 497 b 1067 357 1003 497 1067 438 b 994 254 1067 303 1038 265 b 1078 138 1046 243 1078 196 b 903 -10 1078 50 1018 -10 "},"ﬁ":{"ha":978,"x_min":0,"x_max":0,"o":"m 351 568 l 351 0 l 165 0 l 165 568 l 33 568 l 33 736 l 165 736 l 165 893 b 418 1131 165 1039 265 1131 b 654 904 581 1131 649 1018 l 493 904 b 421 974 489 946 465 974 b 351 897 381 974 351 946 l 351 736 l 554 736 l 554 568 m 693 736 l 882 736 l 882 0 l 693 0 m 669 961 b 788 1079 669 1026 722 1079 b 906 961 853 1079 906 1026 b 788 843 906 896 853 843 b 669 961 722 843 669 896 "},"ﬂ":{"ha":978,"x_min":0,"x_max":0,"o":"m 351 568 l 351 0 l 165 0 l 165 568 l 33 568 l 33 736 l 165 736 l 165 893 b 418 1131 165 1039 265 1131 b 654 904 581 1131 649 1018 l 493 904 b 421 974 489 946 465 974 b 351 897 381 974 351 946 l 351 736 l 554 736 l 554 568 m 693 1111 l 882 1111 l 882 0 l 693 0 "}}}
